<svg id="svg" version="1.1" xmlns="http://www.w3.org/2000/svg" xmlns:xlink="http://www.w3.org/1999/xlink" width="400" height="400" viewBox="0, 0, 400,400"><g id="svgg"><path id="path0" d="M191.000 25.628 C 87.956 32.337,14.345 119.913,26.616 221.200 C 28.647 237.964,32.778 253.542,39.290 269.000 C 74.816 353.331,170.937 395.505,258.205 365.052 C 375.527 324.111,413.059 176.096,329.826 82.604 C 295.923 44.523,241.822 22.319,191.000 25.628 M209.000 66.184 C 249.918 70.149,284.904 89.300,307.161 119.917 C 308.173 121.308,309.854 123.599,310.899 125.007 C 315.212 130.824,321.442 142.626,324.381 150.547 C 325.240 152.863,326.209 155.352,326.535 156.079 C 327.287 157.756,329.975 166.088,330.445 168.200 C 330.642 169.080,330.998 170.790,331.238 172.000 C 331.478 173.210,331.838 175.010,332.039 176.000 C 334.091 186.132,334.910 204.660,333.701 213.600 C 333.448 215.470,333.135 217.810,333.006 218.800 C 332.567 222.171,331.387 228.235,330.555 231.400 C 328.542 239.049,327.464 242.361,325.021 248.400 C 323.998 250.930,323.021 253.360,322.852 253.800 C 318.429 265.272,307.103 281.875,295.600 293.748 C 291.034 298.461,290.160 299.241,282.550 305.400 C 249.981 331.760,204.059 340.960,163.800 329.189 C 143.921 323.377,129.616 315.554,111.600 300.640 C 98.542 289.831,83.340 268.918,76.969 252.998 C 75.737 249.919,74.495 246.860,74.208 246.200 C 72.551 242.381,71.364 238.694,69.445 231.400 C 68.432 227.546,67.592 222.847,66.800 216.600 C 66.549 214.620,66.177 211.905,65.972 210.567 C 65.489 207.409,65.491 193.528,65.975 190.077 C 66.182 188.605,66.551 185.690,66.796 183.600 C 67.219 179.996,67.641 177.411,68.399 173.800 C 68.584 172.920,68.951 171.120,69.216 169.800 C 69.480 168.480,70.142 166.140,70.687 164.600 C 71.232 163.060,71.826 161.260,72.006 160.600 C 74.694 150.758,83.324 132.848,89.160 125.000 C 89.978 123.900,91.439 121.920,92.406 120.600 C 102.191 107.251,111.912 98.102,127.132 87.916 C 150.607 72.207,182.846 63.649,209.000 66.184 " stroke="none" fill="#0494f4" fill-rule="evenodd"></path><path id="path1" d="" stroke="none" fill="#0894f4" fill-rule="evenodd"></path><path id="path2" d="" stroke="none" fill="#0894f4" fill-rule="evenodd"></path></g></svg>