<svg id="svg" version="1.1" xmlns="http://www.w3.org/2000/svg" xmlns:xlink="http://www.w3.org/1999/xlink" width="400" height="400" viewBox="0, 0, 400,400"><g id="svgg"><path id="path0" d="M375.600 91.667 C 375.600 91.850,375.240 92.000,374.800 92.000 C 374.360 92.000,374.000 92.180,374.000 92.400 C 374.000 92.620,373.653 92.800,373.229 92.800 C 372.804 92.800,372.194 93.064,371.871 93.386 C 371.549 93.708,371.046 94.023,370.752 94.086 C 370.459 94.149,369.975 94.427,369.677 94.704 C 369.379 94.981,368.985 95.115,368.802 95.001 C 368.618 94.888,368.405 94.986,368.327 95.219 C 368.249 95.453,367.919 95.684,367.593 95.733 C 367.267 95.782,366.775 95.963,366.500 96.135 C 366.225 96.307,366.000 96.319,366.000 96.162 C 366.000 96.005,365.621 96.219,365.158 96.638 C 364.695 97.057,364.251 97.310,364.171 97.200 C 364.091 97.090,363.660 97.313,363.213 97.696 C 362.766 98.079,362.400 98.307,362.400 98.203 C 362.400 98.099,361.765 98.371,360.988 98.807 C 360.211 99.243,359.311 99.600,358.988 99.600 C 358.665 99.600,358.400 99.780,358.400 100.000 C 358.400 100.220,358.040 100.400,357.600 100.400 C 357.160 100.400,356.800 100.580,356.800 100.800 C 356.800 101.020,356.440 101.200,356.000 101.200 C 355.560 101.200,355.200 101.380,355.200 101.600 C 355.200 101.820,354.950 102.000,354.645 102.000 C 354.340 102.000,351.955 103.113,349.345 104.474 C 346.735 105.834,344.196 107.139,343.703 107.374 C 343.210 107.608,342.805 107.935,342.803 108.100 C 342.801 108.265,342.440 108.400,342.000 108.400 C 341.560 108.400,341.200 108.580,341.200 108.800 C 341.200 109.020,340.853 109.200,340.429 109.200 C 340.004 109.200,339.394 109.464,339.071 109.786 C 338.749 110.108,338.246 110.423,337.952 110.486 C 337.659 110.549,337.175 110.827,336.877 111.104 C 336.579 111.381,336.185 111.515,336.002 111.401 C 335.818 111.288,335.607 111.380,335.531 111.606 C 335.456 111.833,334.857 112.115,334.201 112.234 C 333.544 112.353,332.735 112.696,332.404 112.997 C 332.072 113.297,331.671 113.511,331.513 113.471 C 331.355 113.432,330.875 113.700,330.447 114.067 C 330.018 114.434,329.567 114.633,329.443 114.510 C 329.320 114.386,329.110 114.570,328.976 114.917 C 328.843 115.265,328.497 115.459,328.207 115.347 C 327.918 115.236,327.562 115.338,327.417 115.573 C 327.272 115.808,326.803 116.000,326.376 116.000 C 325.949 116.000,325.600 116.180,325.600 116.400 C 325.600 116.620,325.240 116.800,324.800 116.800 C 324.360 116.800,323.999 116.935,323.997 117.100 C 323.993 117.459,322.056 118.400,321.320 118.400 C 321.034 118.400,320.800 118.580,320.800 118.800 C 320.800 119.020,320.559 119.200,320.264 119.200 C 319.969 119.200,317.944 120.123,315.764 121.252 C 313.584 122.381,311.396 123.506,310.903 123.752 C 310.410 123.998,310.005 124.335,310.003 124.500 C 310.001 124.665,309.640 124.800,309.200 124.800 C 308.760 124.800,308.400 124.980,308.400 125.200 C 308.400 125.420,308.040 125.600,307.600 125.600 C 307.160 125.600,306.800 125.780,306.800 126.000 C 306.800 126.220,306.440 126.400,306.000 126.400 C 305.560 126.400,305.200 126.591,305.200 126.824 C 305.200 127.057,305.035 127.145,304.834 127.021 C 304.633 126.897,304.408 126.963,304.334 127.168 C 304.260 127.372,303.930 127.598,303.600 127.670 C 303.270 127.741,302.895 127.941,302.768 128.114 C 302.640 128.287,302.011 128.523,301.371 128.640 C 300.731 128.756,299.890 129.137,299.504 129.487 C 299.117 129.837,298.800 129.978,298.800 129.800 C 298.800 129.622,298.485 129.736,298.100 130.054 C 297.715 130.372,296.725 130.937,295.900 131.309 C 295.075 131.682,294.400 132.182,294.400 132.420 C 294.400 132.672,294.064 132.747,293.600 132.600 C 293.141 132.454,292.800 132.528,292.800 132.773 C 292.800 133.008,292.410 133.200,291.933 133.200 C 291.457 133.200,291.185 133.082,291.330 132.937 C 291.475 132.792,291.432 132.477,291.236 132.237 C 291.039 131.997,290.685 131.080,290.448 130.200 C 290.211 129.320,289.608 128.143,289.109 127.585 C 288.609 127.027,288.144 126.320,288.076 126.013 C 287.864 125.060,286.372 123.200,285.819 123.200 C 285.530 123.200,285.200 122.842,285.085 122.405 C 284.971 121.967,284.435 121.441,283.893 121.236 C 283.352 121.030,282.812 120.488,282.692 120.031 C 282.559 119.523,282.149 119.200,281.637 119.200 C 281.177 119.200,280.800 119.020,280.800 118.800 C 280.800 118.580,280.440 118.400,280.000 118.400 C 279.560 118.400,279.200 118.220,279.200 118.000 C 279.200 117.780,278.840 117.600,278.400 117.600 C 277.960 117.600,277.600 117.420,277.600 117.200 C 277.600 116.980,277.240 116.800,276.800 116.800 C 276.360 116.800,276.000 116.599,276.000 116.353 C 276.000 116.093,275.584 115.986,275.003 116.097 C 274.435 116.206,273.810 116.054,273.554 115.744 C 272.918 114.978,264.856 114.978,263.808 115.745 C 263.398 116.044,262.754 116.209,262.377 116.110 C 261.999 116.011,261.569 116.126,261.422 116.365 C 261.274 116.604,260.713 116.800,260.176 116.800 C 259.639 116.800,259.200 116.980,259.200 117.200 C 259.200 117.420,258.883 117.600,258.496 117.600 C 258.109 117.600,257.568 117.960,257.293 118.400 C 257.018 118.840,256.525 119.200,256.196 119.200 C 254.444 119.200,246.844 128.773,246.755 131.092 C 246.748 131.261,246.508 131.670,246.221 132.000 C 245.549 132.773,244.981 138.400,245.576 138.400 C 245.809 138.400,246.000 138.769,246.000 139.220 C 246.000 140.452,241.415 140.234,241.373 139.000 C 241.323 137.555,240.772 136.445,239.980 136.194 C 239.271 135.969,239.023 135.521,239.153 134.700 C 239.179 134.535,238.983 134.445,238.718 134.500 C 238.453 134.555,238.220 134.330,238.200 134.000 C 238.180 133.670,237.947 133.445,237.682 133.500 C 237.417 133.555,237.245 133.383,237.300 133.118 C 237.355 132.853,237.130 132.620,236.800 132.600 C 236.470 132.580,236.238 132.368,236.284 132.129 C 236.382 131.624,234.840 130.126,234.458 130.355 C 234.316 130.440,233.998 130.114,233.751 129.630 C 233.503 129.146,233.170 128.778,233.009 128.813 C 232.848 128.847,232.049 128.139,231.234 127.238 C 230.419 126.337,229.488 125.600,229.164 125.600 C 228.841 125.600,228.350 125.285,228.072 124.900 C 226.678 122.964,216.656 124.949,217.874 126.920 C 218.011 127.142,217.937 127.208,217.709 127.067 C 217.481 126.927,215.700 128.429,213.750 130.406 C 210.027 134.181,209.089 134.624,207.809 133.209 C 207.415 132.775,206.909 132.532,206.685 132.671 C 206.460 132.810,206.390 132.740,206.529 132.515 C 206.668 132.291,206.425 131.785,205.991 131.391 C 205.556 130.998,205.193 130.839,205.184 131.038 C 205.175 131.237,204.884 130.876,204.537 130.235 C 203.853 128.972,201.635 126.938,201.119 127.100 C 200.943 127.155,200.845 126.990,200.900 126.733 C 200.955 126.476,200.614 126.064,200.143 125.817 C 199.671 125.571,198.995 125.128,198.640 124.833 C 197.588 123.960,191.367 124.013,190.728 124.900 C 190.450 125.285,189.959 125.600,189.636 125.600 C 189.312 125.600,188.381 126.337,187.566 127.238 C 186.751 128.139,185.952 128.847,185.791 128.813 C 185.630 128.778,185.297 129.146,185.049 129.630 C 184.802 130.114,184.484 130.440,184.342 130.355 C 183.960 130.126,182.418 131.624,182.516 132.129 C 182.562 132.368,182.330 132.580,182.000 132.600 C 181.670 132.620,181.449 132.867,181.510 133.148 C 181.570 133.429,181.434 133.545,181.207 133.404 C 180.980 133.264,180.697 133.404,180.577 133.715 C 180.443 134.065,179.995 134.212,179.405 134.099 C 178.449 133.916,178.117 133.613,174.592 129.706 C 173.553 128.555,172.540 127.713,172.341 127.836 C 172.143 127.959,172.025 127.911,172.079 127.730 C 172.134 127.548,171.598 126.829,170.889 126.131 C 170.180 125.433,169.600 124.966,169.600 125.093 C 169.600 125.220,169.285 125.068,168.900 124.754 C 168.044 124.057,162.313 124.042,161.479 124.734 C 161.175 124.987,160.801 125.067,160.647 124.914 C 160.494 124.761,160.264 125.032,160.137 125.517 C 159.935 126.292,159.305 126.609,158.293 126.445 C 158.123 126.417,157.780 126.846,157.528 127.398 C 157.277 127.949,156.871 128.400,156.625 128.400 C 156.379 128.400,154.928 129.660,153.400 131.200 C 150.377 134.246,149.639 134.511,148.337 133.014 C 147.865 132.471,147.322 132.125,147.130 132.243 C 146.938 132.362,146.830 132.221,146.890 131.930 C 146.951 131.636,146.732 131.460,146.400 131.533 C 146.070 131.607,145.940 131.526,146.112 131.354 C 146.661 130.805,140.424 124.869,139.541 125.100 C 139.052 125.227,138.809 125.119,138.883 124.805 C 138.968 124.444,138.104 124.294,135.700 124.254 C 133.885 124.224,132.400 124.329,132.400 124.486 C 132.400 124.643,132.018 124.976,131.552 125.226 C 130.866 125.593,130.762 125.576,131.007 125.140 C 131.174 124.843,130.034 125.846,128.475 127.370 C 126.915 128.893,125.734 130.293,125.849 130.480 C 125.965 130.667,125.899 130.770,125.702 130.710 C 125.331 130.596,122.400 133.504,122.400 133.987 C 122.400 135.147,119.517 133.636,116.979 131.145 C 115.427 129.622,114.052 128.481,113.924 128.609 C 113.796 128.737,113.335 128.389,112.899 127.835 C 112.463 127.281,112.032 126.901,111.942 126.992 C 111.851 127.082,111.422 126.627,110.989 125.979 C 110.555 125.332,109.885 124.802,109.500 124.801 C 109.115 124.801,108.800 124.665,108.800 124.500 C 108.800 124.101,103.219 124.201,102.200 124.619 C 101.266 125.002,99.200 126.855,99.200 127.309 C 99.200 127.672,95.738 131.200,95.382 131.200 C 94.933 131.200,94.038 132.304,94.286 132.552 C 94.422 132.689,94.289 132.800,93.991 132.800 C 93.692 132.800,92.775 133.543,91.953 134.452 C 90.715 135.820,90.269 136.068,89.358 135.894 C 88.681 135.765,88.035 135.908,87.675 136.268 C 87.354 136.589,86.530 136.822,85.845 136.785 C 83.922 136.683,83.531 136.765,83.810 137.216 C 83.977 137.486,83.702 137.540,83.026 137.371 C 82.453 137.227,81.493 137.302,80.892 137.537 C 80.292 137.772,79.440 138.017,79.000 138.082 C 78.560 138.147,78.076 138.373,77.925 138.583 C 77.773 138.794,77.008 138.924,76.225 138.871 C 75.441 138.818,74.800 138.961,74.800 139.187 C 74.800 139.414,74.282 139.600,73.649 139.600 C 73.016 139.600,72.276 139.868,72.004 140.196 C 71.732 140.523,71.370 140.705,71.200 140.600 C 71.030 140.495,70.677 140.666,70.416 140.981 C 70.155 141.295,69.709 141.463,69.425 141.354 C 69.140 141.245,68.118 141.591,67.154 142.122 C 66.189 142.654,65.175 143.009,64.900 142.911 C 64.625 142.813,64.400 142.928,64.400 143.167 C 64.400 143.405,64.040 143.600,63.600 143.600 C 63.160 143.600,62.800 143.780,62.800 144.000 C 62.800 144.220,62.528 144.400,62.195 144.400 C 61.538 144.400,60.212 145.069,59.100 145.962 C 58.715 146.271,58.400 146.372,58.400 146.187 C 58.400 146.002,57.822 146.379,57.115 147.025 C 56.409 147.671,56.004 147.922,56.215 147.581 C 56.458 147.190,56.360 147.221,55.950 147.664 C 55.592 148.050,55.187 148.254,55.050 148.116 C 54.912 147.979,54.800 148.087,54.800 148.357 C 54.800 148.627,54.632 148.744,54.427 148.617 C 54.222 148.490,53.817 148.705,53.527 149.093 C 53.237 149.482,52.771 149.846,52.492 149.903 C 51.854 150.031,47.902 152.775,47.506 153.363 C 47.344 153.603,47.209 153.652,47.206 153.471 C 47.198 153.043,46.369 153.920,45.505 155.270 C 45.129 155.858,44.446 156.458,43.988 156.604 C 42.665 157.024,33.778 166.318,33.938 167.114 C 34.014 167.492,33.949 167.675,33.794 167.522 C 33.475 167.209,31.345 169.586,31.500 170.081 C 31.555 170.257,31.390 170.400,31.133 170.400 C 30.877 170.400,30.776 170.509,30.909 170.642 C 31.042 170.776,30.709 171.327,30.168 171.868 C 29.627 172.409,29.289 173.020,29.416 173.226 C 29.543 173.432,29.446 173.600,29.200 173.600 C 28.954 173.600,28.864 173.780,29.000 174.000 C 29.136 174.220,29.027 174.400,28.757 174.400 C 28.487 174.400,28.386 174.519,28.531 174.664 C 28.676 174.809,28.443 175.175,28.013 175.476 C 27.584 175.777,27.115 176.648,26.971 177.411 C 26.828 178.175,26.551 178.800,26.355 178.800 C 26.160 178.800,26.000 179.250,26.000 179.800 C 26.000 180.387,25.793 180.759,25.500 180.700 C 25.219 180.644,25.052 180.909,25.119 181.305 C 25.184 181.693,24.972 182.113,24.648 182.237 C 24.323 182.361,24.124 182.807,24.205 183.227 C 24.286 183.647,24.124 184.219,23.844 184.499 C 23.564 184.778,23.410 185.230,23.501 185.503 C 23.592 185.776,23.382 186.109,23.033 186.243 C 22.685 186.376,22.400 186.906,22.400 187.419 C 22.400 187.933,22.220 188.464,22.000 188.600 C 21.780 188.736,21.600 189.276,21.600 189.800 C 21.600 190.324,21.420 190.864,21.200 191.000 C 20.980 191.136,20.800 191.942,20.800 192.790 C 20.800 193.639,20.628 194.393,20.418 194.467 C 20.207 194.540,19.990 195.275,19.936 196.100 C 19.881 196.925,19.729 197.600,19.599 197.600 C 19.468 197.600,19.437 198.251,19.529 199.046 C 19.637 199.963,19.507 200.610,19.176 200.815 C 18.833 201.027,18.687 201.849,18.749 203.213 C 18.813 204.609,18.647 205.506,18.243 205.952 C 17.803 206.439,17.624 207.708,17.572 210.708 C 17.533 212.959,17.344 214.800,17.151 214.800 C 16.567 214.800,16.713 224.392,17.300 224.616 C 17.671 224.758,17.768 226.031,17.677 229.552 C 17.575 233.515,17.662 234.405,18.206 234.949 C 18.683 235.426,18.830 236.199,18.755 237.831 C 18.685 239.337,18.822 240.166,19.178 240.386 C 19.506 240.589,19.634 241.187,19.519 241.973 C 19.417 242.667,19.483 243.328,19.667 243.441 C 19.850 243.555,20.000 244.156,20.000 244.778 C 20.000 245.400,20.261 246.411,20.580 247.026 C 20.898 247.640,21.068 248.291,20.956 248.471 C 20.844 248.652,20.943 248.800,21.176 248.800 C 21.409 248.800,21.600 249.124,21.600 249.520 C 21.600 249.916,21.804 250.444,22.053 250.693 C 22.303 250.943,22.550 251.564,22.602 252.073 C 22.655 252.583,22.721 253.236,22.749 253.524 C 22.777 253.812,22.943 253.959,23.117 253.851 C 23.291 253.744,23.462 254.032,23.497 254.492 C 23.532 254.952,23.789 255.469,24.068 255.642 C 24.348 255.815,24.462 256.072,24.321 256.212 C 23.981 256.552,24.778 258.800,25.239 258.800 C 25.438 258.800,25.600 259.160,25.600 259.600 C 25.600 260.040,25.780 260.400,26.000 260.400 C 26.220 260.400,26.400 260.790,26.400 261.267 C 26.400 261.743,26.519 262.014,26.665 261.868 C 26.974 261.559,28.190 264.134,28.586 265.937 C 28.736 266.621,29.063 267.140,29.311 267.090 C 29.560 267.041,29.783 267.180,29.806 267.400 C 30.002 269.244,31.971 272.265,32.491 271.519 C 32.734 271.170,32.774 271.281,32.613 271.857 C 32.427 272.522,32.752 273.039,34.059 274.157 C 34.986 274.951,35.496 275.600,35.194 275.600 C 34.873 275.600,35.178 276.152,35.922 276.919 C 36.625 277.645,37.200 278.425,37.200 278.653 C 37.200 278.881,38.460 280.272,40.000 281.744 C 41.540 283.216,42.800 284.630,42.800 284.886 C 42.800 285.414,45.946 288.375,46.584 288.447 C 46.813 288.473,47.148 288.469,47.330 288.437 C 47.511 288.406,47.552 288.554,47.421 288.766 C 47.290 288.978,47.460 289.388,47.799 289.676 C 48.138 289.964,49.267 291.052,50.308 292.094 C 51.349 293.135,52.391 293.990,52.625 293.994 C 52.859 293.997,53.566 294.538,54.196 295.196 C 54.826 295.854,55.433 296.300,55.546 296.188 C 55.658 296.076,56.436 296.654,57.275 297.473 C 58.114 298.292,58.800 298.802,58.800 298.606 C 58.800 298.411,59.340 298.768,60.000 299.400 C 60.660 300.032,61.200 300.420,61.200 300.261 C 61.200 300.102,61.565 300.167,62.011 300.406 C 62.457 300.645,62.717 301.011,62.588 301.220 C 62.376 301.563,62.917 301.771,63.700 301.647 C 63.865 301.621,64.000 301.791,64.000 302.024 C 64.000 302.257,64.180 302.336,64.400 302.200 C 64.620 302.064,64.800 302.154,64.800 302.400 C 64.800 302.646,64.980 302.736,65.200 302.600 C 65.420 302.464,65.600 302.543,65.600 302.776 C 65.600 303.009,65.848 303.200,66.151 303.200 C 66.454 303.200,66.919 303.462,67.185 303.782 C 67.805 304.528,73.194 307.200,74.080 307.200 C 74.450 307.200,74.874 307.396,75.022 307.635 C 75.169 307.874,75.630 307.981,76.046 307.872 C 76.461 307.764,76.700 307.838,76.576 308.038 C 76.342 308.417,78.129 309.308,79.239 309.366 C 79.590 309.385,80.209 309.670,80.615 310.000 C 81.272 310.533,81.314 310.533,81.000 310.000 C 80.695 309.482,80.739 309.475,81.323 309.949 C 81.695 310.251,82.000 310.358,82.000 310.187 C 82.000 310.016,82.353 310.196,82.785 310.587 C 83.217 310.977,83.834 311.196,84.156 311.072 C 84.478 310.949,84.955 311.105,85.216 311.419 C 85.477 311.734,85.818 311.912,85.974 311.816 C 86.130 311.720,86.694 311.858,87.229 312.123 C 87.763 312.388,88.740 312.666,89.400 312.741 C 90.060 312.816,90.780 313.005,91.000 313.160 C 91.220 313.315,92.030 313.495,92.800 313.561 C 93.570 313.627,94.290 313.801,94.400 313.949 C 94.510 314.096,95.230 314.276,96.000 314.347 C 96.770 314.418,97.613 314.652,97.874 314.866 C 98.135 315.080,99.655 315.213,101.252 315.161 C 102.849 315.109,104.211 315.232,104.278 315.433 C 104.425 315.877,118.548 315.757,118.696 315.311 C 118.753 315.140,119.475 315.022,120.300 315.049 C 121.125 315.077,122.295 314.847,122.900 314.539 C 123.505 314.231,124.003 314.119,124.006 314.290 C 124.009 314.460,124.155 314.376,124.329 314.102 C 124.502 313.828,125.138 313.563,125.741 313.513 C 126.343 313.463,127.126 313.102,127.480 312.711 C 127.834 312.320,128.331 312.000,128.584 312.000 C 129.484 312.000,132.001 308.851,132.165 307.520 C 132.184 307.366,132.380 307.060,132.600 306.840 C 133.149 306.292,132.857 302.318,132.293 302.666 C 132.031 302.828,131.954 302.696,132.096 302.328 C 132.392 301.555,130.690 298.565,130.036 298.710 C 129.763 298.770,129.640 298.659,129.761 298.463 C 129.882 298.267,129.583 297.768,129.097 297.353 C 128.225 296.610,128.221 296.610,128.788 297.400 C 129.104 297.840,128.643 297.525,127.764 296.700 C 126.885 295.875,125.779 295.200,125.307 295.200 C 124.834 295.200,124.336 295.020,124.200 294.800 C 124.064 294.580,123.423 294.400,122.776 294.400 C 122.129 294.400,121.600 294.240,121.600 294.044 C 121.600 293.848,120.925 293.578,120.100 293.445 C 117.160 292.970,116.755 292.860,116.186 292.388 C 115.869 292.126,115.351 292.010,115.034 292.131 C 114.718 292.253,114.240 292.089,113.973 291.767 C 113.706 291.445,113.178 291.280,112.800 291.400 C 112.422 291.520,111.885 291.344,111.607 291.009 C 111.329 290.674,110.764 290.400,110.351 290.400 C 109.938 290.400,109.600 290.200,109.600 289.957 C 109.600 289.683,109.216 289.610,108.600 289.764 C 108.029 289.908,107.600 289.842,107.600 289.612 C 107.600 289.390,106.195 288.502,104.478 287.639 C 102.760 286.776,101.118 285.784,100.829 285.435 C 100.539 285.086,100.082 284.800,99.812 284.800 C 99.543 284.800,98.920 284.451,98.429 284.025 C 97.937 283.599,97.280 283.348,96.968 283.468 C 96.626 283.599,96.400 283.435,96.400 283.057 C 96.400 282.402,95.069 281.464,94.685 281.848 C 94.564 281.969,94.261 281.688,94.012 281.223 C 93.751 280.735,93.357 280.494,93.080 280.653 C 92.816 280.804,92.739 280.776,92.908 280.589 C 93.332 280.123,90.408 277.200,89.519 277.200 C 89.123 277.200,88.800 276.930,88.800 276.600 C 88.800 276.270,88.620 276.000,88.400 276.000 C 88.180 276.000,88.042 275.865,88.094 275.700 C 88.241 275.232,86.318 273.200,85.728 273.200 C 85.438 273.200,85.200 272.930,85.200 272.600 C 85.200 272.270,85.009 272.000,84.776 272.000 C 84.543 272.000,84.450 271.843,84.568 271.652 C 84.864 271.172,83.397 269.544,82.996 269.907 C 82.818 270.068,82.781 269.896,82.914 269.526 C 83.047 269.153,82.832 268.437,82.433 267.926 C 82.036 267.416,81.111 265.830,80.378 264.400 C 79.645 262.970,78.826 261.665,78.560 261.501 C 78.293 261.336,78.167 260.848,78.280 260.415 C 78.396 259.974,78.194 259.337,77.820 258.963 C 77.454 258.597,77.254 258.037,77.376 257.719 C 77.498 257.401,77.312 256.854,76.962 256.505 C 76.549 256.092,76.403 255.484,76.546 254.769 C 76.688 254.059,76.555 253.495,76.169 253.174 C 75.718 252.800,75.588 251.890,75.640 249.457 C 75.678 247.686,75.541 246.180,75.336 246.112 C 74.920 245.973,75.131 243.200,75.557 243.200 C 75.705 243.200,75.755 241.942,75.668 240.405 C 75.542 238.175,75.633 237.562,76.116 237.377 C 76.525 237.220,76.664 236.778,76.544 236.018 C 76.436 235.331,76.607 234.650,76.982 234.275 C 77.321 233.937,77.500 233.405,77.381 233.094 C 77.261 232.783,77.442 232.297,77.782 232.015 C 78.122 231.733,78.400 231.110,78.400 230.631 C 78.400 230.152,78.625 229.522,78.900 229.230 C 79.243 228.867,79.263 228.649,78.965 228.538 C 78.062 228.203,78.938 225.440,80.129 224.870 C 80.742 224.576,81.396 223.937,81.581 223.451 C 82.410 221.270,84.543 221.119,85.002 223.208 C 85.143 223.853,85.145 224.566,85.004 224.793 C 84.864 225.020,85.041 225.318,85.398 225.454 C 85.754 225.591,85.949 225.957,85.830 226.267 C 85.711 226.577,85.884 226.934,86.214 227.061 C 86.544 227.187,86.782 227.496,86.743 227.746 C 86.633 228.445,87.443 230.172,88.158 230.765 C 88.511 231.058,88.800 231.462,88.800 231.663 C 88.800 232.416,94.192 237.212,94.784 236.985 C 95.109 236.860,95.242 236.891,95.079 237.054 C 94.916 237.217,95.642 237.892,96.692 238.554 C 98.622 239.772,99.233 240.024,100.500 240.119 C 100.885 240.148,101.200 240.283,101.200 240.419 C 101.200 240.555,101.425 240.682,101.700 240.701 C 101.975 240.720,102.650 240.883,103.200 241.062 C 103.750 241.242,110.410 241.389,118.000 241.389 C 125.590 241.389,132.250 241.242,132.800 241.062 C 133.350 240.883,134.025 240.720,134.300 240.701 C 134.575 240.682,134.800 240.506,134.800 240.310 C 134.800 240.113,134.968 240.056,135.172 240.183 C 135.377 240.309,135.660 240.227,135.800 240.000 C 135.940 239.773,136.206 239.680,136.391 239.795 C 136.576 239.909,137.155 239.494,137.678 238.872 C 138.200 238.251,138.805 237.802,139.021 237.874 C 140.318 238.306,145.600 230.996,145.600 228.767 C 145.600 228.371,145.780 227.936,146.000 227.800 C 146.645 227.401,146.476 220.335,145.800 219.441 C 145.000 218.384,145.385 218.000,147.250 218.000 C 149.099 218.000,150.546 218.640,150.149 219.282 C 149.985 219.548,150.060 219.610,150.338 219.438 C 150.592 219.281,150.800 219.349,150.800 219.588 C 150.800 219.895,154.163 219.991,162.149 219.912 C 171.105 219.824,173.601 219.911,173.987 220.324 C 174.389 220.754,174.559 220.735,174.939 220.216 C 175.455 219.510,176.288 219.468,181.200 219.901 C 185.131 220.247,185.671 220.493,185.430 221.826 C 185.332 222.362,185.442 222.800,185.673 222.800 C 185.904 222.800,185.996 223.171,185.878 223.624 C 185.743 224.139,185.884 224.534,186.253 224.676 C 186.578 224.800,186.801 225.284,186.748 225.751 C 186.617 226.910,188.104 229.987,189.366 231.170 C 189.935 231.703,190.400 232.285,190.400 232.463 C 190.400 232.971,193.969 236.565,194.222 236.311 C 194.346 236.187,194.908 236.495,195.470 236.997 C 197.659 238.953,198.000 239.189,198.000 238.756 C 198.000 238.511,198.374 238.736,198.830 239.256 C 199.287 239.775,199.535 239.956,199.381 239.659 C 199.192 239.292,199.445 239.342,200.163 239.813 C 200.747 240.195,201.333 240.400,201.465 240.268 C 201.597 240.136,201.997 240.184,202.353 240.374 C 202.709 240.565,203.630 240.867,204.400 241.046 C 206.231 241.472,232.300 241.486,233.600 241.062 C 234.150 240.883,234.825 240.720,235.100 240.701 C 235.375 240.682,235.600 240.522,235.600 240.346 C 235.600 240.169,235.830 240.113,236.111 240.221 C 236.392 240.329,237.237 239.963,237.988 239.409 C 238.740 238.854,239.492 238.400,239.659 238.400 C 240.131 238.400,244.000 234.415,244.000 233.928 C 244.000 233.689,244.315 233.201,244.700 232.843 C 245.669 231.941,246.400 230.560,246.400 229.629 C 246.400 229.199,246.580 228.736,246.800 228.600 C 247.020 228.464,247.200 227.463,247.200 226.376 C 247.200 225.289,247.380 224.400,247.600 224.400 C 248.429 224.400,247.957 222.594,246.900 221.724 C 245.603 220.657,246.117 220.016,248.276 220.006 C 248.978 220.003,249.664 219.820,249.800 219.600 C 249.936 219.380,250.399 219.200,250.829 219.200 C 251.259 219.200,251.948 218.990,252.360 218.732 C 253.158 218.234,255.600 218.924,255.600 219.649 C 255.600 219.849,279.773 220.000,311.800 220.000 C 342.710 220.000,368.000 219.859,368.000 219.687 C 368.000 219.515,368.485 219.334,369.078 219.285 C 369.670 219.236,370.255 219.062,370.378 218.898 C 370.500 218.734,371.050 218.539,371.600 218.464 C 372.150 218.390,372.972 217.985,373.426 217.564 C 373.880 217.144,374.424 216.800,374.635 216.800 C 375.830 216.800,382.238 209.327,382.056 208.146 C 382.017 207.896,382.245 207.592,382.562 207.470 C 382.917 207.334,383.055 206.932,382.922 206.424 C 382.795 205.937,382.899 205.600,383.177 205.600 C 383.436 205.600,383.536 205.420,383.400 205.200 C 383.264 204.980,383.327 204.800,383.539 204.800 C 383.751 204.800,383.832 204.443,383.718 204.006 C 383.438 202.938,383.927 201.108,384.412 201.407 C 384.656 201.558,384.800 199.428,384.800 195.656 C 384.800 189.633,384.628 188.212,383.948 188.632 C 383.746 188.757,383.606 188.711,383.637 188.530 C 383.845 187.334,383.547 185.985,383.132 186.242 C 382.817 186.436,382.748 186.313,382.920 185.866 C 383.201 185.133,380.519 181.879,379.933 182.241 C 379.750 182.355,379.600 182.236,379.600 181.977 C 379.600 181.707,379.266 181.594,378.815 181.712 C 378.383 181.825,377.821 181.666,377.566 181.359 C 376.950 180.617,373.824 180.633,373.076 181.381 C 372.757 181.700,372.384 181.850,372.248 181.714 C 372.111 181.578,372.000 181.707,372.000 182.000 C 372.000 182.293,371.882 182.415,371.738 182.271 C 371.384 181.917,365.578 187.640,365.847 188.076 C 365.964 188.265,365.821 188.370,365.530 188.310 C 365.238 188.249,365.049 188.438,365.110 188.730 C 365.170 189.021,365.034 189.145,364.807 189.004 C 364.580 188.864,364.282 189.043,364.144 189.401 C 363.952 189.902,362.812 188.984,359.210 185.426 C 354.989 181.257,353.200 180.006,353.200 181.224 C 353.200 181.457,353.036 181.546,352.836 181.423 C 352.637 181.299,352.027 181.728,351.481 182.377 C 350.935 183.025,350.379 183.446,350.244 183.311 C 350.110 183.177,350.000 183.277,350.000 183.533 C 350.000 183.790,349.843 183.955,349.650 183.900 C 349.458 183.845,348.666 184.373,347.890 185.073 C 347.115 185.774,346.357 186.224,346.207 186.073 C 346.056 185.923,345.992 185.980,346.064 186.200 C 346.263 186.812,345.077 188.228,344.400 188.187 C 344.070 188.167,343.215 188.747,342.501 189.475 C 341.162 190.841,340.400 191.151,340.400 190.331 C 340.400 190.072,338.510 187.952,336.200 185.618 C 331.941 181.316,330.630 180.559,329.593 181.808 C 329.323 182.134,328.885 182.400,328.621 182.400 C 327.995 182.400,326.400 184.101,326.400 184.769 C 326.400 185.067,326.143 185.187,325.791 185.052 C 325.422 184.910,324.610 185.358,323.726 186.192 C 322.925 186.948,322.146 187.490,321.996 187.397 C 321.845 187.304,321.211 187.762,320.586 188.414 C 319.151 189.912,315.200 189.584,315.200 187.966 C 315.200 187.403,311.457 184.001,310.847 184.011 C 310.491 184.016,308.580 185.635,306.600 187.607 C 302.525 191.667,302.383 191.719,300.631 189.806 C 299.929 189.039,298.787 188.214,298.094 187.973 C 297.400 187.731,296.726 187.198,296.597 186.789 C 296.340 185.980,297.777 182.800,298.400 182.800 C 298.611 182.800,299.990 181.707,301.463 180.372 C 303.352 178.660,304.357 178.011,304.871 178.172 C 305.272 178.297,305.952 178.509,306.382 178.642 C 306.983 178.828,307.223 178.650,307.418 177.871 C 307.558 177.314,307.934 176.757,308.255 176.634 C 308.575 176.511,308.808 176.183,308.771 175.905 C 308.444 173.408,308.864 168.400,309.400 168.400 C 309.730 168.400,310.000 168.561,310.000 168.758 C 310.000 169.391,321.255 170.080,321.851 169.483 C 322.025 169.308,322.175 168.228,322.184 167.083 C 322.193 165.937,322.369 164.878,322.576 164.730 C 322.782 164.581,323.163 161.881,323.420 158.730 C 323.678 155.578,323.936 152.910,323.992 152.800 C 324.049 152.690,324.073 152.465,324.047 152.300 C 323.979 151.869,326.567 151.929,327.020 152.369 C 327.405 152.742,331.334 153.161,335.900 153.316 C 337.275 153.362,338.400 153.546,338.400 153.724 C 338.400 153.902,338.580 153.936,338.800 153.800 C 339.020 153.664,339.200 153.743,339.200 153.976 C 339.200 154.624,341.194 154.481,341.450 153.815 C 341.573 153.494,341.980 153.133,342.353 153.015 C 342.923 152.834,343.007 152.380,342.874 150.191 C 342.765 148.389,342.883 147.382,343.256 146.932 C 343.611 146.505,343.751 145.500,343.665 144.003 C 343.568 142.323,343.700 141.557,344.167 141.090 C 344.581 140.677,344.800 139.743,344.800 138.396 L 344.800 136.334 347.700 136.576 C 349.295 136.708,351.680 136.858,353.000 136.908 C 354.320 136.959,355.638 137.225,355.929 137.500 C 357.228 138.729,361.192 137.782,360.973 136.294 C 360.916 135.906,361.090 135.366,361.359 135.094 C 361.629 134.822,361.898 133.520,361.958 132.200 C 362.018 130.881,362.245 129.587,362.461 129.326 C 362.678 129.065,362.813 127.558,362.762 125.978 C 362.631 121.941,362.344 122.041,370.800 123.166 C 372.450 123.385,375.015 123.573,376.500 123.582 C 378.022 123.592,379.200 123.775,379.200 124.000 C 379.200 124.220,379.470 124.400,379.800 124.400 C 380.130 124.400,380.400 124.220,380.400 124.000 C 380.400 123.780,380.670 123.600,381.000 123.600 C 381.514 123.600,381.822 122.603,381.647 121.500 C 381.621 121.335,381.755 121.200,381.945 121.200 C 382.134 121.200,382.204 120.757,382.101 120.215 C 381.993 119.651,382.165 118.977,382.505 118.638 C 382.842 118.301,383.017 117.625,382.911 117.069 C 382.809 116.533,382.922 115.972,383.162 115.823 C 383.403 115.675,383.600 114.865,383.600 114.025 C 383.600 113.156,383.858 112.284,384.200 112.000 C 384.530 111.726,384.800 111.020,384.800 110.431 C 384.800 109.842,384.962 109.189,385.159 108.980 C 385.356 108.771,385.612 107.880,385.727 107.000 C 385.842 106.120,386.057 104.928,386.205 104.350 C 386.380 103.668,386.279 103.118,385.917 102.780 C 385.587 102.472,385.430 101.775,385.533 101.073 C 385.666 100.172,385.582 99.964,385.186 100.209 C 384.812 100.440,384.735 100.346,384.915 99.877 C 385.053 99.517,384.912 98.969,384.602 98.659 C 384.292 98.349,384.150 97.984,384.286 97.848 C 384.422 97.711,384.313 97.600,384.043 97.600 C 383.773 97.600,383.664 97.420,383.800 97.200 C 383.936 96.980,383.857 96.800,383.624 96.800 C 383.391 96.800,383.245 96.575,383.300 96.300 C 383.355 96.025,383.191 95.840,382.936 95.888 C 382.680 95.937,381.826 95.262,381.037 94.388 C 380.248 93.515,379.332 92.800,379.001 92.800 C 378.670 92.800,378.400 92.620,378.400 92.400 C 378.400 92.180,378.040 92.000,377.600 92.000 C 377.160 92.000,376.800 91.850,376.800 91.667 C 376.800 91.483,376.530 91.333,376.200 91.333 C 375.870 91.333,375.600 91.483,375.600 91.667 " stroke="none" fill="#3cfc4c" fill-rule="evenodd"></path><path id="path1" d="M251.791 122.500 L 248.600 125.800 251.900 122.609 C 253.715 120.855,255.200 119.370,255.200 119.309 C 255.200 119.018,254.754 119.435,251.791 122.500 M285.000 122.000 C 286.528 123.540,287.869 124.800,287.979 124.800 C 288.089 124.800,286.928 123.540,285.400 122.000 C 283.872 120.460,282.531 119.200,282.421 119.200 C 282.311 119.200,283.472 120.460,285.000 122.000 M374.000 123.846 C 376.388 124.146,379.110 124.176,378.939 123.900 C 378.836 123.735,377.458 123.627,375.876 123.660 C 374.294 123.693,373.450 123.776,374.000 123.846 M98.985 126.900 L 97.000 129.000 99.100 127.015 C 101.051 125.171,101.383 124.800,101.085 124.800 C 101.022 124.800,100.077 125.745,98.985 126.900 M174.400 129.400 C 176.923 131.930,179.077 134.000,179.187 134.000 C 179.297 134.000,177.323 131.930,174.800 129.400 C 172.277 126.870,170.123 124.800,170.013 124.800 C 169.903 124.800,171.877 126.870,174.400 129.400 M217.200 126.600 C 216.228 127.590,215.523 128.400,215.633 128.400 C 215.743 128.400,216.628 127.590,217.600 126.600 C 218.572 125.610,219.277 124.800,219.167 124.800 C 219.057 124.800,218.172 125.610,217.200 126.600 M201.600 127.000 C 202.346 127.770,203.047 128.400,203.157 128.400 C 203.267 128.400,202.746 127.770,202.000 127.000 C 201.254 126.230,200.553 125.600,200.443 125.600 C 200.333 125.600,200.854 126.230,201.600 127.000 M127.578 127.900 L 126.200 129.400 127.700 128.022 C 129.096 126.738,129.384 126.400,129.078 126.400 C 129.012 126.400,128.337 127.075,127.578 127.900 M92.989 132.900 L 90.200 135.800 93.100 133.011 C 95.794 130.420,96.183 130.000,95.889 130.000 C 95.828 130.000,94.523 131.305,92.989 132.900 M123.200 132.200 C 122.228 133.190,121.523 134.000,121.633 134.000 C 121.743 134.000,122.628 133.190,123.600 132.200 C 124.572 131.210,125.277 130.400,125.167 130.400 C 125.057 130.400,124.172 131.210,123.200 132.200 M147.583 132.100 C 149.241 133.866,149.600 134.184,149.600 133.883 C 149.600 133.819,148.745 132.964,147.700 131.983 L 145.800 130.200 147.583 132.100 M152.000 132.200 C 151.028 133.190,150.323 134.000,150.433 134.000 C 150.543 134.000,151.428 133.190,152.400 132.200 C 153.372 131.210,154.077 130.400,153.967 130.400 C 153.857 130.400,152.972 131.210,152.000 132.200 M206.400 131.725 C 206.400 131.794,206.985 132.379,207.700 133.025 L 209.000 134.200 207.825 132.900 C 206.730 131.688,206.400 131.416,206.400 131.725 M210.975 132.900 L 209.800 134.200 211.100 133.025 C 211.815 132.379,212.400 131.794,212.400 131.725 C 212.400 131.416,212.070 131.688,210.975 132.900 M244.800 136.975 C 244.800 138.028,244.719 138.076,243.200 137.931 C 241.757 137.794,241.600 137.868,241.600 138.689 C 241.600 139.516,241.786 139.600,243.605 139.600 L 245.609 139.600 245.349 137.900 C 245.036 135.856,244.800 135.459,244.800 136.975 M323.765 153.348 C 323.649 153.649,323.613 154.864,323.684 156.048 L 323.813 158.200 324.007 155.499 C 324.201 152.781,324.152 152.339,323.765 153.348 M308.883 172.300 L 308.966 176.200 309.098 172.486 C 309.191 169.880,309.364 168.854,309.677 169.048 C 309.948 169.215,310.012 169.142,309.838 168.862 C 309.093 167.655,308.806 168.687,308.883 172.300 M302.185 180.436 C 301.093 181.556,299.802 182.629,299.316 182.820 C 298.830 183.011,298.063 183.893,297.611 184.778 L 296.789 186.389 297.595 187.195 C 298.038 187.638,298.618 188.000,298.885 188.000 C 299.152 188.000,300.145 188.761,301.092 189.690 L 302.814 191.380 306.507 187.593 L 310.200 183.806 306.505 187.389 L 302.811 190.973 301.205 189.405 C 299.114 187.363,299.046 186.008,300.976 184.815 C 302.467 183.893,306.400 179.781,306.400 179.144 C 306.400 178.929,306.220 178.864,306.000 179.000 C 305.780 179.136,305.600 179.057,305.600 178.824 C 305.600 177.809,304.018 178.556,302.185 180.436 M331.244 180.900 C 331.341 180.955,332.676 182.170,334.210 183.600 L 337.000 186.200 334.412 183.500 C 332.988 182.015,331.653 180.800,331.445 180.800 C 331.237 180.800,331.146 180.845,331.244 180.900 M351.375 182.100 L 350.200 183.400 351.598 182.200 C 352.367 181.540,353.072 180.955,353.165 180.900 C 353.257 180.845,353.157 180.800,352.942 180.800 C 352.726 180.800,352.021 181.385,351.375 182.100 M368.390 184.700 L 365.400 187.800 368.589 184.800 C 370.342 183.150,371.857 181.755,371.955 181.700 C 372.053 181.645,371.964 181.600,371.757 181.600 C 371.549 181.600,370.034 182.995,368.390 184.700 M381.347 183.301 C 382.256 184.236,383.078 184.953,383.174 184.894 C 383.398 184.754,380.326 181.600,379.966 181.600 C 379.816 181.600,380.438 182.365,381.347 183.301 M326.575 183.700 L 325.400 185.000 326.700 183.825 C 327.415 183.179,328.000 182.594,328.000 182.525 C 328.000 182.216,327.670 182.488,326.575 183.700 M360.292 186.392 C 363.026 189.204,363.669 189.684,364.092 189.230 C 364.505 188.785,364.499 188.740,364.058 188.991 C 363.690 189.200,362.473 188.290,360.258 186.152 L 357.000 183.006 360.292 186.392 M314.600 186.800 C 316.128 188.340,317.469 189.600,317.579 189.600 C 317.689 189.600,316.528 188.340,315.000 186.800 C 313.472 185.260,312.131 184.000,312.021 184.000 C 311.911 184.000,313.072 185.260,314.600 186.800 M323.375 186.100 L 322.200 187.400 323.500 186.225 C 324.215 185.579,324.800 184.994,324.800 184.925 C 324.800 184.616,324.470 184.888,323.375 186.100 M320.175 188.500 L 319.000 189.800 320.300 188.625 C 321.015 187.979,321.600 187.394,321.600 187.325 C 321.600 187.016,321.270 187.288,320.175 188.500 M378.191 213.700 L 375.000 217.000 378.300 213.809 C 381.365 210.846,381.782 210.400,381.491 210.400 C 381.430 210.400,379.945 211.885,378.191 213.700 M146.087 219.191 C 146.490 219.835,146.962 219.965,148.636 219.891 C 150.637 219.802,150.670 219.782,149.885 219.100 C 148.645 218.025,145.408 218.103,146.087 219.191 M252.600 219.200 C 252.464 219.420,251.924 219.600,251.400 219.600 C 250.876 219.600,250.336 219.780,250.200 220.000 C 250.064 220.220,249.254 220.400,248.400 220.400 C 246.572 220.400,246.130 220.872,247.073 221.816 C 248.353 223.096,255.600 221.481,255.600 219.916 C 255.600 219.175,252.999 218.554,252.600 219.200 M176.200 219.885 C 175.760 219.991,175.237 220.232,175.039 220.420 C 174.838 220.611,174.350 220.587,173.939 220.367 C 173.532 220.150,173.200 220.067,173.200 220.184 C 173.200 220.398,175.533 221.500,177.857 222.383 C 180.081 223.229,185.197 222.783,185.198 221.743 C 185.200 220.617,184.522 220.400,180.991 220.400 C 179.372 220.400,177.936 220.220,177.800 220.000 C 177.541 219.580,177.484 219.576,176.200 219.885 M82.736 222.685 C 82.398 223.078,82.016 223.700,81.886 224.066 C 81.757 224.432,81.145 224.974,80.526 225.270 C 79.340 225.836,78.813 227.373,79.551 228.111 C 80.078 228.638,82.673 226.910,83.954 225.177 C 85.448 223.156,84.318 220.845,82.736 222.685 M188.000 230.125 C 188.000 230.194,188.585 230.779,189.300 231.425 L 190.600 232.600 189.425 231.300 C 188.330 230.088,188.000 229.816,188.000 230.125 M91.000 234.800 C 92.306 236.120,93.465 237.200,93.575 237.200 C 93.685 237.200,92.706 236.120,91.400 234.800 C 90.094 233.480,88.935 232.400,88.825 232.400 C 88.715 232.400,89.694 233.480,91.000 234.800 M191.800 234.800 C 192.659 235.680,193.452 236.400,193.562 236.400 C 193.672 236.400,193.059 235.680,192.200 234.800 C 191.341 233.920,190.548 233.200,190.438 233.200 C 190.328 233.200,190.941 233.920,191.800 234.800 M141.381 236.500 L 139.800 238.200 141.500 236.619 C 143.081 235.148,143.384 234.800,143.081 234.800 C 143.016 234.800,142.251 235.565,141.381 236.500 M241.730 236.809 C 240.591 237.904,239.788 238.800,239.945 238.800 C 240.102 238.800,241.117 237.900,242.200 236.800 C 244.744 234.218,244.417 234.224,241.730 236.809 M110.900 241.899 C 114.805 241.965,121.195 241.965,125.100 241.899 C 129.005 241.834,125.810 241.780,118.000 241.780 C 110.190 241.780,106.995 241.834,110.900 241.899 M212.300 241.899 C 216.095 241.965,222.305 241.965,226.100 241.899 C 229.895 241.834,226.790 241.780,219.200 241.780 C 211.610 241.780,208.505 241.834,212.300 241.899 M75.200 244.976 C 75.200 245.513,75.347 246.044,75.528 246.155 C 75.708 246.267,75.777 245.827,75.682 245.179 C 75.472 243.749,75.200 243.635,75.200 244.976 M86.383 273.300 C 87.364 274.345,88.219 275.200,88.283 275.200 C 88.584 275.200,88.266 274.841,86.500 273.183 L 84.600 271.400 86.383 273.300 M32.400 272.925 C 32.400 272.994,32.985 273.579,33.700 274.225 L 35.000 275.400 33.825 274.100 C 32.730 272.888,32.400 272.616,32.400 272.925 M34.800 276.125 C 34.800 276.194,35.385 276.779,36.100 277.425 L 37.400 278.600 36.225 277.300 C 35.130 276.088,34.800 275.816,34.800 276.125 M39.800 282.000 C 41.328 283.540,42.669 284.800,42.779 284.800 C 42.889 284.800,41.728 283.540,40.200 282.000 C 38.672 280.460,37.331 279.200,37.221 279.200 C 37.111 279.200,38.272 280.460,39.800 282.000 M44.286 287.203 C 45.214 288.170,46.035 288.880,46.112 288.780 C 46.188 288.681,45.429 287.890,44.425 287.022 L 42.600 285.444 44.286 287.203 M49.983 292.100 C 50.964 293.145,51.819 294.000,51.883 294.000 C 52.184 294.000,51.866 293.641,50.100 291.983 L 48.200 290.200 49.983 292.100 M52.800 294.125 C 52.800 294.194,53.385 294.779,54.100 295.425 L 55.400 296.600 54.225 295.300 C 53.130 294.088,52.800 293.816,52.800 294.125 M56.000 296.525 C 56.000 296.594,56.585 297.179,57.300 297.825 L 58.600 299.000 57.425 297.700 C 56.330 296.488,56.000 296.216,56.000 296.525 M130.000 298.200 C 130.746 298.970,131.447 299.600,131.557 299.600 C 131.667 299.600,131.146 298.970,130.400 298.200 C 129.654 297.430,128.953 296.800,128.843 296.800 C 128.733 296.800,129.254 297.430,130.000 298.200 M130.175 310.900 L 129.000 312.200 130.300 311.025 C 131.512 309.930,131.784 309.600,131.475 309.600 C 131.406 309.600,130.821 310.185,130.175 310.900 " stroke="none" fill="#04fc14" fill-rule="evenodd"></path><path id="path2" d="M380.003 93.022 C 380.002 93.253,380.630 94.054,381.400 94.800 C 383.217 96.561,383.220 95.989,381.403 94.073 C 380.635 93.263,380.005 92.790,380.003 93.022 M384.080 112.080 C 383.816 112.344,383.629 113.199,383.664 113.980 L 383.728 115.400 383.897 114.002 C 383.989 113.232,384.253 112.377,384.482 112.102 C 385.012 111.462,384.714 111.446,384.080 112.080 M104.900 124.287 C 105.505 124.378,106.495 124.378,107.100 124.287 C 107.705 124.195,107.210 124.120,106.000 124.120 C 104.790 124.120,104.295 124.195,104.900 124.287 M134.500 124.287 C 135.105 124.378,136.095 124.378,136.700 124.287 C 137.305 124.195,136.810 124.120,135.600 124.120 C 134.390 124.120,133.895 124.195,134.500 124.287 M164.100 124.287 C 164.705 124.378,165.695 124.378,166.300 124.287 C 166.905 124.195,166.410 124.120,165.200 124.120 C 163.990 124.120,163.495 124.195,164.100 124.287 M193.091 124.289 C 193.801 124.377,195.061 124.379,195.891 124.292 C 196.721 124.205,196.140 124.133,194.600 124.131 C 193.060 124.129,192.381 124.200,193.091 124.289 M222.691 124.289 C 223.401 124.377,224.661 124.379,225.491 124.292 C 226.321 124.205,225.740 124.133,224.200 124.131 C 222.660 124.129,221.981 124.200,222.691 124.289 M110.400 125.047 C 110.400 125.172,110.760 125.731,111.200 126.291 C 111.640 126.850,112.000 127.184,112.000 127.032 C 112.000 126.880,112.444 127.260,112.987 127.878 C 113.530 128.495,113.980 128.809,113.987 128.576 C 113.994 128.342,113.190 127.402,112.200 126.486 C 111.210 125.569,110.400 124.922,110.400 125.047 M187.200 127.000 C 186.917 127.341,186.776 127.709,186.886 127.819 C 186.996 127.929,187.317 127.741,187.600 127.400 C 187.883 127.059,188.024 126.691,187.914 126.581 C 187.804 126.471,187.483 126.659,187.200 127.000 M230.800 126.702 C 230.800 126.922,231.070 127.326,231.400 127.600 C 231.735 127.878,232.000 127.921,232.000 127.698 C 232.000 127.478,231.730 127.074,231.400 126.800 C 231.065 126.522,230.800 126.479,230.800 126.702 M97.053 129.053 C 96.011 130.065,95.246 130.979,95.352 131.085 C 95.457 131.191,96.384 130.437,97.411 129.411 C 98.437 128.384,99.203 127.469,99.112 127.378 C 99.020 127.287,98.094 128.041,97.053 129.053 M204.467 130.187 C 204.715 130.731,205.064 131.084,205.243 130.974 C 205.422 130.863,205.266 130.419,204.895 129.986 C 204.011 128.953,203.923 128.994,204.467 130.187 M176.435 131.900 C 176.678 132.285,177.354 132.943,177.938 133.363 C 178.780 133.968,178.714 133.823,177.622 132.663 C 176.105 131.054,175.762 130.833,176.435 131.900 M238.638 134.900 C 239.549 135.976,240.076 136.386,240.559 136.394 C 240.757 136.397,240.354 135.860,239.663 135.200 C 238.191 133.793,237.539 133.602,238.638 134.900 M89.800 135.600 L 88.600 135.905 89.676 135.953 C 90.268 135.979,90.864 135.820,91.000 135.600 C 91.136 135.380,91.192 135.221,91.124 135.247 C 91.056 135.273,90.460 135.432,89.800 135.600 M85.300 136.676 C 85.685 136.776,86.315 136.776,86.700 136.676 C 87.085 136.575,86.770 136.493,86.000 136.493 C 85.230 136.493,84.915 136.575,85.300 136.676 M241.327 139.000 C 241.460 140.318,246.020 140.436,245.954 139.120 C 245.919 138.442,245.859 138.384,245.724 138.900 C 245.582 139.445,245.113 139.600,243.600 139.600 C 242.096 139.600,241.612 139.442,241.452 138.900 C 241.292 138.355,241.264 138.377,241.327 139.000 M343.849 141.415 C 343.712 141.773,343.626 142.906,343.659 143.933 C 343.716 145.760,343.723 145.749,343.990 143.400 C 344.280 140.837,344.248 140.377,343.849 141.415 M342.924 149.400 C 342.926 150.720,343.001 151.212,343.090 150.493 C 343.179 149.774,343.177 148.694,343.086 148.093 C 342.995 147.492,342.922 148.080,342.924 149.400 M44.575 155.652 C 43.595 156.695,43.548 156.827,44.291 156.443 C 44.781 156.189,45.372 155.626,45.605 155.191 C 46.197 154.085,45.936 154.202,44.575 155.652 M41.660 157.880 C 41.143 158.415,40.797 158.930,40.892 159.025 C 40.986 159.119,41.485 158.748,42.000 158.200 C 42.515 157.652,42.861 157.137,42.768 157.055 C 42.676 156.974,42.177 157.345,41.660 157.880 M38.806 160.594 C 38.063 161.361,37.548 162.081,37.661 162.194 C 37.858 162.391,39.492 160.745,40.140 159.698 C 40.671 158.837,40.205 159.151,38.806 160.594 M301.432 180.400 C 299.976 181.720,298.611 182.800,298.400 182.800 C 298.007 182.800,296.400 185.657,296.400 186.355 C 296.400 186.849,297.540 188.000,298.029 188.000 C 298.233 188.000,298.038 187.638,297.595 187.195 L 296.789 186.389 297.611 184.778 C 298.063 183.893,298.830 183.012,299.316 182.821 C 299.802 182.630,301.010 181.630,302.000 180.599 C 302.990 179.567,304.160 178.572,304.600 178.387 C 305.224 178.125,305.255 178.045,304.740 178.025 C 304.378 178.011,302.889 179.080,301.432 180.400 M313.200 185.800 C 313.946 186.570,314.647 187.200,314.757 187.200 C 314.867 187.200,314.346 186.570,313.600 185.800 C 312.854 185.030,312.153 184.400,312.043 184.400 C 311.933 184.400,312.454 185.030,313.200 185.800 M345.144 187.133 C 344.434 187.768,344.123 188.265,344.438 188.264 C 344.747 188.262,345.419 187.752,345.930 187.130 C 347.122 185.682,346.767 185.684,345.144 187.133 M300.400 189.600 C 301.263 190.480,302.102 191.200,302.265 191.200 C 302.429 191.200,301.859 190.480,301.000 189.600 C 300.141 188.720,299.301 188.000,299.135 188.000 C 298.968 188.000,299.537 188.720,300.400 189.600 M19.301 199.400 C 19.305 200.280,19.387 200.593,19.483 200.095 C 19.579 199.598,19.575 198.878,19.475 198.495 C 19.375 198.113,19.296 198.520,19.301 199.400 M383.849 201.815 C 383.712 202.173,383.621 202.946,383.646 203.533 C 383.680 204.332,383.770 204.198,384.004 203.000 C 384.335 201.300,384.262 200.740,383.849 201.815 M18.470 203.620 C 18.431 204.621,18.176 205.701,17.903 206.020 C 17.615 206.356,17.710 206.330,18.129 205.960 C 18.676 205.475,18.814 204.892,18.696 203.560 L 18.540 201.800 18.470 203.620 M145.436 218.341 C 145.320 218.529,145.484 219.024,145.800 219.441 C 146.116 219.858,146.380 220.011,146.387 219.780 C 146.394 219.549,146.184 219.144,145.920 218.880 C 145.169 218.129,148.809 218.264,150.011 219.032 L 151.000 219.664 150.056 218.832 C 149.086 217.978,145.872 217.636,145.436 218.341 M252.200 218.800 C 252.064 219.020,251.524 219.200,251.000 219.200 C 250.476 219.200,249.936 219.380,249.800 219.600 C 249.664 219.820,248.978 220.003,248.276 220.006 C 246.513 220.015,245.631 220.594,246.332 221.283 C 246.762 221.706,246.834 221.691,246.729 221.200 C 246.634 220.760,247.027 220.566,248.200 220.473 C 249.080 220.404,249.971 220.179,250.180 219.973 C 250.389 219.768,250.963 219.600,251.456 219.600 C 251.949 219.600,252.473 219.405,252.620 219.168 C 252.770 218.925,253.351 218.842,253.944 218.980 C 254.735 219.163,254.850 219.123,254.400 218.818 C 253.629 218.296,252.517 218.287,252.200 218.800 M176.200 219.486 C 175.760 219.592,175.232 219.837,175.027 220.032 C 174.822 220.227,175.265 220.211,176.011 219.997 C 176.899 219.742,177.504 219.744,177.764 220.004 C 177.982 220.222,179.551 220.400,181.251 220.400 C 183.528 220.400,184.508 220.566,184.971 221.029 C 185.317 221.374,185.600 221.475,185.600 221.252 C 185.600 220.501,184.614 220.201,181.400 219.973 C 179.640 219.848,177.930 219.644,177.600 219.520 C 177.270 219.396,176.640 219.381,176.200 219.486 M82.323 222.300 C 81.992 222.685,81.616 223.300,81.486 223.666 C 81.357 224.032,80.748 224.573,80.132 224.868 C 78.965 225.428,77.984 228.400,78.967 228.400 C 79.209 228.400,79.406 227.820,79.404 227.111 C 79.401 226.092,79.635 225.708,80.522 225.278 C 81.139 224.979,81.803 224.318,81.997 223.808 C 82.191 223.298,82.761 222.593,83.264 222.240 C 83.920 221.781,84.001 221.600,83.551 221.600 C 83.206 221.600,82.653 221.915,82.323 222.300 M18.446 237.276 C 18.421 238.528,18.535 239.636,18.700 239.738 C 18.865 239.840,18.946 239.086,18.880 238.062 C 18.693 235.141,18.497 234.786,18.446 237.276 M75.765 237.748 C 75.649 238.049,75.613 239.264,75.684 240.448 L 75.813 242.600 76.007 239.899 C 76.201 237.181,76.152 236.739,75.765 237.748 M138.077 238.426 C 137.509 239.335,137.812 239.445,138.632 238.626 C 138.948 238.310,139.061 237.961,138.883 237.851 C 138.705 237.742,138.343 238.000,138.077 238.426 M238.344 239.187 C 237.825 239.619,237.543 239.979,237.717 239.987 C 237.891 239.994,238.420 239.640,238.892 239.200 C 239.999 238.169,239.579 238.158,238.344 239.187 M19.293 241.600 C 19.293 242.370,19.375 242.685,19.476 242.300 C 19.576 241.915,19.576 241.285,19.476 240.900 C 19.375 240.515,19.293 240.830,19.293 241.600 M75.731 250.200 C 75.733 251.740,75.805 252.321,75.892 251.491 C 75.979 250.661,75.977 249.401,75.889 248.691 C 75.800 247.981,75.729 248.660,75.731 250.200 M76.406 255.033 C 76.409 255.455,76.595 256.070,76.818 256.400 C 77.115 256.838,77.152 256.676,76.956 255.800 C 76.627 254.329,76.398 254.010,76.406 255.033 M26.822 262.000 C 26.828 262.715,28.367 266.004,28.386 265.344 C 28.394 265.093,28.044 264.103,27.609 263.144 C 27.174 262.185,26.820 261.670,26.822 262.000 M132.790 304.481 C 132.684 305.516,132.745 306.215,132.926 306.034 C 133.107 305.853,133.193 305.007,133.119 304.153 L 132.983 302.600 132.790 304.481 M108.319 315.898 C 110.144 315.972,113.024 315.972,114.719 315.897 C 116.414 315.822,114.920 315.761,111.400 315.762 C 107.880 315.762,106.494 315.824,108.319 315.898 " stroke="none" fill="#2cfc50" fill-rule="evenodd"></path><path id="path3" d="M380.003 93.022 C 380.002 93.253,380.630 94.054,381.400 94.800 C 383.217 96.561,383.220 95.989,381.403 94.073 C 380.635 93.263,380.005 92.790,380.003 93.022 M384.080 112.080 C 383.816 112.344,383.629 113.199,383.664 113.980 L 383.728 115.400 383.897 114.002 C 383.989 113.232,384.253 112.377,384.482 112.102 C 385.012 111.462,384.714 111.446,384.080 112.080 M104.900 124.287 C 105.505 124.378,106.495 124.378,107.100 124.287 C 107.705 124.195,107.210 124.120,106.000 124.120 C 104.790 124.120,104.295 124.195,104.900 124.287 M134.500 124.287 C 135.105 124.378,136.095 124.378,136.700 124.287 C 137.305 124.195,136.810 124.120,135.600 124.120 C 134.390 124.120,133.895 124.195,134.500 124.287 M164.100 124.287 C 164.705 124.378,165.695 124.378,166.300 124.287 C 166.905 124.195,166.410 124.120,165.200 124.120 C 163.990 124.120,163.495 124.195,164.100 124.287 M193.091 124.289 C 193.801 124.377,195.061 124.379,195.891 124.292 C 196.721 124.205,196.140 124.133,194.600 124.131 C 193.060 124.129,192.381 124.200,193.091 124.289 M222.691 124.289 C 223.401 124.377,224.661 124.379,225.491 124.292 C 226.321 124.205,225.740 124.133,224.200 124.131 C 222.660 124.129,221.981 124.200,222.691 124.289 M110.400 125.047 C 110.400 125.172,110.760 125.731,111.200 126.291 C 111.640 126.850,112.000 127.184,112.000 127.032 C 112.000 126.880,112.444 127.260,112.987 127.878 C 113.530 128.495,113.980 128.809,113.987 128.576 C 113.994 128.342,113.190 127.402,112.200 126.486 C 111.210 125.569,110.400 124.922,110.400 125.047 M187.200 127.000 C 186.917 127.341,186.776 127.709,186.886 127.819 C 186.996 127.929,187.317 127.741,187.600 127.400 C 187.883 127.059,188.024 126.691,187.914 126.581 C 187.804 126.471,187.483 126.659,187.200 127.000 M230.800 126.702 C 230.800 126.922,231.070 127.326,231.400 127.600 C 231.735 127.878,232.000 127.921,232.000 127.698 C 232.000 127.478,231.730 127.074,231.400 126.800 C 231.065 126.522,230.800 126.479,230.800 126.702 M97.053 129.053 C 96.011 130.065,95.246 130.979,95.352 131.085 C 95.457 131.191,96.384 130.437,97.411 129.411 C 98.437 128.384,99.203 127.469,99.112 127.378 C 99.020 127.287,98.094 128.041,97.053 129.053 M204.467 130.187 C 204.715 130.731,205.064 131.084,205.243 130.974 C 205.422 130.863,205.266 130.419,204.895 129.986 C 204.011 128.953,203.923 128.994,204.467 130.187 M176.435 131.900 C 176.678 132.285,177.354 132.943,177.938 133.363 C 178.780 133.968,178.714 133.823,177.622 132.663 C 176.105 131.054,175.762 130.833,176.435 131.900 M238.638 134.900 C 239.549 135.976,240.076 136.386,240.559 136.394 C 240.757 136.397,240.354 135.860,239.663 135.200 C 238.191 133.793,237.539 133.602,238.638 134.900 M89.800 135.600 L 88.600 135.905 89.676 135.953 C 90.268 135.979,90.864 135.820,91.000 135.600 C 91.136 135.380,91.192 135.221,91.124 135.247 C 91.056 135.273,90.460 135.432,89.800 135.600 M85.300 136.676 C 85.685 136.776,86.315 136.776,86.700 136.676 C 87.085 136.575,86.770 136.493,86.000 136.493 C 85.230 136.493,84.915 136.575,85.300 136.676 M241.327 139.000 C 241.460 140.318,246.020 140.436,245.954 139.120 C 245.919 138.442,245.859 138.384,245.724 138.900 C 245.582 139.445,245.113 139.600,243.600 139.600 C 242.096 139.600,241.612 139.442,241.452 138.900 C 241.292 138.355,241.264 138.377,241.327 139.000 M343.849 141.415 C 343.712 141.773,343.626 142.906,343.659 143.933 C 343.716 145.760,343.723 145.749,343.990 143.400 C 344.280 140.837,344.248 140.377,343.849 141.415 M342.924 149.400 C 342.926 150.720,343.001 151.212,343.090 150.493 C 343.179 149.774,343.177 148.694,343.086 148.093 C 342.995 147.492,342.922 148.080,342.924 149.400 M44.575 155.652 C 43.595 156.695,43.548 156.827,44.291 156.443 C 44.781 156.189,45.372 155.626,45.605 155.191 C 46.197 154.085,45.936 154.202,44.575 155.652 M41.660 157.880 C 41.143 158.415,40.797 158.930,40.892 159.025 C 40.986 159.119,41.485 158.748,42.000 158.200 C 42.515 157.652,42.861 157.137,42.768 157.055 C 42.676 156.974,42.177 157.345,41.660 157.880 M38.806 160.594 C 38.063 161.361,37.548 162.081,37.661 162.194 C 37.858 162.391,39.492 160.745,40.140 159.698 C 40.671 158.837,40.205 159.151,38.806 160.594 M301.432 180.400 C 299.976 181.720,298.611 182.800,298.400 182.800 C 298.007 182.800,296.400 185.657,296.400 186.355 C 296.400 186.849,297.540 188.000,298.029 188.000 C 298.233 188.000,298.038 187.638,297.595 187.195 L 296.789 186.389 297.611 184.778 C 298.063 183.893,298.830 183.012,299.316 182.821 C 299.802 182.630,301.010 181.630,302.000 180.599 C 302.990 179.567,304.160 178.572,304.600 178.387 C 305.224 178.125,305.255 178.045,304.740 178.025 C 304.378 178.011,302.889 179.080,301.432 180.400 M313.200 185.800 C 313.946 186.570,314.647 187.200,314.757 187.200 C 314.867 187.200,314.346 186.570,313.600 185.800 C 312.854 185.030,312.153 184.400,312.043 184.400 C 311.933 184.400,312.454 185.030,313.200 185.800 M345.144 187.133 C 344.434 187.768,344.123 188.265,344.438 188.264 C 344.747 188.262,345.419 187.752,345.930 187.130 C 347.122 185.682,346.767 185.684,345.144 187.133 M300.400 189.600 C 301.263 190.480,302.102 191.200,302.265 191.200 C 302.429 191.200,301.859 190.480,301.000 189.600 C 300.141 188.720,299.301 188.000,299.135 188.000 C 298.968 188.000,299.537 188.720,300.400 189.600 M19.301 199.400 C 19.305 200.280,19.387 200.593,19.483 200.095 C 19.579 199.598,19.575 198.878,19.475 198.495 C 19.375 198.113,19.296 198.520,19.301 199.400 M383.849 201.815 C 383.712 202.173,383.621 202.946,383.646 203.533 C 383.680 204.332,383.770 204.198,384.004 203.000 C 384.335 201.300,384.262 200.740,383.849 201.815 M18.470 203.620 C 18.431 204.621,18.176 205.701,17.903 206.020 C 17.615 206.356,17.710 206.330,18.129 205.960 C 18.676 205.475,18.814 204.892,18.696 203.560 L 18.540 201.800 18.470 203.620 M145.436 218.341 C 145.320 218.529,145.484 219.024,145.800 219.441 C 146.116 219.858,146.380 220.011,146.387 219.780 C 146.394 219.549,146.184 219.144,145.920 218.880 C 145.169 218.129,148.809 218.264,150.011 219.032 L 151.000 219.664 150.056 218.832 C 149.086 217.978,145.872 217.636,145.436 218.341 M252.200 218.800 C 252.064 219.020,251.524 219.200,251.000 219.200 C 250.476 219.200,249.936 219.380,249.800 219.600 C 249.664 219.820,248.978 220.003,248.276 220.006 C 246.513 220.015,245.631 220.594,246.332 221.283 C 246.762 221.706,246.834 221.691,246.729 221.200 C 246.634 220.760,247.027 220.566,248.200 220.473 C 249.080 220.404,249.971 220.179,250.180 219.973 C 250.389 219.768,250.963 219.600,251.456 219.600 C 251.949 219.600,252.473 219.405,252.620 219.168 C 252.770 218.925,253.351 218.842,253.944 218.980 C 254.735 219.163,254.850 219.123,254.400 218.818 C 253.629 218.296,252.517 218.287,252.200 218.800 M176.200 219.486 C 175.760 219.592,175.232 219.837,175.027 220.032 C 174.822 220.227,175.265 220.211,176.011 219.997 C 176.899 219.742,177.504 219.744,177.764 220.004 C 177.982 220.222,179.551 220.400,181.251 220.400 C 183.528 220.400,184.508 220.566,184.971 221.029 C 185.317 221.374,185.600 221.475,185.600 221.252 C 185.600 220.501,184.614 220.201,181.400 219.973 C 179.640 219.848,177.930 219.644,177.600 219.520 C 177.270 219.396,176.640 219.381,176.200 219.486 M82.323 222.300 C 81.992 222.685,81.616 223.300,81.486 223.666 C 81.357 224.032,80.748 224.573,80.132 224.868 C 78.965 225.428,77.984 228.400,78.967 228.400 C 79.209 228.400,79.406 227.820,79.404 227.111 C 79.401 226.092,79.635 225.708,80.522 225.278 C 81.139 224.979,81.803 224.318,81.997 223.808 C 82.191 223.298,82.761 222.593,83.264 222.240 C 83.920 221.781,84.001 221.600,83.551 221.600 C 83.206 221.600,82.653 221.915,82.323 222.300 M18.446 237.276 C 18.421 238.528,18.535 239.636,18.700 239.738 C 18.865 239.840,18.946 239.086,18.880 238.062 C 18.693 235.141,18.497 234.786,18.446 237.276 M75.765 237.748 C 75.649 238.049,75.613 239.264,75.684 240.448 L 75.813 242.600 76.007 239.899 C 76.201 237.181,76.152 236.739,75.765 237.748 M138.077 238.426 C 137.509 239.335,137.812 239.445,138.632 238.626 C 138.948 238.310,139.061 237.961,138.883 237.851 C 138.705 237.742,138.343 238.000,138.077 238.426 M238.344 239.187 C 237.825 239.619,237.543 239.979,237.717 239.987 C 237.891 239.994,238.420 239.640,238.892 239.200 C 239.999 238.169,239.579 238.158,238.344 239.187 M19.293 241.600 C 19.293 242.370,19.375 242.685,19.476 242.300 C 19.576 241.915,19.576 241.285,19.476 240.900 C 19.375 240.515,19.293 240.830,19.293 241.600 M75.731 250.200 C 75.733 251.740,75.805 252.321,75.892 251.491 C 75.979 250.661,75.977 249.401,75.889 248.691 C 75.800 247.981,75.729 248.660,75.731 250.200 M76.406 255.033 C 76.409 255.455,76.595 256.070,76.818 256.400 C 77.115 256.838,77.152 256.676,76.956 255.800 C 76.627 254.329,76.398 254.010,76.406 255.033 M26.822 262.000 C 26.828 262.715,28.367 266.004,28.386 265.344 C 28.394 265.093,28.044 264.103,27.609 263.144 C 27.174 262.185,26.820 261.670,26.822 262.000 M132.790 304.481 C 132.684 305.516,132.745 306.215,132.926 306.034 C 133.107 305.853,133.193 305.007,133.119 304.153 L 132.983 302.600 132.790 304.481 M108.319 315.898 C 110.144 315.972,113.024 315.972,114.719 315.897 C 116.414 315.822,114.920 315.761,111.400 315.762 C 107.880 315.762,106.494 315.824,108.319 315.898 " stroke="none" fill="#2cfc50" fill-rule="evenodd"></path><path id="path4" d="M380.003 93.022 C 380.002 93.253,380.630 94.054,381.400 94.800 C 383.217 96.561,383.220 95.989,381.403 94.073 C 380.635 93.263,380.005 92.790,380.003 93.022 M384.080 112.080 C 383.816 112.344,383.629 113.199,383.664 113.980 L 383.728 115.400 383.897 114.002 C 383.989 113.232,384.253 112.377,384.482 112.102 C 385.012 111.462,384.714 111.446,384.080 112.080 M104.900 124.287 C 105.505 124.378,106.495 124.378,107.100 124.287 C 107.705 124.195,107.210 124.120,106.000 124.120 C 104.790 124.120,104.295 124.195,104.900 124.287 M134.500 124.287 C 135.105 124.378,136.095 124.378,136.700 124.287 C 137.305 124.195,136.810 124.120,135.600 124.120 C 134.390 124.120,133.895 124.195,134.500 124.287 M164.100 124.287 C 164.705 124.378,165.695 124.378,166.300 124.287 C 166.905 124.195,166.410 124.120,165.200 124.120 C 163.990 124.120,163.495 124.195,164.100 124.287 M193.091 124.289 C 193.801 124.377,195.061 124.379,195.891 124.292 C 196.721 124.205,196.140 124.133,194.600 124.131 C 193.060 124.129,192.381 124.200,193.091 124.289 M222.691 124.289 C 223.401 124.377,224.661 124.379,225.491 124.292 C 226.321 124.205,225.740 124.133,224.200 124.131 C 222.660 124.129,221.981 124.200,222.691 124.289 M110.400 125.047 C 110.400 125.172,110.760 125.731,111.200 126.291 C 111.640 126.850,112.000 127.184,112.000 127.032 C 112.000 126.880,112.444 127.260,112.987 127.878 C 113.530 128.495,113.980 128.809,113.987 128.576 C 113.994 128.342,113.190 127.402,112.200 126.486 C 111.210 125.569,110.400 124.922,110.400 125.047 M187.200 127.000 C 186.917 127.341,186.776 127.709,186.886 127.819 C 186.996 127.929,187.317 127.741,187.600 127.400 C 187.883 127.059,188.024 126.691,187.914 126.581 C 187.804 126.471,187.483 126.659,187.200 127.000 M230.800 126.702 C 230.800 126.922,231.070 127.326,231.400 127.600 C 231.735 127.878,232.000 127.921,232.000 127.698 C 232.000 127.478,231.730 127.074,231.400 126.800 C 231.065 126.522,230.800 126.479,230.800 126.702 M97.053 129.053 C 96.011 130.065,95.246 130.979,95.352 131.085 C 95.457 131.191,96.384 130.437,97.411 129.411 C 98.437 128.384,99.203 127.469,99.112 127.378 C 99.020 127.287,98.094 128.041,97.053 129.053 M204.467 130.187 C 204.715 130.731,205.064 131.084,205.243 130.974 C 205.422 130.863,205.266 130.419,204.895 129.986 C 204.011 128.953,203.923 128.994,204.467 130.187 M176.435 131.900 C 176.678 132.285,177.354 132.943,177.938 133.363 C 178.780 133.968,178.714 133.823,177.622 132.663 C 176.105 131.054,175.762 130.833,176.435 131.900 M238.638 134.900 C 239.549 135.976,240.076 136.386,240.559 136.394 C 240.757 136.397,240.354 135.860,239.663 135.200 C 238.191 133.793,237.539 133.602,238.638 134.900 M89.800 135.600 L 88.600 135.905 89.676 135.953 C 90.268 135.979,90.864 135.820,91.000 135.600 C 91.136 135.380,91.192 135.221,91.124 135.247 C 91.056 135.273,90.460 135.432,89.800 135.600 M85.300 136.676 C 85.685 136.776,86.315 136.776,86.700 136.676 C 87.085 136.575,86.770 136.493,86.000 136.493 C 85.230 136.493,84.915 136.575,85.300 136.676 M241.327 139.000 C 241.460 140.318,246.020 140.436,245.954 139.120 C 245.919 138.442,245.859 138.384,245.724 138.900 C 245.582 139.445,245.113 139.600,243.600 139.600 C 242.096 139.600,241.612 139.442,241.452 138.900 C 241.292 138.355,241.264 138.377,241.327 139.000 M343.849 141.415 C 343.712 141.773,343.626 142.906,343.659 143.933 C 343.716 145.760,343.723 145.749,343.990 143.400 C 344.280 140.837,344.248 140.377,343.849 141.415 M342.924 149.400 C 342.926 150.720,343.001 151.212,343.090 150.493 C 343.179 149.774,343.177 148.694,343.086 148.093 C 342.995 147.492,342.922 148.080,342.924 149.400 M44.575 155.652 C 43.595 156.695,43.548 156.827,44.291 156.443 C 44.781 156.189,45.372 155.626,45.605 155.191 C 46.197 154.085,45.936 154.202,44.575 155.652 M41.660 157.880 C 41.143 158.415,40.797 158.930,40.892 159.025 C 40.986 159.119,41.485 158.748,42.000 158.200 C 42.515 157.652,42.861 157.137,42.768 157.055 C 42.676 156.974,42.177 157.345,41.660 157.880 M38.806 160.594 C 38.063 161.361,37.548 162.081,37.661 162.194 C 37.858 162.391,39.492 160.745,40.140 159.698 C 40.671 158.837,40.205 159.151,38.806 160.594 M301.432 180.400 C 299.976 181.720,298.611 182.800,298.400 182.800 C 298.007 182.800,296.400 185.657,296.400 186.355 C 296.400 186.849,297.540 188.000,298.029 188.000 C 298.233 188.000,298.038 187.638,297.595 187.195 L 296.789 186.389 297.611 184.778 C 298.063 183.893,298.830 183.012,299.316 182.821 C 299.802 182.630,301.010 181.630,302.000 180.599 C 302.990 179.567,304.160 178.572,304.600 178.387 C 305.224 178.125,305.255 178.045,304.740 178.025 C 304.378 178.011,302.889 179.080,301.432 180.400 M313.200 185.800 C 313.946 186.570,314.647 187.200,314.757 187.200 C 314.867 187.200,314.346 186.570,313.600 185.800 C 312.854 185.030,312.153 184.400,312.043 184.400 C 311.933 184.400,312.454 185.030,313.200 185.800 M345.144 187.133 C 344.434 187.768,344.123 188.265,344.438 188.264 C 344.747 188.262,345.419 187.752,345.930 187.130 C 347.122 185.682,346.767 185.684,345.144 187.133 M300.400 189.600 C 301.263 190.480,302.102 191.200,302.265 191.200 C 302.429 191.200,301.859 190.480,301.000 189.600 C 300.141 188.720,299.301 188.000,299.135 188.000 C 298.968 188.000,299.537 188.720,300.400 189.600 M19.301 199.400 C 19.305 200.280,19.387 200.593,19.483 200.095 C 19.579 199.598,19.575 198.878,19.475 198.495 C 19.375 198.113,19.296 198.520,19.301 199.400 M383.849 201.815 C 383.712 202.173,383.621 202.946,383.646 203.533 C 383.680 204.332,383.770 204.198,384.004 203.000 C 384.335 201.300,384.262 200.740,383.849 201.815 M18.470 203.620 C 18.431 204.621,18.176 205.701,17.903 206.020 C 17.615 206.356,17.710 206.330,18.129 205.960 C 18.676 205.475,18.814 204.892,18.696 203.560 L 18.540 201.800 18.470 203.620 M145.436 218.341 C 145.320 218.529,145.484 219.024,145.800 219.441 C 146.116 219.858,146.380 220.011,146.387 219.780 C 146.394 219.549,146.184 219.144,145.920 218.880 C 145.169 218.129,148.809 218.264,150.011 219.032 L 151.000 219.664 150.056 218.832 C 149.086 217.978,145.872 217.636,145.436 218.341 M252.200 218.800 C 252.064 219.020,251.524 219.200,251.000 219.200 C 250.476 219.200,249.936 219.380,249.800 219.600 C 249.664 219.820,248.978 220.003,248.276 220.006 C 246.513 220.015,245.631 220.594,246.332 221.283 C 246.762 221.706,246.834 221.691,246.729 221.200 C 246.634 220.760,247.027 220.566,248.200 220.473 C 249.080 220.404,249.971 220.179,250.180 219.973 C 250.389 219.768,250.963 219.600,251.456 219.600 C 251.949 219.600,252.473 219.405,252.620 219.168 C 252.770 218.925,253.351 218.842,253.944 218.980 C 254.735 219.163,254.850 219.123,254.400 218.818 C 253.629 218.296,252.517 218.287,252.200 218.800 M176.200 219.486 C 175.760 219.592,175.232 219.837,175.027 220.032 C 174.822 220.227,175.265 220.211,176.011 219.997 C 176.899 219.742,177.504 219.744,177.764 220.004 C 177.982 220.222,179.551 220.400,181.251 220.400 C 183.528 220.400,184.508 220.566,184.971 221.029 C 185.317 221.374,185.600 221.475,185.600 221.252 C 185.600 220.501,184.614 220.201,181.400 219.973 C 179.640 219.848,177.930 219.644,177.600 219.520 C 177.270 219.396,176.640 219.381,176.200 219.486 M82.323 222.300 C 81.992 222.685,81.616 223.300,81.486 223.666 C 81.357 224.032,80.748 224.573,80.132 224.868 C 78.965 225.428,77.984 228.400,78.967 228.400 C 79.209 228.400,79.406 227.820,79.404 227.111 C 79.401 226.092,79.635 225.708,80.522 225.278 C 81.139 224.979,81.803 224.318,81.997 223.808 C 82.191 223.298,82.761 222.593,83.264 222.240 C 83.920 221.781,84.001 221.600,83.551 221.600 C 83.206 221.600,82.653 221.915,82.323 222.300 M18.446 237.276 C 18.421 238.528,18.535 239.636,18.700 239.738 C 18.865 239.840,18.946 239.086,18.880 238.062 C 18.693 235.141,18.497 234.786,18.446 237.276 M75.765 237.748 C 75.649 238.049,75.613 239.264,75.684 240.448 L 75.813 242.600 76.007 239.899 C 76.201 237.181,76.152 236.739,75.765 237.748 M138.077 238.426 C 137.509 239.335,137.812 239.445,138.632 238.626 C 138.948 238.310,139.061 237.961,138.883 237.851 C 138.705 237.742,138.343 238.000,138.077 238.426 M238.344 239.187 C 237.825 239.619,237.543 239.979,237.717 239.987 C 237.891 239.994,238.420 239.640,238.892 239.200 C 239.999 238.169,239.579 238.158,238.344 239.187 M19.293 241.600 C 19.293 242.370,19.375 242.685,19.476 242.300 C 19.576 241.915,19.576 241.285,19.476 240.900 C 19.375 240.515,19.293 240.830,19.293 241.600 M75.731 250.200 C 75.733 251.740,75.805 252.321,75.892 251.491 C 75.979 250.661,75.977 249.401,75.889 248.691 C 75.800 247.981,75.729 248.660,75.731 250.200 M76.406 255.033 C 76.409 255.455,76.595 256.070,76.818 256.400 C 77.115 256.838,77.152 256.676,76.956 255.800 C 76.627 254.329,76.398 254.010,76.406 255.033 M26.822 262.000 C 26.828 262.715,28.367 266.004,28.386 265.344 C 28.394 265.093,28.044 264.103,27.609 263.144 C 27.174 262.185,26.820 261.670,26.822 262.000 M132.790 304.481 C 132.684 305.516,132.745 306.215,132.926 306.034 C 133.107 305.853,133.193 305.007,133.119 304.153 L 132.983 302.600 132.790 304.481 M108.319 315.898 C 110.144 315.972,113.024 315.972,114.719 315.897 C 116.414 315.822,114.920 315.761,111.400 315.762 C 107.880 315.762,106.494 315.824,108.319 315.898 " stroke="none" fill="#2cfc50" fill-rule="evenodd"></path></g></svg>