<svg id="svg" version="1.1" xmlns="http://www.w3.org/2000/svg" xmlns:xlink="http://www.w3.org/1999/xlink" width="400" height="400" viewBox="0, 0, 400,400"><g id="svgg"><path id="path0" d="M196.127 38.175 C 187.309 40.186,182.268 45.766,180.566 55.400 C 180.096 58.063,180.001 68.722,180.001 118.890 L 180.000 179.181 118.100 179.304 C 49.690 179.440,54.216 179.266,48.880 181.960 C 34.908 189.013,34.935 211.394,48.923 218.170 C 54.260 220.755,49.465 220.578,117.900 220.705 L 180.000 220.819 180.005 281.910 C 180.011 350.794,179.858 347.168,183.018 353.181 C 190.203 366.855,212.265 366.520,218.950 352.634 C 221.694 346.934,221.589 349.756,221.595 281.910 L 221.600 220.819 284.100 220.697 C 353.441 220.561,348.113 220.770,353.651 217.974 C 367.307 211.081,367.191 188.694,353.464 182.016 C 347.715 179.219,352.977 179.425,283.900 179.295 L 221.600 179.178 221.600 118.624 C 221.600 53.720,221.647 55.331,219.608 49.903 C 216.326 41.168,205.879 35.950,196.127 38.175 M204.903 38.987 C 212.350 40.565,217.511 45.550,219.896 53.468 C 220.551 55.645,220.602 59.979,220.656 118.800 C 220.687 153.450,220.630 181.485,220.527 181.100 C 220.425 180.715,220.040 180.379,219.671 180.354 C 219.075 180.312,219.078 180.287,219.700 180.124 C 220.363 179.951,220.397 176.745,220.340 119.271 C 220.307 85.902,220.205 59.095,220.113 59.700 C 219.887 61.196,219.334 61.087,219.095 59.500 C 218.966 58.646,219.088 58.090,219.449 57.880 C 219.752 57.704,219.997 57.074,219.994 56.480 C 219.990 55.715,219.887 55.560,219.641 55.947 C 219.361 56.389,219.131 56.331,218.447 55.647 C 217.981 55.181,217.769 54.800,217.976 54.800 C 218.183 54.800,218.466 54.983,218.604 55.207 C 218.990 55.831,219.601 55.257,219.594 54.276 C 219.590 53.770,219.464 53.585,219.294 53.839 C 218.966 54.329,217.525 54.446,217.826 53.958 C 217.931 53.788,217.698 53.464,217.308 53.237 C 216.801 52.941,216.761 52.821,217.170 52.812 C 217.580 52.803,217.496 52.541,216.870 51.874 C 215.793 50.729,215.772 50.150,216.785 49.608 C 217.259 49.354,217.477 48.946,217.336 48.577 C 217.207 48.241,217.010 48.057,216.898 48.169 C 216.786 48.280,216.358 48.192,215.947 47.972 C 215.410 47.684,215.200 47.707,215.200 48.053 C 215.200 48.317,215.084 48.418,214.943 48.276 C 214.802 48.135,214.888 47.776,215.135 47.479 C 215.484 47.058,215.322 46.745,214.408 46.069 C 213.107 45.107,212.603 44.958,213.038 45.662 C 213.216 45.950,213.148 46.015,212.855 45.834 C 212.598 45.675,212.488 45.381,212.612 45.181 C 212.736 44.980,212.645 44.457,212.409 44.017 C 212.060 43.364,212.092 43.260,212.588 43.451 C 212.922 43.579,213.104 43.833,212.991 44.014 C 212.879 44.196,212.957 44.450,213.166 44.579 C 213.374 44.708,213.648 44.646,213.774 44.442 C 214.087 43.936,210.752 41.533,210.089 41.787 C 209.765 41.912,209.668 41.813,209.841 41.534 C 210.015 41.252,209.946 41.186,209.662 41.362 C 209.408 41.519,209.200 41.922,209.200 42.257 C 209.200 42.592,208.975 42.789,208.700 42.694 C 208.425 42.599,208.207 42.045,208.216 41.461 C 208.226 40.786,207.973 40.318,207.519 40.174 C 206.583 39.877,205.889 40.333,206.168 41.061 C 206.293 41.385,206.216 41.534,205.995 41.397 C 205.778 41.263,205.586 41.388,205.568 41.676 C 205.544 42.082,205.491 42.087,205.334 41.698 C 205.223 41.421,204.939 41.314,204.704 41.459 C 204.432 41.628,204.395 41.531,204.604 41.194 C 204.834 40.821,204.754 40.732,204.332 40.894 C 203.680 41.144,203.454 39.975,204.076 39.567 C 204.272 39.438,202.797 39.333,200.800 39.333 C 198.803 39.333,197.328 39.438,197.524 39.567 C 198.088 39.937,197.929 41.148,197.346 40.924 C 197.060 40.814,196.865 40.527,196.913 40.286 C 196.961 40.045,196.684 39.779,196.299 39.694 C 195.691 39.561,195.652 39.685,196.010 40.626 C 196.237 41.223,196.327 41.806,196.211 41.922 C 196.095 42.038,196.000 41.913,196.000 41.643 C 196.000 41.373,195.822 41.263,195.605 41.397 C 195.378 41.537,195.311 41.377,195.446 41.024 C 195.781 40.152,194.660 39.835,193.485 40.470 C 192.723 40.882,192.576 41.179,192.824 41.800 C 193.120 42.541,193.146 42.531,193.172 41.651 C 193.197 40.811,193.278 40.765,193.875 41.251 C 194.466 41.732,194.517 41.713,194.287 41.100 C 194.143 40.713,194.212 40.400,194.442 40.400 C 194.671 40.400,194.798 40.715,194.724 41.100 C 194.650 41.485,194.412 41.768,194.195 41.728 C 193.978 41.689,193.656 41.914,193.480 42.228 C 193.015 43.059,192.400 42.929,192.400 42.000 C 192.400 41.560,192.209 41.200,191.976 41.200 C 191.743 41.200,191.663 41.378,191.797 41.595 C 191.933 41.815,191.787 41.893,191.471 41.772 C 191.157 41.651,190.382 42.028,189.750 42.609 C 189.117 43.189,188.870 43.531,189.200 43.368 C 189.547 43.197,189.662 43.223,189.472 43.431 C 189.291 43.628,188.931 43.792,188.672 43.795 C 188.412 43.798,188.200 43.980,188.200 44.200 C 188.200 44.420,188.380 44.544,188.600 44.475 C 188.820 44.407,188.534 44.823,187.965 45.401 C 187.396 45.979,186.676 46.490,186.365 46.537 C 185.494 46.669,184.799 47.197,184.806 47.724 C 184.810 48.023,184.921 48.051,185.106 47.800 C 185.731 46.950,186.802 47.134,186.754 48.082 C 186.719 48.758,186.659 48.816,186.525 48.301 C 186.384 47.766,186.174 47.693,185.624 47.987 C 185.228 48.199,184.792 48.258,184.653 48.119 C 184.514 47.980,184.400 48.064,184.400 48.306 C 184.400 48.547,184.715 48.822,185.100 48.917 C 185.485 49.012,185.395 49.050,184.900 49.000 C 184.405 48.951,184.000 48.961,184.000 49.023 C 184.000 49.084,183.900 49.396,183.777 49.715 C 183.638 50.077,183.863 50.376,184.377 50.510 C 184.830 50.628,185.200 50.575,185.200 50.392 C 185.200 50.209,184.885 49.976,184.500 49.876 C 183.844 49.704,183.845 49.690,184.513 49.646 C 185.385 49.590,185.874 50.686,185.253 51.307 C 184.940 51.620,184.800 51.626,184.800 51.327 C 184.800 51.088,184.440 50.799,184.000 50.684 C 183.086 50.445,182.974 50.787,183.700 51.601 C 184.125 52.078,184.096 52.082,183.500 51.632 C 183.054 51.294,182.800 51.260,182.800 51.537 C 182.800 51.776,183.172 52.171,183.626 52.414 C 184.236 52.740,184.341 52.989,184.029 53.365 C 183.797 53.645,183.695 53.962,183.803 54.070 C 183.912 54.178,183.685 54.269,183.300 54.273 C 182.915 54.276,182.468 54.081,182.306 53.839 C 182.134 53.582,182.010 53.745,182.006 54.233 C 181.998 55.373,182.409 55.690,183.127 55.097 C 183.658 54.658,183.663 54.706,183.168 55.500 C 182.536 56.516,182.160 56.631,181.865 55.900 C 181.754 55.625,181.649 55.901,181.632 56.513 C 181.613 57.165,181.853 57.722,182.212 57.860 C 182.548 57.989,182.745 58.388,182.649 58.747 C 182.553 59.106,182.336 59.940,182.167 60.600 L 181.859 61.800 181.582 60.400 C 181.430 59.630,181.282 86.225,181.253 119.500 C 181.203 176.856,181.236 180.002,181.900 180.046 C 182.535 180.089,182.538 180.109,181.925 180.271 C 181.553 180.369,181.168 180.753,181.068 181.125 C 180.968 181.496,180.913 153.450,180.944 118.800 C 180.998 59.979,181.049 55.645,181.704 53.468 C 184.960 42.657,194.403 36.762,204.903 38.987 M204.628 39.955 C 204.507 40.150,204.655 40.514,204.956 40.763 C 205.383 41.118,205.548 41.040,205.714 40.408 C 205.927 39.591,205.073 39.234,204.628 39.955 M191.438 42.462 C 191.605 42.731,191.549 42.816,191.304 42.664 C 191.073 42.521,190.785 42.662,190.664 42.976 C 190.544 43.291,190.660 43.636,190.922 43.743 C 191.197 43.854,191.121 43.950,190.743 43.968 C 189.809 44.013,189.501 42.898,190.317 42.423 C 191.177 41.921,191.102 41.918,191.438 42.462 M211.742 43.406 C 211.617 43.733,211.129 43.979,210.657 43.954 C 210.015 43.919,209.970 43.862,210.478 43.729 C 210.878 43.623,211.064 43.310,210.931 42.965 C 210.747 42.484,210.590 42.470,210.053 42.890 C 209.473 43.343,209.461 43.323,209.942 42.708 C 210.603 41.865,212.110 42.449,211.742 43.406 M186.589 45.212 C 185.623 46.280,186.058 46.605,187.208 45.674 C 187.751 45.234,187.961 44.823,187.718 44.673 C 187.492 44.533,186.984 44.776,186.589 45.212 M213.862 44.700 C 213.712 44.942,214.132 45.524,214.800 46.000 C 215.465 46.474,215.889 47.055,215.743 47.292 C 215.592 47.536,215.662 47.609,215.904 47.459 C 216.139 47.314,216.423 47.421,216.534 47.698 C 216.646 47.974,216.748 48.020,216.762 47.800 C 216.809 47.078,214.149 44.236,213.862 44.700 M217.100 49.910 C 216.168 50.108,216.214 50.908,217.209 51.809 C 217.783 52.327,218.143 52.417,218.445 52.115 C 219.073 51.487,217.995 49.721,217.100 49.910 M182.400 52.814 C 182.400 53.387,183.247 53.713,183.661 53.299 C 183.917 53.043,183.766 52.832,183.226 52.691 C 182.772 52.572,182.400 52.627,182.400 52.814 M218.227 52.781 C 217.655 52.989,217.586 53.144,217.961 53.376 C 218.241 53.549,218.667 53.493,218.908 53.252 C 219.498 52.662,219.174 52.437,218.227 52.781 M120.200 180.400 L 59.800 180.604 120.000 180.796 L 180.200 180.989 120.333 181.194 C 87.407 181.307,60.332 181.535,60.167 181.700 C 60.002 181.865,60.197 182.000,60.600 182.000 C 61.003 182.000,61.235 182.099,61.114 182.219 C 60.782 182.551,58.776 181.962,59.000 181.599 C 59.246 181.202,58.207 180.790,57.067 180.832 C 56.590 180.849,56.425 180.954,56.700 181.065 C 57.403 181.349,57.323 181.731,56.444 182.280 C 55.787 182.690,55.714 182.650,55.890 181.976 C 56.049 181.368,55.888 181.201,55.147 181.206 C 54.626 181.209,54.389 181.344,54.619 181.506 C 54.850 181.668,55.056 182.250,55.078 182.800 C 55.100 183.350,55.031 183.574,54.925 183.298 C 54.819 183.021,54.587 182.884,54.411 182.993 C 54.235 183.102,54.115 182.898,54.145 182.539 C 54.175 182.180,53.975 181.807,53.700 181.710 C 53.379 181.597,53.287 181.763,53.444 182.172 C 53.919 183.407,52.751 184.196,51.973 183.165 L 51.297 182.267 49.448 183.351 C 48.432 183.946,47.600 184.516,47.600 184.617 C 47.600 184.935,48.587 184.618,48.882 184.205 C 49.038 183.988,49.134 184.213,49.097 184.705 C 49.035 185.532,48.400 186.032,48.400 185.255 C 48.400 185.065,48.038 184.930,47.595 184.955 C 47.152 184.980,46.792 185.135,46.795 185.300 C 46.798 185.465,46.915 185.585,47.055 185.566 C 47.591 185.494,47.943 186.588,47.479 186.883 C 46.696 187.381,46.409 187.244,46.677 186.500 C 46.867 185.970,46.670 186.035,45.864 186.770 C 45.279 187.303,44.800 187.596,44.800 187.421 C 44.800 187.245,44.530 187.326,44.200 187.600 C 42.572 188.951,43.861 187.039,45.682 185.402 C 48.854 182.551,52.026 181.149,57.000 180.401 C 58.100 180.235,86.360 180.121,119.800 180.148 L 180.600 180.196 120.200 180.400 M348.400 180.935 C 368.962 187.768,367.647 215.385,346.569 219.418 C 343.978 219.914,334.487 219.986,282.265 219.902 L 221.000 219.804 282.200 219.600 C 315.860 219.488,342.680 219.341,341.800 219.273 C 340.543 219.176,340.372 219.082,341.000 218.834 C 342.536 218.229,344.070 217.963,343.836 218.342 C 343.560 218.789,344.525 219.211,345.733 219.172 C 346.510 219.147,346.523 219.114,345.861 218.853 C 345.218 218.600,345.199 218.499,345.715 218.071 C 346.191 217.676,346.352 217.699,346.541 218.190 C 346.670 218.525,347.096 218.797,347.487 218.794 C 347.906 218.790,348.027 218.666,347.781 218.494 C 347.550 218.332,347.344 217.750,347.322 217.200 C 347.300 216.650,347.369 216.426,347.475 216.702 C 347.581 216.979,347.813 217.116,347.989 217.007 C 348.165 216.898,348.285 217.102,348.255 217.461 C 348.225 217.820,348.411 218.189,348.669 218.280 C 348.956 218.382,349.062 218.160,348.944 217.707 C 348.835 217.292,349.075 216.675,349.491 216.298 C 350.189 215.667,350.235 215.676,350.294 216.459 C 350.329 216.916,350.464 217.397,350.594 217.528 C 350.863 217.796,353.580 216.427,353.535 216.047 C 353.387 214.816,353.679 213.856,353.974 214.600 C 354.166 215.084,354.115 215.530,353.845 215.730 C 353.556 215.945,353.610 216.004,354.000 215.897 C 354.330 215.807,354.604 215.478,354.609 215.167 C 354.614 214.829,354.929 214.655,355.387 214.736 C 355.966 214.837,356.062 214.738,355.772 214.336 C 355.426 213.854,355.395 213.551,355.554 212.211 C 355.579 211.997,355.886 212.231,356.236 212.730 C 356.940 213.735,357.673 213.436,358.444 211.833 C 358.819 211.051,358.808 211.045,358.258 211.727 C 357.936 212.126,357.521 212.459,357.336 212.467 C 357.151 212.474,357.049 212.655,357.110 212.870 C 357.170 213.084,357.043 213.150,356.827 213.017 C 356.223 212.644,356.734 211.759,357.845 211.252 C 358.395 211.002,358.734 210.617,358.599 210.398 C 358.378 210.040,358.904 209.827,359.700 209.953 C 360.334 210.053,359.964 209.247,359.300 209.083 C 358.908 208.986,358.987 208.948,359.480 208.996 C 360.493 209.094,361.076 208.043,360.314 207.494 C 359.940 207.226,359.985 207.184,360.476 207.341 C 360.976 207.500,361.270 207.199,361.605 206.186 C 362.083 204.737,361.835 203.824,361.045 204.127 C 360.785 204.227,360.571 204.000,360.571 203.621 C 360.571 202.857,361.635 202.674,362.094 203.361 C 362.264 203.615,362.390 203.433,362.394 202.929 C 362.397 202.449,362.130 201.787,361.800 201.457 C 361.470 201.127,361.200 200.506,361.200 200.078 C 361.200 199.649,361.470 199.074,361.800 198.800 C 362.130 198.526,362.397 197.829,362.394 197.251 C 362.390 196.670,362.256 196.396,362.094 196.639 C 361.638 197.321,360.436 197.172,360.706 196.468 C 360.868 196.046,360.779 195.966,360.406 196.196 C 360.054 196.414,359.972 196.369,360.162 196.062 C 360.320 195.805,360.214 195.586,359.924 195.568 C 359.518 195.544,359.513 195.491,359.902 195.334 C 360.179 195.223,360.327 195.006,360.232 194.852 C 360.137 194.697,360.406 194.571,360.829 194.571 C 361.253 194.571,361.600 194.713,361.600 194.886 C 361.600 195.059,361.308 195.200,360.951 195.200 C 360.400 195.200,360.383 195.297,360.836 195.843 C 361.705 196.890,362.200 195.284,361.521 193.620 C 361.014 192.377,360.947 192.342,360.391 193.024 C 359.859 193.678,359.869 193.724,360.500 193.487 C 360.885 193.343,361.200 193.399,361.200 193.613 C 361.200 194.053,360.270 194.137,359.866 193.732 C 359.719 193.585,359.873 193.161,360.209 192.790 C 360.825 192.109,360.618 190.618,359.963 191.023 C 359.768 191.143,359.709 190.980,359.832 190.661 C 359.954 190.342,359.834 189.945,359.565 189.779 C 359.272 189.597,359.179 189.643,359.334 189.893 C 359.475 190.122,359.278 190.555,358.896 190.855 C 358.266 191.348,358.252 191.333,358.749 190.700 C 359.291 190.008,359.026 189.775,357.900 189.953 C 357.735 189.979,357.600 189.812,357.600 189.582 C 357.600 189.353,357.858 189.218,358.174 189.282 C 358.489 189.347,358.804 189.237,358.874 189.038 C 358.943 188.839,358.640 188.626,358.200 188.564 C 357.760 188.503,356.725 187.698,355.900 186.775 C 355.075 185.852,354.400 185.300,354.400 185.549 C 354.400 185.797,353.995 185.987,353.500 185.972 C 352.768 185.949,352.728 185.893,353.285 185.672 C 353.740 185.492,353.858 185.217,353.635 184.857 C 353.402 184.479,353.217 184.449,353.026 184.757 C 352.876 185.001,352.543 185.200,352.287 185.200 C 352.031 185.200,352.240 184.907,352.752 184.549 C 353.480 184.039,353.564 183.824,353.141 183.556 C 352.790 183.335,352.407 183.458,352.050 183.907 C 351.545 184.543,351.517 184.527,351.708 183.717 C 351.883 182.974,351.644 182.730,350.189 182.174 C 348.437 181.506,347.369 181.667,347.852 182.528 C 348.017 182.821,347.907 182.804,347.562 182.483 C 347.089 182.043,347.095 181.911,347.603 181.589 C 348.089 181.283,348.045 181.211,347.367 181.206 C 346.307 181.198,345.901 181.599,346.381 182.177 C 346.635 182.484,346.527 182.629,346.045 182.629 C 345.262 182.629,345.064 181.572,345.761 181.106 C 346.301 180.745,344.320 180.702,343.399 181.056 C 342.861 181.262,342.836 181.384,343.266 181.690 C 343.618 181.940,343.459 181.960,342.800 181.747 C 342.250 181.569,314.710 181.326,281.600 181.206 L 221.400 180.989 282.000 180.796 L 342.600 180.604 282.000 180.395 L 221.400 180.187 283.800 180.195 C 343.156 180.204,346.307 180.240,348.400 180.935 M52.291 182.826 C 52.432 183.366,52.643 183.517,52.899 183.261 C 53.313 182.847,52.987 182.000,52.414 182.000 C 52.227 182.000,52.172 182.372,52.291 182.826 M351.108 183.800 C 351.010 184.988,351.040 184.975,350.349 184.123 C 349.976 183.663,349.960 183.543,350.300 183.747 C 350.615 183.936,350.800 183.816,350.800 183.424 C 350.800 183.081,350.888 182.800,350.996 182.800 C 351.103 182.800,351.154 183.250,351.108 183.800 M50.638 183.662 C 50.815 183.948,50.748 184.015,50.462 183.838 C 50.178 183.663,49.998 183.832,49.994 184.276 C 49.989 184.879,49.925 184.901,49.615 184.411 C 49.369 184.022,49.405 183.717,49.721 183.517 C 50.336 183.126,50.304 183.121,50.638 183.662 M353.850 184.587 C 353.974 184.910,354.202 185.135,354.355 185.087 C 354.509 185.039,355.393 185.795,356.318 186.766 C 357.244 187.737,358.136 188.393,358.301 188.223 C 358.465 188.054,357.621 187.034,356.424 185.957 C 354.190 183.948,353.455 183.557,353.850 184.587 M46.000 187.853 C 46.000 188.671,45.418 189.131,44.800 188.800 C 44.270 188.516,44.019 188.572,43.851 189.011 C 43.725 189.339,43.415 189.561,43.161 189.504 C 42.908 189.447,42.625 189.601,42.534 189.848 C 42.429 190.133,42.737 190.225,43.384 190.101 C 43.943 189.994,44.400 190.091,44.400 190.316 C 44.400 190.541,44.012 190.624,43.537 190.500 C 42.871 190.325,42.752 190.402,43.014 190.837 C 43.282 191.280,43.194 191.273,42.602 190.800 C 41.918 190.254,41.874 190.265,42.121 190.921 C 42.283 191.354,42.233 191.544,41.995 191.397 C 41.434 191.050,41.505 191.733,42.100 192.401 C 42.522 192.874,42.496 192.883,41.934 192.460 C 41.078 191.815,40.466 193.316,41.216 194.219 C 41.514 194.578,41.539 194.800,41.282 194.800 C 41.054 194.800,40.765 194.575,40.640 194.300 C 40.516 194.025,40.463 194.160,40.522 194.600 C 40.582 195.040,40.909 195.380,41.249 195.356 C 41.589 195.331,41.867 195.526,41.867 195.789 C 41.867 196.390,40.700 196.428,40.306 195.839 C 40.122 195.565,40.010 195.650,40.006 196.067 C 39.997 197.096,40.445 198.020,40.836 197.778 C 41.030 197.658,41.079 198.103,40.947 198.766 C 40.622 200.388,41.111 202.902,41.682 202.549 C 41.967 202.373,42.009 202.462,41.801 202.799 C 41.545 203.212,41.375 203.180,40.986 202.649 C 40.539 202.037,40.472 202.034,40.247 202.621 C 39.896 203.536,39.941 204.707,40.306 204.161 C 40.700 203.572,41.867 203.610,41.867 204.211 C 41.867 204.474,41.589 204.669,41.249 204.644 C 40.909 204.620,40.582 204.960,40.522 205.400 C 40.463 205.840,40.516 205.975,40.640 205.700 C 40.765 205.425,41.054 205.200,41.282 205.200 C 41.539 205.200,41.514 205.422,41.216 205.781 C 40.685 206.420,41.037 208.148,41.624 207.785 C 41.826 207.660,41.873 207.867,41.727 208.245 C 41.535 208.747,41.606 208.844,41.994 208.604 C 42.343 208.388,42.428 208.431,42.243 208.730 C 41.929 209.239,42.685 210.909,43.120 210.667 C 43.274 210.581,43.917 210.729,44.550 210.996 C 45.621 211.447,45.641 211.496,44.849 211.703 C 44.307 211.845,44.094 211.771,44.261 211.501 C 44.408 211.263,44.335 211.193,44.096 211.341 C 43.861 211.486,43.577 211.379,43.466 211.102 C 43.340 210.789,43.251 210.770,43.232 211.051 C 43.214 211.299,43.470 211.726,43.800 212.000 C 44.130 212.274,44.400 212.352,44.400 212.174 C 44.400 211.996,44.934 212.362,45.586 212.986 C 46.238 213.611,46.682 214.268,46.572 214.446 C 45.998 215.373,49.587 216.934,50.506 216.157 L 51.400 215.400 50.638 216.300 C 50.219 216.795,50.062 217.200,50.289 217.200 C 50.516 217.200,50.924 216.932,51.196 216.604 C 51.468 216.277,51.850 216.107,52.045 216.228 C 52.524 216.524,52.498 217.600,52.013 217.600 C 51.799 217.600,51.743 217.285,51.887 216.900 C 52.124 216.269,52.078 216.259,51.424 216.791 C 50.388 217.635,52.930 218.761,54.150 217.999 C 54.797 217.595,54.878 217.620,54.671 218.160 C 54.523 218.545,54.633 218.800,54.946 218.800 C 55.794 218.800,56.028 218.316,55.497 217.660 C 55.092 217.161,55.101 217.107,55.545 217.374 C 55.879 217.576,56.220 217.492,56.427 217.156 C 56.661 216.778,56.745 216.915,56.701 217.605 C 56.667 218.152,56.450 218.732,56.219 218.894 C 55.713 219.249,57.273 219.300,58.165 218.958 C 58.512 218.825,58.691 218.548,58.564 218.342 C 58.330 217.963,59.864 218.229,61.400 218.834 C 62.028 219.082,61.857 219.176,60.600 219.273 C 59.720 219.341,86.270 219.490,119.600 219.604 L 180.200 219.812 118.000 219.805 C 49.091 219.797,54.741 220.003,49.433 217.315 C 41.689 213.393,37.491 203.372,39.966 194.717 C 40.890 191.488,42.810 187.922,43.487 188.180 C 43.755 188.282,44.057 188.231,44.158 188.068 C 44.314 187.815,46.000 187.618,46.000 187.853 M359.895 191.877 C 359.507 191.978,359.310 192.255,359.457 192.492 C 359.615 192.749,359.536 192.808,359.262 192.638 C 358.493 192.163,358.743 191.597,359.700 191.646 C 360.385 191.682,360.432 191.737,359.895 191.877 M39.728 200.000 C 39.728 201.430,39.801 202.015,39.889 201.300 C 39.978 200.585,39.978 199.415,39.889 198.700 C 39.801 197.985,39.728 198.570,39.728 200.000 M43.149 209.069 C 42.656 209.670,42.703 209.713,43.600 209.489 C 44.551 209.252,44.562 209.268,43.824 209.820 C 43.227 210.265,42.977 210.287,42.746 209.913 C 42.474 209.473,43.007 208.400,43.498 208.400 C 43.608 208.400,43.451 208.701,43.149 209.069 M47.963 214.500 C 48.371 215.484,48.545 215.630,48.680 215.100 C 48.778 214.715,49.009 214.400,49.192 214.400 C 49.375 214.400,49.424 214.788,49.300 215.263 C 49.132 215.905,49.208 216.042,49.599 215.801 C 49.953 215.582,50.027 215.632,49.827 215.956 C 49.392 216.660,47.073 215.086,46.995 214.034 C 46.905 212.805,47.350 213.019,47.963 214.500 M352.800 215.810 C 352.800 216.119,352.452 216.558,352.026 216.786 C 350.969 217.352,350.799 217.312,350.806 216.500 C 350.811 215.902,350.869 215.887,351.200 216.400 C 351.522 216.898,351.590 216.864,351.600 216.200 C 351.610 215.524,351.679 215.493,352.041 216.000 C 352.385 216.482,352.431 216.423,352.272 215.699 C 352.163 215.204,352.238 214.900,352.437 215.023 C 352.637 215.146,352.800 215.500,352.800 215.810 M349.424 216.761 C 349.251 217.041,349.307 217.467,349.548 217.708 C 350.138 218.298,350.363 217.974,350.019 217.027 C 349.811 216.455,349.656 216.386,349.424 216.761 M181.925 219.729 C 182.403 219.855,182.338 219.921,181.700 219.954 C 181.007 219.989,180.811 219.793,180.846 219.100 C 180.879 218.462,180.945 218.397,181.071 218.875 C 181.169 219.247,181.553 219.631,181.925 219.729 M220.800 219.200 C 220.800 219.777,220.549 219.987,219.900 219.954 C 219.223 219.919,219.173 219.862,219.700 219.724 C 220.085 219.624,220.400 219.285,220.400 218.971 C 220.400 218.657,220.490 218.400,220.600 218.400 C 220.710 218.400,220.800 218.760,220.800 219.200 M181.502 340.433 C 181.622 338.757,182.007 339.050,182.382 341.103 C 182.578 342.172,182.502 342.789,182.132 343.135 C 181.839 343.408,181.613 344.119,181.628 344.716 C 181.651 345.590,181.713 345.657,181.947 345.061 C 182.213 344.385,182.283 344.377,182.776 344.971 C 183.072 345.328,183.198 345.735,183.057 345.876 C 182.916 346.018,182.797 345.878,182.794 345.567 C 182.789 345.100,182.719 345.106,182.400 345.600 C 181.745 346.613,181.941 347.137,182.900 346.935 C 183.693 346.768,183.717 346.798,183.100 347.192 C 182.715 347.438,182.414 347.946,182.432 348.320 C 182.451 348.737,182.541 348.806,182.665 348.500 C 182.776 348.225,183.068 348.000,183.313 348.000 C 183.624 348.000,183.614 348.146,183.280 348.480 C 182.597 349.163,182.686 349.542,183.500 349.420 C 183.885 349.362,183.975 349.392,183.700 349.487 C 183.142 349.679,183.083 350.029,183.447 350.977 C 183.648 351.501,183.814 351.530,184.347 351.130 C 184.896 350.717,184.921 350.728,184.500 351.199 C 183.793 351.992,183.877 352.600,184.610 351.992 C 184.945 351.714,185.335 351.602,185.476 351.743 C 185.618 351.884,185.478 352.018,185.167 352.040 C 184.855 352.062,185.050 352.238,185.600 352.432 C 186.588 352.781,186.586 352.783,185.484 352.645 C 184.789 352.558,184.424 352.673,184.517 352.952 C 184.600 353.199,184.922 353.400,185.233 353.401 C 185.545 353.402,185.802 353.710,185.805 354.086 C 185.807 354.462,186.032 354.992,186.305 355.265 C 186.577 355.537,186.800 355.600,186.800 355.405 C 186.800 355.210,187.368 355.579,188.062 356.225 C 188.896 357.002,189.239 357.163,189.074 356.700 C 188.937 356.315,188.999 356.000,189.213 356.000 C 189.726 356.000,189.711 357.084,189.193 357.404 C 188.727 357.692,189.050 358.400,189.647 358.400 C 189.867 358.400,189.919 358.192,189.762 357.938 C 189.584 357.650,189.652 357.585,189.945 357.766 C 190.202 357.925,190.315 358.214,190.195 358.408 C 189.897 358.890,191.507 359.705,192.070 359.357 C 192.369 359.172,192.412 359.257,192.196 359.606 C 191.956 359.994,192.053 360.065,192.555 359.873 C 192.933 359.728,193.141 359.773,193.017 359.972 C 192.438 360.909,195.698 361.331,196.393 360.409 C 196.996 359.610,197.067 359.594,197.073 360.258 C 197.076 360.666,196.881 361.132,196.639 361.294 C 196.382 361.466,196.545 361.590,197.033 361.594 C 198.118 361.602,198.496 361.198,197.982 360.579 C 197.677 360.211,197.988 360.227,199.186 360.640 C 200.564 361.115,201.036 361.115,202.414 360.640 C 203.612 360.227,203.923 360.211,203.618 360.579 C 203.104 361.198,203.482 361.602,204.567 361.594 C 205.055 361.590,205.218 361.466,204.961 361.294 C 204.719 361.132,204.524 360.666,204.527 360.258 C 204.533 359.594,204.604 359.610,205.207 360.409 C 205.902 361.331,209.162 360.909,208.583 359.972 C 208.459 359.773,208.667 359.728,209.045 359.873 C 209.547 360.065,209.644 359.994,209.404 359.606 C 209.188 359.257,209.231 359.172,209.530 359.357 C 210.020 359.660,211.631 358.960,211.530 358.488 C 211.406 357.908,212.097 356.000,212.431 356.000 C 212.620 356.000,212.663 356.315,212.526 356.700 C 212.361 357.163,212.704 357.002,213.538 356.225 C 214.232 355.579,214.800 355.196,214.800 355.374 C 214.800 355.552,215.068 355.476,215.396 355.204 C 215.723 354.932,215.883 354.534,215.750 354.320 C 215.598 354.074,215.350 354.090,215.075 354.365 C 214.548 354.892,214.000 354.932,214.000 354.443 C 214.000 354.130,215.538 353.524,216.567 353.433 C 216.768 353.415,217.000 353.199,217.083 352.952 C 217.177 352.670,216.858 352.576,216.216 352.699 C 215.415 352.852,215.207 352.735,215.232 352.147 C 215.249 351.725,215.351 351.618,215.465 351.900 C 215.576 352.175,215.967 352.397,216.333 352.394 C 216.910 352.389,216.919 352.335,216.400 352.000 C 216.070 351.787,215.989 351.609,216.220 351.606 C 216.451 351.603,216.856 351.816,217.120 352.080 C 217.759 352.719,217.741 351.918,217.100 351.199 C 216.675 350.722,216.704 350.718,217.300 351.168 C 218.104 351.777,218.245 351.235,217.500 350.399 C 217.075 349.922,217.104 349.918,217.700 350.368 C 218.293 350.817,218.400 350.804,218.400 350.278 C 218.400 349.938,218.175 349.581,217.900 349.487 C 217.625 349.392,217.715 349.362,218.100 349.420 C 218.914 349.542,219.003 349.163,218.320 348.480 C 217.986 348.146,217.976 348.000,218.287 348.000 C 218.532 348.000,218.824 348.225,218.935 348.500 C 219.059 348.806,219.149 348.737,219.168 348.320 C 219.186 347.946,218.885 347.438,218.500 347.192 C 217.888 346.801,217.916 346.770,218.723 346.941 C 219.432 347.092,219.612 346.982,219.500 346.469 C 219.419 346.101,219.155 345.839,218.914 345.887 C 218.673 345.935,218.386 345.740,218.276 345.454 C 218.032 344.819,219.277 344.737,219.694 345.361 C 219.856 345.602,219.991 345.299,219.994 344.687 C 219.997 344.076,219.738 343.474,219.417 343.351 C 219.001 343.192,218.902 342.765,219.070 341.864 C 219.404 340.071,219.980 339.599,220.098 341.020 C 220.152 341.669,220.288 314.750,220.400 281.200 L 220.604 220.200 220.688 281.800 C 220.775 345.805,220.804 344.440,219.231 349.643 C 213.948 367.104,188.133 366.309,182.057 348.498 L 181.000 345.400 180.994 283.000 L 180.989 220.600 181.196 281.200 C 181.310 314.530,181.448 341.185,181.502 340.433 M187.168 354.820 C 186.535 355.211,185.890 354.902,186.221 354.366 C 186.350 354.157,186.623 354.091,186.828 354.217 C 187.032 354.344,187.214 354.212,187.232 353.924 C 187.256 353.515,187.311 353.520,187.480 353.946 C 187.600 354.247,187.459 354.640,187.168 354.820 M213.612 356.588 C 213.101 357.131,212.549 357.492,212.384 357.390 C 212.219 357.288,211.981 357.474,211.854 357.802 C 211.473 358.798,212.167 358.478,213.600 357.000 C 214.346 356.230,214.863 355.600,214.748 355.600 C 214.633 355.600,214.122 356.044,213.612 356.588 M191.931 358.323 C 192.525 357.858,192.541 357.875,192.071 358.476 C 191.345 359.404,190.421 358.987,190.736 357.874 L 190.984 357.000 191.123 357.923 C 191.243 358.724,191.351 358.777,191.931 358.323 M210.932 358.167 C 211.256 359.011,210.140 359.257,209.529 358.476 C 209.054 357.869,209.071 357.856,209.700 358.349 C 210.305 358.823,210.400 358.810,210.400 358.249 C 210.400 357.449,210.642 357.412,210.932 358.167 M199.500 361.889 C 200.215 361.978,201.385 361.978,202.100 361.889 C 202.815 361.801,202.230 361.728,200.800 361.728 C 199.370 361.728,198.785 361.801,199.500 361.889 " stroke="none" fill="#3cfc4c" fill-rule="evenodd"></path><path id="path1" d="M196.564 38.994 C 189.320 40.570,184.039 45.714,181.704 53.468 C 181.049 55.645,180.998 59.979,180.944 118.800 C 180.913 153.450,180.968 181.496,181.068 181.125 C 181.168 180.753,181.553 180.369,181.925 180.271 C 182.538 180.109,182.535 180.089,181.900 180.046 C 181.236 180.002,181.203 176.856,181.253 119.500 C 181.282 86.225,181.430 59.630,181.582 60.400 L 181.859 61.800 182.167 60.600 C 182.336 59.940,182.553 59.106,182.649 58.747 C 182.745 58.388,182.548 57.989,182.212 57.860 C 181.853 57.722,181.613 57.165,181.632 56.513 C 181.649 55.901,181.754 55.625,181.865 55.900 C 182.160 56.631,182.536 56.516,183.168 55.500 C 183.663 54.706,183.658 54.658,183.127 55.097 C 182.409 55.690,181.998 55.373,182.006 54.233 C 182.010 53.745,182.134 53.582,182.306 53.839 C 182.468 54.081,182.915 54.276,183.300 54.273 C 183.685 54.269,183.912 54.178,183.803 54.070 C 183.695 53.962,183.797 53.645,184.029 53.365 C 184.341 52.989,184.236 52.740,183.626 52.414 C 183.172 52.171,182.800 51.776,182.800 51.537 C 182.800 51.260,183.054 51.294,183.500 51.632 C 184.096 52.082,184.125 52.078,183.700 51.601 C 182.974 50.787,183.086 50.445,184.000 50.684 C 184.440 50.799,184.800 51.088,184.800 51.327 C 184.800 51.626,184.940 51.620,185.253 51.307 C 185.874 50.686,185.385 49.590,184.513 49.646 C 183.845 49.690,183.844 49.704,184.500 49.876 C 184.885 49.976,185.200 50.209,185.200 50.392 C 185.200 50.575,184.830 50.628,184.377 50.510 C 183.863 50.376,183.638 50.077,183.777 49.715 C 183.900 49.396,184.000 49.084,184.000 49.023 C 184.000 48.961,184.405 48.951,184.900 49.000 C 185.395 49.050,185.485 49.012,185.100 48.917 C 184.715 48.822,184.400 48.547,184.400 48.306 C 184.400 48.064,184.514 47.980,184.653 48.119 C 184.792 48.258,185.228 48.199,185.624 47.987 C 186.174 47.693,186.384 47.766,186.525 48.301 C 186.659 48.816,186.719 48.758,186.754 48.082 C 186.802 47.134,185.731 46.950,185.106 47.800 C 184.921 48.051,184.810 48.023,184.806 47.724 C 184.799 47.197,185.494 46.669,186.365 46.537 C 186.676 46.490,187.396 45.979,187.965 45.401 C 188.534 44.823,188.820 44.407,188.600 44.475 C 188.380 44.544,188.200 44.420,188.200 44.200 C 188.200 43.980,188.412 43.798,188.672 43.795 C 188.931 43.792,189.291 43.628,189.472 43.431 C 189.662 43.223,189.547 43.197,189.200 43.368 C 188.870 43.531,189.117 43.189,189.750 42.609 C 190.382 42.028,191.157 41.651,191.471 41.772 C 191.787 41.893,191.933 41.815,191.797 41.595 C 191.663 41.378,191.743 41.200,191.976 41.200 C 192.209 41.200,192.400 41.560,192.400 42.000 C 192.400 42.929,193.015 43.059,193.480 42.228 C 193.656 41.914,193.978 41.689,194.195 41.728 C 194.412 41.768,194.650 41.485,194.724 41.100 C 194.798 40.715,194.671 40.400,194.442 40.400 C 194.212 40.400,194.143 40.713,194.287 41.100 C 194.517 41.713,194.466 41.732,193.875 41.251 C 193.278 40.765,193.197 40.811,193.172 41.651 C 193.146 42.531,193.120 42.541,192.824 41.800 C 192.576 41.179,192.723 40.882,193.485 40.470 C 194.660 39.835,195.781 40.152,195.446 41.024 C 195.311 41.377,195.378 41.537,195.605 41.397 C 195.822 41.263,196.000 41.373,196.000 41.643 C 196.000 41.913,196.095 42.038,196.211 41.922 C 196.327 41.806,196.237 41.223,196.010 40.626 C 195.652 39.685,195.691 39.561,196.299 39.694 C 196.684 39.779,196.961 40.045,196.913 40.286 C 196.865 40.527,197.060 40.814,197.346 40.924 C 197.929 41.148,198.088 39.937,197.524 39.567 C 197.328 39.438,198.803 39.333,200.800 39.333 C 202.797 39.333,204.272 39.438,204.076 39.567 C 203.454 39.975,203.680 41.144,204.332 40.894 C 204.754 40.732,204.834 40.821,204.604 41.194 C 204.395 41.531,204.432 41.628,204.704 41.459 C 204.939 41.314,205.223 41.421,205.334 41.698 C 205.491 42.087,205.544 42.082,205.568 41.676 C 205.586 41.388,205.778 41.263,205.995 41.397 C 206.216 41.534,206.293 41.385,206.168 41.061 C 205.889 40.333,206.583 39.877,207.519 40.174 C 207.973 40.318,208.226 40.786,208.216 41.461 C 208.207 42.045,208.425 42.599,208.700 42.694 C 208.975 42.789,209.200 42.592,209.200 42.257 C 209.200 41.922,209.408 41.519,209.662 41.362 C 209.946 41.186,210.015 41.252,209.841 41.534 C 209.668 41.813,209.765 41.912,210.089 41.787 C 210.752 41.533,214.087 43.936,213.774 44.442 C 213.648 44.646,213.374 44.708,213.166 44.579 C 212.957 44.450,212.879 44.196,212.991 44.014 C 213.104 43.833,212.922 43.579,212.588 43.451 C 212.092 43.260,212.060 43.364,212.409 44.017 C 212.645 44.457,212.736 44.980,212.612 45.181 C 212.488 45.381,212.598 45.675,212.855 45.834 C 213.148 46.015,213.216 45.950,213.038 45.662 C 212.603 44.958,213.107 45.107,214.408 46.069 C 215.322 46.745,215.484 47.058,215.135 47.479 C 214.888 47.776,214.802 48.135,214.943 48.276 C 215.084 48.418,215.200 48.317,215.200 48.053 C 215.200 47.707,215.410 47.684,215.947 47.972 C 216.358 48.192,216.786 48.280,216.898 48.169 C 217.010 48.057,217.207 48.241,217.336 48.577 C 217.477 48.946,217.259 49.354,216.785 49.608 C 215.772 50.150,215.793 50.729,216.870 51.874 C 217.496 52.541,217.580 52.803,217.170 52.812 C 216.761 52.821,216.801 52.941,217.308 53.237 C 217.698 53.464,217.931 53.788,217.826 53.958 C 217.525 54.446,218.966 54.329,219.294 53.839 C 219.464 53.585,219.590 53.770,219.594 54.276 C 219.601 55.257,218.990 55.831,218.604 55.207 C 218.466 54.983,218.183 54.800,217.976 54.800 C 217.769 54.800,217.981 55.181,218.447 55.647 C 219.131 56.331,219.361 56.389,219.641 55.947 C 219.887 55.560,219.990 55.715,219.994 56.480 C 219.997 57.074,219.752 57.704,219.449 57.880 C 219.088 58.090,218.966 58.646,219.095 59.500 C 219.334 61.087,219.887 61.196,220.113 59.700 C 220.205 59.095,220.307 85.902,220.340 119.271 C 220.397 176.745,220.363 179.951,219.700 180.124 C 219.078 180.287,219.075 180.312,219.671 180.354 C 220.040 180.379,220.425 180.715,220.527 181.100 C 220.630 181.485,220.687 153.450,220.656 118.800 C 220.592 49.245,220.777 54.369,218.140 48.984 C 214.390 41.327,205.264 37.101,196.564 38.994 M205.714 40.408 C 205.548 41.040,205.383 41.118,204.956 40.763 C 204.336 40.249,204.577 39.600,205.386 39.600 C 205.730 39.600,205.849 39.893,205.714 40.408 M190.317 42.423 C 189.501 42.898,189.809 44.013,190.743 43.968 C 191.121 43.950,191.197 43.854,190.922 43.743 C 190.660 43.636,190.544 43.291,190.664 42.976 C 190.785 42.662,191.073 42.521,191.304 42.664 C 191.549 42.816,191.605 42.731,191.438 42.462 C 191.102 41.918,191.177 41.921,190.317 42.423 M209.942 42.708 C 209.461 43.323,209.473 43.343,210.053 42.890 C 210.590 42.470,210.747 42.484,210.931 42.965 C 211.064 43.310,210.878 43.623,210.478 43.729 C 209.970 43.862,210.015 43.919,210.657 43.954 C 211.786 44.015,212.188 42.929,211.227 42.415 C 210.665 42.114,210.352 42.185,209.942 42.708 M187.208 45.674 C 186.701 46.084,186.193 46.327,186.079 46.212 C 185.728 45.861,187.281 44.403,187.718 44.673 C 187.961 44.823,187.751 45.234,187.208 45.674 M216.762 47.800 C 216.748 48.020,216.646 47.974,216.534 47.698 C 216.423 47.421,216.139 47.314,215.904 47.459 C 215.662 47.609,215.592 47.536,215.743 47.292 C 215.889 47.055,215.465 46.474,214.800 46.000 C 214.132 45.524,213.712 44.942,213.862 44.700 C 214.149 44.236,216.809 47.078,216.762 47.800 M218.445 52.115 C 218.143 52.417,217.783 52.327,217.209 51.809 C 216.214 50.908,216.168 50.108,217.100 49.910 C 217.995 49.721,219.073 51.487,218.445 52.115 M183.661 53.299 C 183.247 53.713,182.400 53.387,182.400 52.814 C 182.400 52.627,182.772 52.572,183.226 52.691 C 183.766 52.832,183.917 53.043,183.661 53.299 M218.908 53.252 C 218.667 53.493,218.241 53.549,217.961 53.376 C 217.586 53.144,217.655 52.989,218.227 52.781 C 219.174 52.437,219.498 52.662,218.908 53.252 M57.000 180.401 C 52.026 181.149,48.854 182.551,45.682 185.402 C 43.861 187.039,42.572 188.951,44.200 187.600 C 44.530 187.326,44.800 187.245,44.800 187.421 C 44.800 187.596,45.279 187.303,45.864 186.770 C 46.670 186.035,46.867 185.970,46.677 186.500 C 46.409 187.244,46.696 187.381,47.479 186.883 C 47.943 186.588,47.591 185.494,47.055 185.566 C 46.915 185.585,46.798 185.465,46.795 185.300 C 46.792 185.135,47.152 184.980,47.595 184.955 C 48.038 184.930,48.400 185.065,48.400 185.255 C 48.400 186.032,49.035 185.532,49.097 184.705 C 49.134 184.213,49.038 183.988,48.882 184.205 C 48.587 184.618,47.600 184.935,47.600 184.617 C 47.600 184.516,48.432 183.946,49.448 183.351 L 51.297 182.267 51.973 183.165 C 52.751 184.196,53.919 183.407,53.444 182.172 C 53.287 181.763,53.379 181.597,53.700 181.710 C 53.975 181.807,54.175 182.180,54.145 182.539 C 54.115 182.898,54.235 183.102,54.411 182.993 C 54.587 182.884,54.819 183.021,54.925 183.298 C 55.031 183.574,55.100 183.350,55.078 182.800 C 55.056 182.250,54.850 181.668,54.619 181.506 C 54.389 181.344,54.626 181.209,55.147 181.206 C 55.888 181.201,56.049 181.368,55.890 181.976 C 55.714 182.650,55.787 182.690,56.444 182.280 C 57.323 181.731,57.403 181.349,56.700 181.065 C 56.425 180.954,56.590 180.849,57.067 180.832 C 58.207 180.790,59.246 181.202,59.000 181.599 C 58.776 181.962,60.782 182.551,61.114 182.219 C 61.235 182.099,61.003 182.000,60.600 182.000 C 60.197 182.000,60.002 181.865,60.167 181.700 C 60.332 181.535,87.407 181.307,120.333 181.194 L 180.200 180.989 120.000 180.796 L 59.800 180.604 120.200 180.400 L 180.600 180.196 119.800 180.148 C 86.360 180.121,58.100 180.235,57.000 180.401 M282.000 180.395 L 342.600 180.604 282.000 180.796 L 221.400 180.989 281.600 181.206 C 314.710 181.326,342.250 181.569,342.800 181.747 C 343.459 181.960,343.618 181.940,343.266 181.690 C 342.836 181.384,342.861 181.262,343.399 181.056 C 344.320 180.702,346.301 180.745,345.761 181.106 C 345.064 181.572,345.262 182.629,346.045 182.629 C 346.527 182.629,346.635 182.484,346.381 182.177 C 345.901 181.599,346.307 181.198,347.367 181.206 C 348.045 181.211,348.089 181.283,347.603 181.589 C 347.095 181.911,347.089 182.043,347.562 182.483 C 347.907 182.804,348.017 182.821,347.852 182.528 C 347.369 181.667,348.437 181.506,350.189 182.174 C 351.644 182.730,351.883 182.974,351.708 183.717 C 351.517 184.527,351.545 184.543,352.050 183.907 C 352.407 183.458,352.790 183.335,353.141 183.556 C 353.564 183.824,353.480 184.039,352.752 184.549 C 352.240 184.907,352.031 185.200,352.287 185.200 C 352.543 185.200,352.876 185.001,353.026 184.757 C 353.217 184.449,353.402 184.479,353.635 184.857 C 353.858 185.217,353.740 185.492,353.285 185.672 C 352.728 185.893,352.768 185.949,353.500 185.972 C 353.995 185.987,354.400 185.797,354.400 185.549 C 354.400 185.300,355.075 185.852,355.900 186.775 C 356.725 187.698,357.760 188.503,358.200 188.564 C 358.640 188.626,358.943 188.839,358.874 189.038 C 358.804 189.237,358.489 189.347,358.174 189.282 C 357.858 189.218,357.600 189.353,357.600 189.582 C 357.600 189.812,357.735 189.979,357.900 189.953 C 359.026 189.775,359.291 190.008,358.749 190.700 C 358.252 191.333,358.266 191.348,358.896 190.855 C 359.278 190.555,359.475 190.122,359.334 189.893 C 359.179 189.643,359.272 189.597,359.565 189.779 C 359.834 189.945,359.954 190.342,359.832 190.661 C 359.709 190.980,359.768 191.143,359.963 191.023 C 360.618 190.618,360.825 192.109,360.209 192.790 C 359.873 193.161,359.719 193.585,359.866 193.732 C 360.270 194.137,361.200 194.053,361.200 193.613 C 361.200 193.399,360.885 193.343,360.500 193.487 C 359.869 193.724,359.859 193.678,360.391 193.024 C 360.947 192.342,361.014 192.377,361.521 193.620 C 362.200 195.284,361.705 196.890,360.836 195.843 C 360.383 195.297,360.400 195.200,360.951 195.200 C 361.308 195.200,361.600 195.059,361.600 194.886 C 361.600 194.713,361.253 194.571,360.829 194.571 C 360.406 194.571,360.137 194.697,360.232 194.852 C 360.327 195.006,360.179 195.223,359.902 195.334 C 359.513 195.491,359.518 195.544,359.924 195.568 C 360.214 195.586,360.320 195.805,360.162 196.062 C 359.972 196.369,360.054 196.414,360.406 196.196 C 360.779 195.966,360.868 196.046,360.706 196.468 C 360.436 197.172,361.638 197.321,362.094 196.639 C 362.256 196.396,362.390 196.670,362.394 197.251 C 362.397 197.829,362.130 198.526,361.800 198.800 C 361.470 199.074,361.200 199.649,361.200 200.078 C 361.200 200.506,361.470 201.127,361.800 201.457 C 362.130 201.787,362.397 202.449,362.394 202.929 C 362.390 203.433,362.264 203.615,362.094 203.361 C 361.635 202.674,360.571 202.857,360.571 203.621 C 360.571 204.000,360.785 204.227,361.045 204.127 C 361.835 203.824,362.083 204.737,361.605 206.186 C 361.270 207.199,360.976 207.500,360.476 207.341 C 359.985 207.184,359.940 207.226,360.314 207.494 C 361.076 208.043,360.493 209.094,359.480 208.996 C 358.987 208.948,358.908 208.986,359.300 209.083 C 359.964 209.247,360.334 210.053,359.700 209.953 C 358.904 209.827,358.378 210.040,358.599 210.398 C 358.734 210.617,358.395 211.002,357.845 211.252 C 356.734 211.759,356.223 212.644,356.827 213.017 C 357.043 213.150,357.170 213.084,357.110 212.870 C 357.049 212.655,357.151 212.474,357.336 212.467 C 357.521 212.459,357.936 212.126,358.258 211.727 C 358.808 211.045,358.819 211.051,358.444 211.833 C 357.673 213.436,356.940 213.735,356.236 212.730 C 355.886 212.231,355.579 211.997,355.554 212.211 C 355.395 213.551,355.426 213.854,355.772 214.336 C 356.062 214.738,355.966 214.837,355.387 214.736 C 354.929 214.655,354.614 214.829,354.609 215.167 C 354.604 215.478,354.330 215.807,354.000 215.897 C 353.610 216.004,353.556 215.945,353.845 215.730 C 354.115 215.530,354.166 215.084,353.974 214.600 C 353.679 213.856,353.387 214.816,353.535 216.047 C 353.580 216.427,350.863 217.796,350.594 217.528 C 350.464 217.397,350.329 216.916,350.294 216.459 C 350.235 215.676,350.189 215.667,349.491 216.298 C 349.075 216.675,348.835 217.292,348.944 217.707 C 349.062 218.160,348.956 218.382,348.669 218.280 C 348.411 218.189,348.225 217.820,348.255 217.461 C 348.285 217.102,348.165 216.898,347.989 217.007 C 347.813 217.116,347.581 216.979,347.475 216.702 C 347.369 216.426,347.300 216.650,347.322 217.200 C 347.344 217.750,347.550 218.332,347.781 218.494 C 348.027 218.666,347.906 218.790,347.487 218.794 C 347.096 218.797,346.670 218.525,346.541 218.190 C 346.352 217.699,346.191 217.676,345.715 218.071 C 345.199 218.499,345.218 218.600,345.861 218.853 C 346.523 219.114,346.510 219.147,345.733 219.172 C 344.525 219.211,343.560 218.789,343.836 218.342 C 344.070 217.963,342.536 218.229,341.000 218.834 C 340.372 219.082,340.543 219.176,341.800 219.273 C 342.680 219.341,315.860 219.488,282.200 219.600 L 221.000 219.804 282.265 219.902 C 334.487 219.986,343.978 219.914,346.569 219.418 C 367.647 215.385,368.962 187.768,348.400 180.935 C 346.307 180.240,343.156 180.204,283.800 180.195 L 221.400 180.187 282.000 180.395 M53.022 182.435 C 53.169 182.674,53.114 183.046,52.899 183.261 C 52.643 183.517,52.432 183.366,52.291 182.826 C 52.064 181.958,52.562 181.691,53.022 182.435 M350.800 183.424 C 350.800 183.816,350.615 183.936,350.300 183.747 C 349.960 183.543,349.976 183.663,350.349 184.123 C 351.040 184.975,351.010 184.988,351.108 183.800 C 351.154 183.250,351.103 182.800,350.996 182.800 C 350.888 182.800,350.800 183.081,350.800 183.424 M49.721 183.517 C 49.405 183.717,49.369 184.022,49.615 184.411 C 49.925 184.901,49.989 184.879,49.994 184.276 C 49.998 183.832,50.178 183.663,50.462 183.838 C 50.748 184.015,50.815 183.948,50.638 183.662 C 50.304 183.121,50.336 183.126,49.721 183.517 M356.424 185.957 C 357.621 187.034,358.465 188.054,358.301 188.223 C 358.136 188.393,357.244 187.737,356.318 186.766 C 355.393 185.795,354.509 185.039,354.355 185.087 C 354.202 185.135,353.974 184.910,353.850 184.587 C 353.455 183.557,354.190 183.948,356.424 185.957 M44.158 188.068 C 44.057 188.231,43.755 188.282,43.487 188.180 C 42.810 187.922,40.890 191.488,39.966 194.717 C 37.491 203.372,41.689 213.393,49.433 217.315 C 54.741 220.003,49.091 219.797,118.000 219.805 L 180.200 219.812 119.600 219.604 C 86.270 219.490,59.720 219.341,60.600 219.273 C 61.857 219.176,62.028 219.082,61.400 218.834 C 59.864 218.229,58.330 217.963,58.564 218.342 C 58.691 218.548,58.512 218.825,58.165 218.958 C 57.273 219.300,55.713 219.249,56.219 218.894 C 56.450 218.732,56.667 218.152,56.701 217.605 C 56.745 216.915,56.661 216.778,56.427 217.156 C 56.220 217.492,55.879 217.576,55.545 217.374 C 55.101 217.107,55.092 217.161,55.497 217.660 C 56.028 218.316,55.794 218.800,54.946 218.800 C 54.633 218.800,54.523 218.545,54.671 218.160 C 54.878 217.620,54.797 217.595,54.150 217.999 C 52.930 218.761,50.388 217.635,51.424 216.791 C 52.078 216.259,52.124 216.269,51.887 216.900 C 51.743 217.285,51.799 217.600,52.013 217.600 C 52.498 217.600,52.524 216.524,52.045 216.228 C 51.850 216.107,51.468 216.277,51.196 216.604 C 50.924 216.932,50.516 217.200,50.289 217.200 C 50.062 217.200,50.219 216.795,50.638 216.300 L 51.400 215.400 50.506 216.157 C 49.587 216.934,45.998 215.373,46.572 214.446 C 46.682 214.268,46.238 213.611,45.586 212.986 C 44.934 212.362,44.400 211.996,44.400 212.174 C 44.400 212.352,44.130 212.274,43.800 212.000 C 43.470 211.726,43.214 211.299,43.232 211.051 C 43.251 210.770,43.340 210.789,43.466 211.102 C 43.577 211.379,43.861 211.486,44.096 211.341 C 44.335 211.193,44.408 211.263,44.261 211.501 C 44.094 211.771,44.307 211.845,44.849 211.703 C 45.641 211.496,45.621 211.447,44.550 210.996 C 43.917 210.729,43.274 210.581,43.120 210.667 C 42.685 210.909,41.929 209.239,42.243 208.730 C 42.428 208.431,42.343 208.388,41.994 208.604 C 41.606 208.844,41.535 208.747,41.727 208.245 C 41.873 207.867,41.826 207.660,41.624 207.785 C 41.037 208.148,40.685 206.420,41.216 205.781 C 41.514 205.422,41.539 205.200,41.282 205.200 C 41.054 205.200,40.765 205.425,40.640 205.700 C 40.516 205.975,40.463 205.840,40.522 205.400 C 40.582 204.960,40.909 204.620,41.249 204.644 C 41.589 204.669,41.867 204.474,41.867 204.211 C 41.867 203.610,40.700 203.572,40.306 204.161 C 39.941 204.707,39.896 203.536,40.247 202.621 C 40.472 202.034,40.539 202.037,40.986 202.649 C 41.375 203.180,41.545 203.212,41.801 202.799 C 42.009 202.462,41.967 202.373,41.682 202.549 C 41.111 202.902,40.622 200.388,40.947 198.766 C 41.079 198.103,41.030 197.658,40.836 197.778 C 40.445 198.020,39.997 197.096,40.006 196.067 C 40.010 195.650,40.122 195.565,40.306 195.839 C 40.700 196.428,41.867 196.390,41.867 195.789 C 41.867 195.526,41.589 195.331,41.249 195.356 C 40.909 195.380,40.582 195.040,40.522 194.600 C 40.463 194.160,40.516 194.025,40.640 194.300 C 40.765 194.575,41.054 194.800,41.282 194.800 C 41.539 194.800,41.514 194.578,41.216 194.219 C 40.466 193.316,41.078 191.815,41.934 192.460 C 42.496 192.883,42.522 192.874,42.100 192.401 C 41.505 191.733,41.434 191.050,41.995 191.397 C 42.233 191.544,42.283 191.354,42.121 190.921 C 41.874 190.265,41.918 190.254,42.602 190.800 C 43.194 191.273,43.282 191.280,43.014 190.837 C 42.752 190.402,42.871 190.325,43.537 190.500 C 44.012 190.624,44.400 190.541,44.400 190.316 C 44.400 190.091,43.943 189.994,43.384 190.101 C 42.737 190.225,42.429 190.133,42.534 189.848 C 42.625 189.601,42.908 189.447,43.161 189.504 C 43.415 189.561,43.725 189.339,43.851 189.011 C 44.019 188.572,44.270 188.516,44.800 188.800 C 45.418 189.131,46.000 188.671,46.000 187.853 C 46.000 187.618,44.314 187.815,44.158 188.068 M358.800 191.976 C 358.800 192.183,359.008 192.481,359.262 192.638 C 359.536 192.808,359.615 192.749,359.457 192.492 C 359.310 192.255,359.507 191.978,359.895 191.877 C 360.432 191.737,360.385 191.682,359.700 191.646 C 359.205 191.621,358.800 191.769,358.800 191.976 M39.889 201.300 C 39.801 202.015,39.728 201.430,39.728 200.000 C 39.728 198.570,39.801 197.985,39.889 198.700 C 39.978 199.415,39.978 200.585,39.889 201.300 M42.872 208.913 C 42.152 209.780,42.910 210.502,43.824 209.820 C 44.562 209.268,44.551 209.252,43.600 209.489 C 42.703 209.713,42.656 209.670,43.149 209.069 C 43.451 208.701,43.608 208.400,43.498 208.400 C 43.388 208.400,43.106 208.631,42.872 208.913 M46.995 214.034 C 47.073 215.086,49.392 216.660,49.827 215.956 C 50.027 215.632,49.953 215.582,49.599 215.801 C 49.208 216.042,49.132 215.905,49.300 215.263 C 49.424 214.788,49.375 214.400,49.192 214.400 C 49.009 214.400,48.778 214.715,48.680 215.100 C 48.545 215.630,48.371 215.484,47.963 214.500 C 47.350 213.019,46.905 212.805,46.995 214.034 M352.272 215.699 C 352.431 216.423,352.385 216.482,352.041 216.000 C 351.679 215.493,351.610 215.524,351.600 216.200 C 351.590 216.864,351.522 216.898,351.200 216.400 C 350.869 215.887,350.811 215.902,350.806 216.500 C 350.799 217.312,350.969 217.352,352.026 216.786 C 352.837 216.352,353.057 215.406,352.437 215.023 C 352.238 214.900,352.163 215.204,352.272 215.699 M350.143 217.973 C 349.797 218.356,349.132 217.234,349.424 216.761 C 349.656 216.386,349.811 216.455,350.019 217.027 C 350.173 217.452,350.229 217.878,350.143 217.973 M180.846 219.100 C 180.811 219.793,181.007 219.989,181.700 219.954 C 182.338 219.921,182.403 219.855,181.925 219.729 C 181.553 219.631,181.169 219.247,181.071 218.875 C 180.945 218.397,180.879 218.462,180.846 219.100 M220.400 218.971 C 220.400 219.285,220.085 219.624,219.700 219.724 C 219.173 219.862,219.223 219.919,219.900 219.954 C 220.549 219.987,220.800 219.777,220.800 219.200 C 220.800 218.760,220.710 218.400,220.600 218.400 C 220.490 218.400,220.400 218.657,220.400 218.971 M180.994 283.000 L 181.000 345.400 182.057 348.498 C 188.133 366.309,213.948 367.104,219.231 349.643 C 220.804 344.440,220.775 345.805,220.688 281.800 L 220.604 220.200 220.400 281.200 C 220.288 314.750,220.152 341.669,220.098 341.020 C 219.980 339.599,219.404 340.071,219.070 341.864 C 218.902 342.765,219.001 343.192,219.417 343.351 C 219.738 343.474,219.997 344.076,219.994 344.687 C 219.991 345.299,219.856 345.602,219.694 345.361 C 219.277 344.737,218.032 344.819,218.276 345.454 C 218.386 345.740,218.673 345.935,218.914 345.887 C 219.155 345.839,219.419 346.101,219.500 346.469 C 219.612 346.982,219.432 347.092,218.723 346.941 C 217.916 346.770,217.888 346.801,218.500 347.192 C 218.885 347.438,219.186 347.946,219.168 348.320 C 219.149 348.737,219.059 348.806,218.935 348.500 C 218.824 348.225,218.532 348.000,218.287 348.000 C 217.976 348.000,217.986 348.146,218.320 348.480 C 219.003 349.163,218.914 349.542,218.100 349.420 C 217.715 349.362,217.625 349.392,217.900 349.487 C 218.175 349.581,218.400 349.938,218.400 350.278 C 218.400 350.804,218.293 350.817,217.700 350.368 C 217.104 349.918,217.075 349.922,217.500 350.399 C 218.245 351.235,218.104 351.777,217.300 351.168 C 216.704 350.718,216.675 350.722,217.100 351.199 C 217.741 351.918,217.759 352.719,217.120 352.080 C 216.856 351.816,216.451 351.603,216.220 351.606 C 215.989 351.609,216.070 351.787,216.400 352.000 C 216.919 352.335,216.910 352.389,216.333 352.394 C 215.967 352.397,215.576 352.175,215.465 351.900 C 215.351 351.618,215.249 351.725,215.232 352.147 C 215.207 352.735,215.415 352.852,216.216 352.699 C 216.858 352.576,217.177 352.670,217.083 352.952 C 217.000 353.199,216.768 353.415,216.567 353.433 C 215.538 353.524,214.000 354.130,214.000 354.443 C 214.000 354.932,214.548 354.892,215.075 354.365 C 215.350 354.090,215.598 354.074,215.750 354.320 C 215.883 354.534,215.723 354.932,215.396 355.204 C 215.068 355.476,214.800 355.552,214.800 355.374 C 214.800 355.196,214.232 355.579,213.538 356.225 C 212.704 357.002,212.361 357.163,212.526 356.700 C 212.663 356.315,212.620 356.000,212.431 356.000 C 212.097 356.000,211.406 357.908,211.530 358.488 C 211.631 358.960,210.020 359.660,209.530 359.357 C 209.231 359.172,209.188 359.257,209.404 359.606 C 209.644 359.994,209.547 360.065,209.045 359.873 C 208.667 359.728,208.459 359.773,208.583 359.972 C 209.162 360.909,205.902 361.331,205.207 360.409 C 204.604 359.610,204.533 359.594,204.527 360.258 C 204.524 360.666,204.719 361.132,204.961 361.294 C 205.218 361.466,205.055 361.590,204.567 361.594 C 203.482 361.602,203.104 361.198,203.618 360.579 C 203.923 360.211,203.612 360.227,202.414 360.640 C 201.036 361.115,200.564 361.115,199.186 360.640 C 197.988 360.227,197.677 360.211,197.982 360.579 C 198.496 361.198,198.118 361.602,197.033 361.594 C 196.545 361.590,196.382 361.466,196.639 361.294 C 196.881 361.132,197.076 360.666,197.073 360.258 C 197.067 359.594,196.996 359.610,196.393 360.409 C 195.698 361.331,192.438 360.909,193.017 359.972 C 193.141 359.773,192.933 359.728,192.555 359.873 C 192.053 360.065,191.956 359.994,192.196 359.606 C 192.412 359.257,192.369 359.172,192.070 359.357 C 191.507 359.705,189.897 358.890,190.195 358.408 C 190.315 358.214,190.202 357.925,189.945 357.766 C 189.652 357.585,189.584 357.650,189.762 357.938 C 189.919 358.192,189.867 358.400,189.647 358.400 C 189.050 358.400,188.727 357.692,189.193 357.404 C 189.711 357.084,189.726 356.000,189.213 356.000 C 188.999 356.000,188.937 356.315,189.074 356.700 C 189.239 357.163,188.896 357.002,188.062 356.225 C 187.368 355.579,186.800 355.210,186.800 355.405 C 186.800 355.600,186.577 355.537,186.305 355.265 C 186.032 354.992,185.807 354.462,185.805 354.086 C 185.802 353.710,185.545 353.402,185.233 353.401 C 184.922 353.400,184.600 353.199,184.517 352.952 C 184.424 352.673,184.789 352.558,185.484 352.645 C 186.586 352.783,186.588 352.781,185.600 352.432 C 185.050 352.238,184.855 352.062,185.167 352.040 C 185.478 352.018,185.618 351.884,185.476 351.743 C 185.335 351.602,184.945 351.714,184.610 351.992 C 183.877 352.600,183.793 351.992,184.500 351.199 C 184.921 350.728,184.896 350.717,184.347 351.130 C 183.814 351.530,183.648 351.501,183.447 350.977 C 183.083 350.029,183.142 349.679,183.700 349.487 C 183.975 349.392,183.885 349.362,183.500 349.420 C 182.686 349.542,182.597 349.163,183.280 348.480 C 183.614 348.146,183.624 348.000,183.313 348.000 C 183.068 348.000,182.776 348.225,182.665 348.500 C 182.541 348.806,182.451 348.737,182.432 348.320 C 182.414 347.946,182.715 347.438,183.100 347.192 C 183.717 346.798,183.693 346.768,182.900 346.935 C 181.941 347.137,181.745 346.613,182.400 345.600 C 182.719 345.106,182.789 345.100,182.794 345.567 C 182.797 345.878,182.916 346.018,183.057 345.876 C 183.198 345.735,183.072 345.328,182.776 344.971 C 182.283 344.377,182.213 344.385,181.947 345.061 C 181.713 345.657,181.651 345.590,181.628 344.716 C 181.613 344.119,181.839 343.408,182.132 343.135 C 182.502 342.789,182.578 342.172,182.382 341.103 C 182.007 339.050,181.622 338.757,181.502 340.433 C 181.448 341.185,181.310 314.530,181.196 281.200 L 180.989 220.600 180.994 283.000 M187.232 353.924 C 187.214 354.212,187.032 354.344,186.828 354.217 C 186.623 354.091,186.350 354.157,186.221 354.366 C 185.890 354.902,186.535 355.211,187.168 354.820 C 187.459 354.640,187.600 354.247,187.480 353.946 C 187.311 353.520,187.256 353.515,187.232 353.924 M213.600 357.000 C 212.167 358.478,211.473 358.798,211.854 357.802 C 211.981 357.474,212.219 357.288,212.384 357.390 C 212.549 357.492,213.101 357.131,213.612 356.588 C 214.122 356.044,214.633 355.600,214.748 355.600 C 214.863 355.600,214.346 356.230,213.600 357.000 M190.736 357.874 C 190.421 358.987,191.345 359.404,192.071 358.476 C 192.541 357.875,192.525 357.858,191.931 358.323 C 191.351 358.777,191.243 358.724,191.123 357.923 L 190.984 357.000 190.736 357.874 M210.400 358.249 C 210.400 358.810,210.305 358.823,209.700 358.349 C 209.071 357.856,209.054 357.869,209.529 358.476 C 210.140 359.257,211.256 359.011,210.932 358.167 C 210.642 357.412,210.400 357.449,210.400 358.249 M202.100 361.889 C 201.385 361.978,200.215 361.978,199.500 361.889 C 198.785 361.801,199.370 361.728,200.800 361.728 C 202.230 361.728,202.815 361.801,202.100 361.889 " stroke="none" fill="#40fc4c" fill-rule="evenodd"></path><path id="path2" d="M196.564 38.994 C 189.320 40.570,184.039 45.714,181.704 53.468 C 181.049 55.645,180.998 59.979,180.944 118.800 C 180.913 153.450,180.968 181.496,181.068 181.125 C 181.168 180.753,181.553 180.369,181.925 180.271 C 182.538 180.109,182.535 180.089,181.900 180.046 C 181.236 180.002,181.203 176.856,181.253 119.500 C 181.282 86.225,181.430 59.630,181.582 60.400 L 181.859 61.800 182.167 60.600 C 182.336 59.940,182.553 59.106,182.649 58.747 C 182.745 58.388,182.548 57.989,182.212 57.860 C 181.853 57.722,181.613 57.165,181.632 56.513 C 181.649 55.901,181.754 55.625,181.865 55.900 C 182.160 56.631,182.536 56.516,183.168 55.500 C 183.663 54.706,183.658 54.658,183.127 55.097 C 182.409 55.690,181.998 55.373,182.006 54.233 C 182.010 53.745,182.134 53.582,182.306 53.839 C 182.468 54.081,182.915 54.276,183.300 54.273 C 183.685 54.269,183.912 54.178,183.803 54.070 C 183.695 53.962,183.797 53.645,184.029 53.365 C 184.341 52.989,184.236 52.740,183.626 52.414 C 183.172 52.171,182.800 51.776,182.800 51.537 C 182.800 51.260,183.054 51.294,183.500 51.632 C 184.096 52.082,184.125 52.078,183.700 51.601 C 182.974 50.787,183.086 50.445,184.000 50.684 C 184.440 50.799,184.800 51.088,184.800 51.327 C 184.800 51.626,184.940 51.620,185.253 51.307 C 185.874 50.686,185.385 49.590,184.513 49.646 C 183.845 49.690,183.844 49.704,184.500 49.876 C 184.885 49.976,185.200 50.209,185.200 50.392 C 185.200 50.575,184.830 50.628,184.377 50.510 C 183.863 50.376,183.638 50.077,183.777 49.715 C 183.900 49.396,184.000 49.084,184.000 49.023 C 184.000 48.961,184.405 48.951,184.900 49.000 C 185.395 49.050,185.485 49.012,185.100 48.917 C 184.715 48.822,184.400 48.547,184.400 48.306 C 184.400 48.064,184.514 47.980,184.653 48.119 C 184.792 48.258,185.228 48.199,185.624 47.987 C 186.174 47.693,186.384 47.766,186.525 48.301 C 186.659 48.816,186.719 48.758,186.754 48.082 C 186.802 47.134,185.731 46.950,185.106 47.800 C 184.921 48.051,184.810 48.023,184.806 47.724 C 184.799 47.197,185.494 46.669,186.365 46.537 C 186.676 46.490,187.396 45.979,187.965 45.401 C 188.534 44.823,188.820 44.407,188.600 44.475 C 188.380 44.544,188.200 44.420,188.200 44.200 C 188.200 43.980,188.412 43.798,188.672 43.795 C 188.931 43.792,189.291 43.628,189.472 43.431 C 189.662 43.223,189.547 43.197,189.200 43.368 C 188.870 43.531,189.117 43.189,189.750 42.609 C 190.382 42.028,191.157 41.651,191.471 41.772 C 191.787 41.893,191.933 41.815,191.797 41.595 C 191.663 41.378,191.743 41.200,191.976 41.200 C 192.209 41.200,192.400 41.560,192.400 42.000 C 192.400 42.929,193.015 43.059,193.480 42.228 C 193.656 41.914,193.978 41.689,194.195 41.728 C 194.412 41.768,194.650 41.485,194.724 41.100 C 194.798 40.715,194.671 40.400,194.442 40.400 C 194.212 40.400,194.143 40.713,194.287 41.100 C 194.517 41.713,194.466 41.732,193.875 41.251 C 193.278 40.765,193.197 40.811,193.172 41.651 C 193.146 42.531,193.120 42.541,192.824 41.800 C 192.576 41.179,192.723 40.882,193.485 40.470 C 194.660 39.835,195.781 40.152,195.446 41.024 C 195.311 41.377,195.378 41.537,195.605 41.397 C 195.822 41.263,196.000 41.373,196.000 41.643 C 196.000 41.913,196.095 42.038,196.211 41.922 C 196.327 41.806,196.237 41.223,196.010 40.626 C 195.652 39.685,195.691 39.561,196.299 39.694 C 196.684 39.779,196.961 40.045,196.913 40.286 C 196.865 40.527,197.060 40.814,197.346 40.924 C 197.929 41.148,198.088 39.937,197.524 39.567 C 197.328 39.438,198.803 39.333,200.800 39.333 C 202.797 39.333,204.272 39.438,204.076 39.567 C 203.454 39.975,203.680 41.144,204.332 40.894 C 204.754 40.732,204.834 40.821,204.604 41.194 C 204.395 41.531,204.432 41.628,204.704 41.459 C 204.939 41.314,205.223 41.421,205.334 41.698 C 205.491 42.087,205.544 42.082,205.568 41.676 C 205.586 41.388,205.778 41.263,205.995 41.397 C 206.216 41.534,206.293 41.385,206.168 41.061 C 205.889 40.333,206.583 39.877,207.519 40.174 C 207.973 40.318,208.226 40.786,208.216 41.461 C 208.207 42.045,208.425 42.599,208.700 42.694 C 208.975 42.789,209.200 42.592,209.200 42.257 C 209.200 41.922,209.408 41.519,209.662 41.362 C 209.946 41.186,210.015 41.252,209.841 41.534 C 209.668 41.813,209.765 41.912,210.089 41.787 C 210.752 41.533,214.087 43.936,213.774 44.442 C 213.648 44.646,213.374 44.708,213.166 44.579 C 212.957 44.450,212.879 44.196,212.991 44.014 C 213.104 43.833,212.922 43.579,212.588 43.451 C 212.092 43.260,212.060 43.364,212.409 44.017 C 212.645 44.457,212.736 44.980,212.612 45.181 C 212.488 45.381,212.598 45.675,212.855 45.834 C 213.148 46.015,213.216 45.950,213.038 45.662 C 212.603 44.958,213.107 45.107,214.408 46.069 C 215.322 46.745,215.484 47.058,215.135 47.479 C 214.888 47.776,214.802 48.135,214.943 48.276 C 215.084 48.418,215.200 48.317,215.200 48.053 C 215.200 47.707,215.410 47.684,215.947 47.972 C 216.358 48.192,216.786 48.280,216.898 48.169 C 217.010 48.057,217.207 48.241,217.336 48.577 C 217.477 48.946,217.259 49.354,216.785 49.608 C 215.772 50.150,215.793 50.729,216.870 51.874 C 217.496 52.541,217.580 52.803,217.170 52.812 C 216.761 52.821,216.801 52.941,217.308 53.237 C 217.698 53.464,217.931 53.788,217.826 53.958 C 217.525 54.446,218.966 54.329,219.294 53.839 C 219.464 53.585,219.590 53.770,219.594 54.276 C 219.601 55.257,218.990 55.831,218.604 55.207 C 218.466 54.983,218.183 54.800,217.976 54.800 C 217.769 54.800,217.981 55.181,218.447 55.647 C 219.131 56.331,219.361 56.389,219.641 55.947 C 219.887 55.560,219.990 55.715,219.994 56.480 C 219.997 57.074,219.752 57.704,219.449 57.880 C 219.088 58.090,218.966 58.646,219.095 59.500 C 219.334 61.087,219.887 61.196,220.113 59.700 C 220.205 59.095,220.307 85.902,220.340 119.271 C 220.397 176.745,220.363 179.951,219.700 180.124 C 219.078 180.287,219.075 180.312,219.671 180.354 C 220.040 180.379,220.425 180.715,220.527 181.100 C 220.630 181.485,220.687 153.450,220.656 118.800 C 220.592 49.245,220.777 54.369,218.140 48.984 C 214.390 41.327,205.264 37.101,196.564 38.994 M205.714 40.408 C 205.548 41.040,205.383 41.118,204.956 40.763 C 204.336 40.249,204.577 39.600,205.386 39.600 C 205.730 39.600,205.849 39.893,205.714 40.408 M190.317 42.423 C 189.501 42.898,189.809 44.013,190.743 43.968 C 191.121 43.950,191.197 43.854,190.922 43.743 C 190.660 43.636,190.544 43.291,190.664 42.976 C 190.785 42.662,191.073 42.521,191.304 42.664 C 191.549 42.816,191.605 42.731,191.438 42.462 C 191.102 41.918,191.177 41.921,190.317 42.423 M209.942 42.708 C 209.461 43.323,209.473 43.343,210.053 42.890 C 210.590 42.470,210.747 42.484,210.931 42.965 C 211.064 43.310,210.878 43.623,210.478 43.729 C 209.970 43.862,210.015 43.919,210.657 43.954 C 211.786 44.015,212.188 42.929,211.227 42.415 C 210.665 42.114,210.352 42.185,209.942 42.708 M187.208 45.674 C 186.701 46.084,186.193 46.327,186.079 46.212 C 185.728 45.861,187.281 44.403,187.718 44.673 C 187.961 44.823,187.751 45.234,187.208 45.674 M216.762 47.800 C 216.748 48.020,216.646 47.974,216.534 47.698 C 216.423 47.421,216.139 47.314,215.904 47.459 C 215.662 47.609,215.592 47.536,215.743 47.292 C 215.889 47.055,215.465 46.474,214.800 46.000 C 214.132 45.524,213.712 44.942,213.862 44.700 C 214.149 44.236,216.809 47.078,216.762 47.800 M218.445 52.115 C 218.143 52.417,217.783 52.327,217.209 51.809 C 216.214 50.908,216.168 50.108,217.100 49.910 C 217.995 49.721,219.073 51.487,218.445 52.115 M183.661 53.299 C 183.247 53.713,182.400 53.387,182.400 52.814 C 182.400 52.627,182.772 52.572,183.226 52.691 C 183.766 52.832,183.917 53.043,183.661 53.299 M218.908 53.252 C 218.667 53.493,218.241 53.549,217.961 53.376 C 217.586 53.144,217.655 52.989,218.227 52.781 C 219.174 52.437,219.498 52.662,218.908 53.252 M57.000 180.401 C 52.026 181.149,48.854 182.551,45.682 185.402 C 43.861 187.039,42.572 188.951,44.200 187.600 C 44.530 187.326,44.800 187.245,44.800 187.421 C 44.800 187.596,45.279 187.303,45.864 186.770 C 46.670 186.035,46.867 185.970,46.677 186.500 C 46.409 187.244,46.696 187.381,47.479 186.883 C 47.943 186.588,47.591 185.494,47.055 185.566 C 46.915 185.585,46.798 185.465,46.795 185.300 C 46.792 185.135,47.152 184.980,47.595 184.955 C 48.038 184.930,48.400 185.065,48.400 185.255 C 48.400 186.032,49.035 185.532,49.097 184.705 C 49.134 184.213,49.038 183.988,48.882 184.205 C 48.587 184.618,47.600 184.935,47.600 184.617 C 47.600 184.516,48.432 183.946,49.448 183.351 L 51.297 182.267 51.973 183.165 C 52.751 184.196,53.919 183.407,53.444 182.172 C 53.287 181.763,53.379 181.597,53.700 181.710 C 53.975 181.807,54.175 182.180,54.145 182.539 C 54.115 182.898,54.235 183.102,54.411 182.993 C 54.587 182.884,54.819 183.021,54.925 183.298 C 55.031 183.574,55.100 183.350,55.078 182.800 C 55.056 182.250,54.850 181.668,54.619 181.506 C 54.389 181.344,54.626 181.209,55.147 181.206 C 55.888 181.201,56.049 181.368,55.890 181.976 C 55.714 182.650,55.787 182.690,56.444 182.280 C 57.323 181.731,57.403 181.349,56.700 181.065 C 56.425 180.954,56.590 180.849,57.067 180.832 C 58.207 180.790,59.246 181.202,59.000 181.599 C 58.776 181.962,60.782 182.551,61.114 182.219 C 61.235 182.099,61.003 182.000,60.600 182.000 C 60.197 182.000,60.002 181.865,60.167 181.700 C 60.332 181.535,87.407 181.307,120.333 181.194 L 180.200 180.989 120.000 180.796 L 59.800 180.604 120.200 180.400 L 180.600 180.196 119.800 180.148 C 86.360 180.121,58.100 180.235,57.000 180.401 M282.000 180.395 L 342.600 180.604 282.000 180.796 L 221.400 180.989 281.600 181.206 C 314.710 181.326,342.250 181.569,342.800 181.747 C 343.459 181.960,343.618 181.940,343.266 181.690 C 342.836 181.384,342.861 181.262,343.399 181.056 C 344.320 180.702,346.301 180.745,345.761 181.106 C 345.064 181.572,345.262 182.629,346.045 182.629 C 346.527 182.629,346.635 182.484,346.381 182.177 C 345.901 181.599,346.307 181.198,347.367 181.206 C 348.045 181.211,348.089 181.283,347.603 181.589 C 347.095 181.911,347.089 182.043,347.562 182.483 C 347.907 182.804,348.017 182.821,347.852 182.528 C 347.369 181.667,348.437 181.506,350.189 182.174 C 351.644 182.730,351.883 182.974,351.708 183.717 C 351.517 184.527,351.545 184.543,352.050 183.907 C 352.407 183.458,352.790 183.335,353.141 183.556 C 353.564 183.824,353.480 184.039,352.752 184.549 C 352.240 184.907,352.031 185.200,352.287 185.200 C 352.543 185.200,352.876 185.001,353.026 184.757 C 353.217 184.449,353.402 184.479,353.635 184.857 C 353.858 185.217,353.740 185.492,353.285 185.672 C 352.728 185.893,352.768 185.949,353.500 185.972 C 353.995 185.987,354.400 185.797,354.400 185.549 C 354.400 185.300,355.075 185.852,355.900 186.775 C 356.725 187.698,357.760 188.503,358.200 188.564 C 358.640 188.626,358.943 188.839,358.874 189.038 C 358.804 189.237,358.489 189.347,358.174 189.282 C 357.858 189.218,357.600 189.353,357.600 189.582 C 357.600 189.812,357.735 189.979,357.900 189.953 C 359.026 189.775,359.291 190.008,358.749 190.700 C 358.252 191.333,358.266 191.348,358.896 190.855 C 359.278 190.555,359.475 190.122,359.334 189.893 C 359.179 189.643,359.272 189.597,359.565 189.779 C 359.834 189.945,359.954 190.342,359.832 190.661 C 359.709 190.980,359.768 191.143,359.963 191.023 C 360.618 190.618,360.825 192.109,360.209 192.790 C 359.873 193.161,359.719 193.585,359.866 193.732 C 360.270 194.137,361.200 194.053,361.200 193.613 C 361.200 193.399,360.885 193.343,360.500 193.487 C 359.869 193.724,359.859 193.678,360.391 193.024 C 360.947 192.342,361.014 192.377,361.521 193.620 C 362.200 195.284,361.705 196.890,360.836 195.843 C 360.383 195.297,360.400 195.200,360.951 195.200 C 361.308 195.200,361.600 195.059,361.600 194.886 C 361.600 194.713,361.253 194.571,360.829 194.571 C 360.406 194.571,360.137 194.697,360.232 194.852 C 360.327 195.006,360.179 195.223,359.902 195.334 C 359.513 195.491,359.518 195.544,359.924 195.568 C 360.214 195.586,360.320 195.805,360.162 196.062 C 359.972 196.369,360.054 196.414,360.406 196.196 C 360.779 195.966,360.868 196.046,360.706 196.468 C 360.436 197.172,361.638 197.321,362.094 196.639 C 362.256 196.396,362.390 196.670,362.394 197.251 C 362.397 197.829,362.130 198.526,361.800 198.800 C 361.470 199.074,361.200 199.649,361.200 200.078 C 361.200 200.506,361.470 201.127,361.800 201.457 C 362.130 201.787,362.397 202.449,362.394 202.929 C 362.390 203.433,362.264 203.615,362.094 203.361 C 361.635 202.674,360.571 202.857,360.571 203.621 C 360.571 204.000,360.785 204.227,361.045 204.127 C 361.835 203.824,362.083 204.737,361.605 206.186 C 361.270 207.199,360.976 207.500,360.476 207.341 C 359.985 207.184,359.940 207.226,360.314 207.494 C 361.076 208.043,360.493 209.094,359.480 208.996 C 358.987 208.948,358.908 208.986,359.300 209.083 C 359.964 209.247,360.334 210.053,359.700 209.953 C 358.904 209.827,358.378 210.040,358.599 210.398 C 358.734 210.617,358.395 211.002,357.845 211.252 C 356.734 211.759,356.223 212.644,356.827 213.017 C 357.043 213.150,357.170 213.084,357.110 212.870 C 357.049 212.655,357.151 212.474,357.336 212.467 C 357.521 212.459,357.936 212.126,358.258 211.727 C 358.808 211.045,358.819 211.051,358.444 211.833 C 357.673 213.436,356.940 213.735,356.236 212.730 C 355.886 212.231,355.579 211.997,355.554 212.211 C 355.395 213.551,355.426 213.854,355.772 214.336 C 356.062 214.738,355.966 214.837,355.387 214.736 C 354.929 214.655,354.614 214.829,354.609 215.167 C 354.604 215.478,354.330 215.807,354.000 215.897 C 353.610 216.004,353.556 215.945,353.845 215.730 C 354.115 215.530,354.166 215.084,353.974 214.600 C 353.679 213.856,353.387 214.816,353.535 216.047 C 353.580 216.427,350.863 217.796,350.594 217.528 C 350.464 217.397,350.329 216.916,350.294 216.459 C 350.235 215.676,350.189 215.667,349.491 216.298 C 349.075 216.675,348.835 217.292,348.944 217.707 C 349.062 218.160,348.956 218.382,348.669 218.280 C 348.411 218.189,348.225 217.820,348.255 217.461 C 348.285 217.102,348.165 216.898,347.989 217.007 C 347.813 217.116,347.581 216.979,347.475 216.702 C 347.369 216.426,347.300 216.650,347.322 217.200 C 347.344 217.750,347.550 218.332,347.781 218.494 C 348.027 218.666,347.906 218.790,347.487 218.794 C 347.096 218.797,346.670 218.525,346.541 218.190 C 346.352 217.699,346.191 217.676,345.715 218.071 C 345.199 218.499,345.218 218.600,345.861 218.853 C 346.523 219.114,346.510 219.147,345.733 219.172 C 344.525 219.211,343.560 218.789,343.836 218.342 C 344.070 217.963,342.536 218.229,341.000 218.834 C 340.372 219.082,340.543 219.176,341.800 219.273 C 342.680 219.341,315.860 219.488,282.200 219.600 L 221.000 219.804 282.265 219.902 C 334.487 219.986,343.978 219.914,346.569 219.418 C 367.647 215.385,368.962 187.768,348.400 180.935 C 346.307 180.240,343.156 180.204,283.800 180.195 L 221.400 180.187 282.000 180.395 M53.022 182.435 C 53.169 182.674,53.114 183.046,52.899 183.261 C 52.643 183.517,52.432 183.366,52.291 182.826 C 52.064 181.958,52.562 181.691,53.022 182.435 M350.800 183.424 C 350.800 183.816,350.615 183.936,350.300 183.747 C 349.960 183.543,349.976 183.663,350.349 184.123 C 351.040 184.975,351.010 184.988,351.108 183.800 C 351.154 183.250,351.103 182.800,350.996 182.800 C 350.888 182.800,350.800 183.081,350.800 183.424 M49.721 183.517 C 49.405 183.717,49.369 184.022,49.615 184.411 C 49.925 184.901,49.989 184.879,49.994 184.276 C 49.998 183.832,50.178 183.663,50.462 183.838 C 50.748 184.015,50.815 183.948,50.638 183.662 C 50.304 183.121,50.336 183.126,49.721 183.517 M356.424 185.957 C 357.621 187.034,358.465 188.054,358.301 188.223 C 358.136 188.393,357.244 187.737,356.318 186.766 C 355.393 185.795,354.509 185.039,354.355 185.087 C 354.202 185.135,353.974 184.910,353.850 184.587 C 353.455 183.557,354.190 183.948,356.424 185.957 M44.158 188.068 C 44.057 188.231,43.755 188.282,43.487 188.180 C 42.810 187.922,40.890 191.488,39.966 194.717 C 37.491 203.372,41.689 213.393,49.433 217.315 C 54.741 220.003,49.091 219.797,118.000 219.805 L 180.200 219.812 119.600 219.604 C 86.270 219.490,59.720 219.341,60.600 219.273 C 61.857 219.176,62.028 219.082,61.400 218.834 C 59.864 218.229,58.330 217.963,58.564 218.342 C 58.691 218.548,58.512 218.825,58.165 218.958 C 57.273 219.300,55.713 219.249,56.219 218.894 C 56.450 218.732,56.667 218.152,56.701 217.605 C 56.745 216.915,56.661 216.778,56.427 217.156 C 56.220 217.492,55.879 217.576,55.545 217.374 C 55.101 217.107,55.092 217.161,55.497 217.660 C 56.028 218.316,55.794 218.800,54.946 218.800 C 54.633 218.800,54.523 218.545,54.671 218.160 C 54.878 217.620,54.797 217.595,54.150 217.999 C 52.930 218.761,50.388 217.635,51.424 216.791 C 52.078 216.259,52.124 216.269,51.887 216.900 C 51.743 217.285,51.799 217.600,52.013 217.600 C 52.498 217.600,52.524 216.524,52.045 216.228 C 51.850 216.107,51.468 216.277,51.196 216.604 C 50.924 216.932,50.516 217.200,50.289 217.200 C 50.062 217.200,50.219 216.795,50.638 216.300 L 51.400 215.400 50.506 216.157 C 49.587 216.934,45.998 215.373,46.572 214.446 C 46.682 214.268,46.238 213.611,45.586 212.986 C 44.934 212.362,44.400 211.996,44.400 212.174 C 44.400 212.352,44.130 212.274,43.800 212.000 C 43.470 211.726,43.214 211.299,43.232 211.051 C 43.251 210.770,43.340 210.789,43.466 211.102 C 43.577 211.379,43.861 211.486,44.096 211.341 C 44.335 211.193,44.408 211.263,44.261 211.501 C 44.094 211.771,44.307 211.845,44.849 211.703 C 45.641 211.496,45.621 211.447,44.550 210.996 C 43.917 210.729,43.274 210.581,43.120 210.667 C 42.685 210.909,41.929 209.239,42.243 208.730 C 42.428 208.431,42.343 208.388,41.994 208.604 C 41.606 208.844,41.535 208.747,41.727 208.245 C 41.873 207.867,41.826 207.660,41.624 207.785 C 41.037 208.148,40.685 206.420,41.216 205.781 C 41.514 205.422,41.539 205.200,41.282 205.200 C 41.054 205.200,40.765 205.425,40.640 205.700 C 40.516 205.975,40.463 205.840,40.522 205.400 C 40.582 204.960,40.909 204.620,41.249 204.644 C 41.589 204.669,41.867 204.474,41.867 204.211 C 41.867 203.610,40.700 203.572,40.306 204.161 C 39.941 204.707,39.896 203.536,40.247 202.621 C 40.472 202.034,40.539 202.037,40.986 202.649 C 41.375 203.180,41.545 203.212,41.801 202.799 C 42.009 202.462,41.967 202.373,41.682 202.549 C 41.111 202.902,40.622 200.388,40.947 198.766 C 41.079 198.103,41.030 197.658,40.836 197.778 C 40.445 198.020,39.997 197.096,40.006 196.067 C 40.010 195.650,40.122 195.565,40.306 195.839 C 40.700 196.428,41.867 196.390,41.867 195.789 C 41.867 195.526,41.589 195.331,41.249 195.356 C 40.909 195.380,40.582 195.040,40.522 194.600 C 40.463 194.160,40.516 194.025,40.640 194.300 C 40.765 194.575,41.054 194.800,41.282 194.800 C 41.539 194.800,41.514 194.578,41.216 194.219 C 40.466 193.316,41.078 191.815,41.934 192.460 C 42.496 192.883,42.522 192.874,42.100 192.401 C 41.505 191.733,41.434 191.050,41.995 191.397 C 42.233 191.544,42.283 191.354,42.121 190.921 C 41.874 190.265,41.918 190.254,42.602 190.800 C 43.194 191.273,43.282 191.280,43.014 190.837 C 42.752 190.402,42.871 190.325,43.537 190.500 C 44.012 190.624,44.400 190.541,44.400 190.316 C 44.400 190.091,43.943 189.994,43.384 190.101 C 42.737 190.225,42.429 190.133,42.534 189.848 C 42.625 189.601,42.908 189.447,43.161 189.504 C 43.415 189.561,43.725 189.339,43.851 189.011 C 44.019 188.572,44.270 188.516,44.800 188.800 C 45.418 189.131,46.000 188.671,46.000 187.853 C 46.000 187.618,44.314 187.815,44.158 188.068 M358.800 191.976 C 358.800 192.183,359.008 192.481,359.262 192.638 C 359.536 192.808,359.615 192.749,359.457 192.492 C 359.310 192.255,359.507 191.978,359.895 191.877 C 360.432 191.737,360.385 191.682,359.700 191.646 C 359.205 191.621,358.800 191.769,358.800 191.976 M39.889 201.300 C 39.801 202.015,39.728 201.430,39.728 200.000 C 39.728 198.570,39.801 197.985,39.889 198.700 C 39.978 199.415,39.978 200.585,39.889 201.300 M42.872 208.913 C 42.152 209.780,42.910 210.502,43.824 209.820 C 44.562 209.268,44.551 209.252,43.600 209.489 C 42.703 209.713,42.656 209.670,43.149 209.069 C 43.451 208.701,43.608 208.400,43.498 208.400 C 43.388 208.400,43.106 208.631,42.872 208.913 M46.995 214.034 C 47.073 215.086,49.392 216.660,49.827 215.956 C 50.027 215.632,49.953 215.582,49.599 215.801 C 49.208 216.042,49.132 215.905,49.300 215.263 C 49.424 214.788,49.375 214.400,49.192 214.400 C 49.009 214.400,48.778 214.715,48.680 215.100 C 48.545 215.630,48.371 215.484,47.963 214.500 C 47.350 213.019,46.905 212.805,46.995 214.034 M352.272 215.699 C 352.431 216.423,352.385 216.482,352.041 216.000 C 351.679 215.493,351.610 215.524,351.600 216.200 C 351.590 216.864,351.522 216.898,351.200 216.400 C 350.869 215.887,350.811 215.902,350.806 216.500 C 350.799 217.312,350.969 217.352,352.026 216.786 C 352.837 216.352,353.057 215.406,352.437 215.023 C 352.238 214.900,352.163 215.204,352.272 215.699 M350.143 217.973 C 349.797 218.356,349.132 217.234,349.424 216.761 C 349.656 216.386,349.811 216.455,350.019 217.027 C 350.173 217.452,350.229 217.878,350.143 217.973 M180.846 219.100 C 180.811 219.793,181.007 219.989,181.700 219.954 C 182.338 219.921,182.403 219.855,181.925 219.729 C 181.553 219.631,181.169 219.247,181.071 218.875 C 180.945 218.397,180.879 218.462,180.846 219.100 M220.400 218.971 C 220.400 219.285,220.085 219.624,219.700 219.724 C 219.173 219.862,219.223 219.919,219.900 219.954 C 220.549 219.987,220.800 219.777,220.800 219.200 C 220.800 218.760,220.710 218.400,220.600 218.400 C 220.490 218.400,220.400 218.657,220.400 218.971 M180.994 283.000 L 181.000 345.400 182.057 348.498 C 188.133 366.309,213.948 367.104,219.231 349.643 C 220.804 344.440,220.775 345.805,220.688 281.800 L 220.604 220.200 220.400 281.200 C 220.288 314.750,220.152 341.669,220.098 341.020 C 219.980 339.599,219.404 340.071,219.070 341.864 C 218.902 342.765,219.001 343.192,219.417 343.351 C 219.738 343.474,219.997 344.076,219.994 344.687 C 219.991 345.299,219.856 345.602,219.694 345.361 C 219.277 344.737,218.032 344.819,218.276 345.454 C 218.386 345.740,218.673 345.935,218.914 345.887 C 219.155 345.839,219.419 346.101,219.500 346.469 C 219.612 346.982,219.432 347.092,218.723 346.941 C 217.916 346.770,217.888 346.801,218.500 347.192 C 218.885 347.438,219.186 347.946,219.168 348.320 C 219.149 348.737,219.059 348.806,218.935 348.500 C 218.824 348.225,218.532 348.000,218.287 348.000 C 217.976 348.000,217.986 348.146,218.320 348.480 C 219.003 349.163,218.914 349.542,218.100 349.420 C 217.715 349.362,217.625 349.392,217.900 349.487 C 218.175 349.581,218.400 349.938,218.400 350.278 C 218.400 350.804,218.293 350.817,217.700 350.368 C 217.104 349.918,217.075 349.922,217.500 350.399 C 218.245 351.235,218.104 351.777,217.300 351.168 C 216.704 350.718,216.675 350.722,217.100 351.199 C 217.741 351.918,217.759 352.719,217.120 352.080 C 216.856 351.816,216.451 351.603,216.220 351.606 C 215.989 351.609,216.070 351.787,216.400 352.000 C 216.919 352.335,216.910 352.389,216.333 352.394 C 215.967 352.397,215.576 352.175,215.465 351.900 C 215.351 351.618,215.249 351.725,215.232 352.147 C 215.207 352.735,215.415 352.852,216.216 352.699 C 216.858 352.576,217.177 352.670,217.083 352.952 C 217.000 353.199,216.768 353.415,216.567 353.433 C 215.538 353.524,214.000 354.130,214.000 354.443 C 214.000 354.932,214.548 354.892,215.075 354.365 C 215.350 354.090,215.598 354.074,215.750 354.320 C 215.883 354.534,215.723 354.932,215.396 355.204 C 215.068 355.476,214.800 355.552,214.800 355.374 C 214.800 355.196,214.232 355.579,213.538 356.225 C 212.704 357.002,212.361 357.163,212.526 356.700 C 212.663 356.315,212.620 356.000,212.431 356.000 C 212.097 356.000,211.406 357.908,211.530 358.488 C 211.631 358.960,210.020 359.660,209.530 359.357 C 209.231 359.172,209.188 359.257,209.404 359.606 C 209.644 359.994,209.547 360.065,209.045 359.873 C 208.667 359.728,208.459 359.773,208.583 359.972 C 209.162 360.909,205.902 361.331,205.207 360.409 C 204.604 359.610,204.533 359.594,204.527 360.258 C 204.524 360.666,204.719 361.132,204.961 361.294 C 205.218 361.466,205.055 361.590,204.567 361.594 C 203.482 361.602,203.104 361.198,203.618 360.579 C 203.923 360.211,203.612 360.227,202.414 360.640 C 201.036 361.115,200.564 361.115,199.186 360.640 C 197.988 360.227,197.677 360.211,197.982 360.579 C 198.496 361.198,198.118 361.602,197.033 361.594 C 196.545 361.590,196.382 361.466,196.639 361.294 C 196.881 361.132,197.076 360.666,197.073 360.258 C 197.067 359.594,196.996 359.610,196.393 360.409 C 195.698 361.331,192.438 360.909,193.017 359.972 C 193.141 359.773,192.933 359.728,192.555 359.873 C 192.053 360.065,191.956 359.994,192.196 359.606 C 192.412 359.257,192.369 359.172,192.070 359.357 C 191.507 359.705,189.897 358.890,190.195 358.408 C 190.315 358.214,190.202 357.925,189.945 357.766 C 189.652 357.585,189.584 357.650,189.762 357.938 C 189.919 358.192,189.867 358.400,189.647 358.400 C 189.050 358.400,188.727 357.692,189.193 357.404 C 189.711 357.084,189.726 356.000,189.213 356.000 C 188.999 356.000,188.937 356.315,189.074 356.700 C 189.239 357.163,188.896 357.002,188.062 356.225 C 187.368 355.579,186.800 355.210,186.800 355.405 C 186.800 355.600,186.577 355.537,186.305 355.265 C 186.032 354.992,185.807 354.462,185.805 354.086 C 185.802 353.710,185.545 353.402,185.233 353.401 C 184.922 353.400,184.600 353.199,184.517 352.952 C 184.424 352.673,184.789 352.558,185.484 352.645 C 186.586 352.783,186.588 352.781,185.600 352.432 C 185.050 352.238,184.855 352.062,185.167 352.040 C 185.478 352.018,185.618 351.884,185.476 351.743 C 185.335 351.602,184.945 351.714,184.610 351.992 C 183.877 352.600,183.793 351.992,184.500 351.199 C 184.921 350.728,184.896 350.717,184.347 351.130 C 183.814 351.530,183.648 351.501,183.447 350.977 C 183.083 350.029,183.142 349.679,183.700 349.487 C 183.975 349.392,183.885 349.362,183.500 349.420 C 182.686 349.542,182.597 349.163,183.280 348.480 C 183.614 348.146,183.624 348.000,183.313 348.000 C 183.068 348.000,182.776 348.225,182.665 348.500 C 182.541 348.806,182.451 348.737,182.432 348.320 C 182.414 347.946,182.715 347.438,183.100 347.192 C 183.717 346.798,183.693 346.768,182.900 346.935 C 181.941 347.137,181.745 346.613,182.400 345.600 C 182.719 345.106,182.789 345.100,182.794 345.567 C 182.797 345.878,182.916 346.018,183.057 345.876 C 183.198 345.735,183.072 345.328,182.776 344.971 C 182.283 344.377,182.213 344.385,181.947 345.061 C 181.713 345.657,181.651 345.590,181.628 344.716 C 181.613 344.119,181.839 343.408,182.132 343.135 C 182.502 342.789,182.578 342.172,182.382 341.103 C 182.007 339.050,181.622 338.757,181.502 340.433 C 181.448 341.185,181.310 314.530,181.196 281.200 L 180.989 220.600 180.994 283.000 M187.232 353.924 C 187.214 354.212,187.032 354.344,186.828 354.217 C 186.623 354.091,186.350 354.157,186.221 354.366 C 185.890 354.902,186.535 355.211,187.168 354.820 C 187.459 354.640,187.600 354.247,187.480 353.946 C 187.311 353.520,187.256 353.515,187.232 353.924 M213.600 357.000 C 212.167 358.478,211.473 358.798,211.854 357.802 C 211.981 357.474,212.219 357.288,212.384 357.390 C 212.549 357.492,213.101 357.131,213.612 356.588 C 214.122 356.044,214.633 355.600,214.748 355.600 C 214.863 355.600,214.346 356.230,213.600 357.000 M190.736 357.874 C 190.421 358.987,191.345 359.404,192.071 358.476 C 192.541 357.875,192.525 357.858,191.931 358.323 C 191.351 358.777,191.243 358.724,191.123 357.923 L 190.984 357.000 190.736 357.874 M210.400 358.249 C 210.400 358.810,210.305 358.823,209.700 358.349 C 209.071 357.856,209.054 357.869,209.529 358.476 C 210.140 359.257,211.256 359.011,210.932 358.167 C 210.642 357.412,210.400 357.449,210.400 358.249 M202.100 361.889 C 201.385 361.978,200.215 361.978,199.500 361.889 C 198.785 361.801,199.370 361.728,200.800 361.728 C 202.230 361.728,202.815 361.801,202.100 361.889 " stroke="none" fill="#40fc4c" fill-rule="evenodd"></path></g></svg>