<svg version="1.1" id="Layer_1" xmlns="http://www.w3.org/2000/svg" xmlns:xlink="http://www.w3.org/1999/xlink" x="0px" y="0px"
	 width="100%" viewBox="0 0 512 512" enable-background="new 0 0 512 512" xml:space="preserve">
<path fill="#FF0000" opacity="1.000000" stroke="none" 
	d="
M246.017975,73.816772 
	C251.547028,69.599167 257.467285,69.662888 262.766327,73.097084 
	C267.944855,76.453163 269.671143,82.266396 273.307373,86.525421 
	C277.760773,91.741623 280.744690,97.868027 284.654083,103.314224 
	C289.213959,109.666542 296.512360,114.165634 298.459991,122.734344 
	C299.098663,125.544136 302.407959,128.400482 304.720032,131.026138 
	C309.928436,136.940872 312.747742,144.309418 317.099182,150.736526 
	C319.435852,154.187836 322.449738,157.239243 322.913239,161.789001 
	C323.263397,165.226334 326.475098,166.036041 329.067749,166.342789 
	C342.480316,167.929703 354.959717,173.258621 368.055328,175.891037 
	C387.350433,179.769653 406.149261,185.952072 425.779449,188.226944 
	C428.002960,188.484619 433.099945,195.803421 433.321625,199.021942 
	C433.587097,202.876648 432.705841,206.091446 430.479797,209.651367 
	C426.306366,216.325455 422.172089,222.982559 417.343536,229.205566 
	C412.187866,235.850189 405.138062,240.781509 400.440399,247.819382 
	C397.984039,251.499374 394.187958,254.209457 393.384644,259.161255 
	C393.044983,261.254852 391.005096,263.635529 388.330261,264.167175 
	C385.972839,264.635712 384.752350,266.253845 383.012909,268.045410 
	C384.091797,267.845947 384.696045,267.734253 385.802185,267.529724 
	C384.927612,270.263855 383.516541,272.181976 381.369690,273.815735 
	C380.998840,273.024323 380.718506,272.426086 380.258118,271.443573 
	C379.853180,272.444672 379.406067,273.034271 379.412720,273.618683 
	C379.451416,277.013885 373.179199,287.448730 369.979614,288.079559 
	C364.647156,289.130890 363.866089,292.538574 364.439148,296.934204 
	C366.402344,311.993134 367.057312,327.172913 368.558075,342.257202 
	C370.246124,359.223999 370.716034,376.286804 372.930420,393.192047 
	C374.114349,402.230377 364.329987,410.691589 355.412964,407.568207 
	C336.630981,400.989410 317.962982,394.077942 299.324341,387.099609 
	C285.424072,381.895325 271.632477,376.399506 257.819641,370.964478 
	C255.405869,370.014740 253.252899,370.433136 251.110519,371.542969 
	C235.079849,379.847473 217.858170,385.317017 201.359146,392.489349 
	C188.596786,398.037262 175.509918,402.818604 163.182114,409.464996 
	C157.867767,412.330139 151.468597,410.547516 146.256241,407.432373 
	C142.971283,405.469116 142.930679,401.118927 142.899612,397.984619 
	C142.789398,386.869904 143.480225,375.746216 143.928177,364.628326 
	C143.987610,363.153168 144.615845,361.691345 144.610901,360.224609 
	C144.544937,340.610504 146.967743,321.089783 146.755310,301.465118 
	C146.703262,296.655487 149.158020,291.808411 145.634171,287.152161 
	C144.106232,285.133209 142.605621,283.072296 140.492157,281.848175 
	C138.678040,280.797394 137.368256,279.388580 136.111877,277.885681 
	C134.198013,275.596313 131.816071,273.473511 130.133759,271.362030 
	C125.526535,265.579407 119.330803,261.246002 115.504799,254.832962 
	C110.541405,246.513443 104.396278,239.209763 97.438637,232.412552 
	C93.166595,228.238983 88.534554,224.406601 84.787483,219.580902 
	C77.878441,210.683014 76.771629,203.588409 82.084892,194.064774 
	C83.068932,192.300949 84.591179,190.586365 86.719528,190.662460 
	C97.883125,191.061554 107.755699,185.812347 118.307274,183.562134 
	C123.655197,182.421646 129.679367,182.170593 133.248917,176.761505 
	C134.097778,175.475189 135.487839,175.493210 136.810837,176.160080 
	C137.626877,177.267090 135.438644,177.463181 136.155472,178.880066 
	C144.561218,176.194580 153.143219,174.615784 161.347763,171.236740 
	C167.873352,168.549225 175.002655,166.924149 182.019943,165.940216 
	C190.057953,164.813141 194.594940,160.234390 197.520706,153.363647 
	C198.426376,151.236832 201.820251,149.565109 198.955414,146.642181 
	C203.626602,144.272385 222.885590,112.508759 224.507324,104.672737 
	C225.992737,103.851006 225.246429,105.646011 226.425323,106.022003 
	C230.725250,95.891083 239.544617,88.108284 241.849960,76.746269 
	C242.286194,74.596291 244.513611,75.059616 246.017975,73.816772 
M173.378494,338.815033 
	C174.305725,350.515320 170.731384,362.216766 173.202682,374.131775 
	C179.016846,371.139984 184.959396,369.107574 190.714188,366.645691 
	C202.276398,361.699280 214.056366,357.316040 225.483978,351.961670 
	C233.607712,348.155334 242.553589,346.055115 250.349792,341.173828 
	C252.833206,339.618958 256.163818,339.268951 258.928650,340.977722 
	C268.755432,347.051086 279.999908,349.613647 290.569977,353.813538 
	C306.094666,359.982117 321.890991,365.468597 337.592224,371.188965 
	C339.072449,371.728271 340.672241,372.405792 342.560638,371.432098 
	C342.560638,369.818878 342.683258,368.166656 342.541473,366.537445 
	C341.277740,352.018036 339.995422,337.500092 338.660889,322.987061 
	C337.766418,313.259857 336.862579,303.531952 335.794098,293.822968 
	C335.312531,289.447327 335.531891,285.030090 337.163544,281.140381 
	C337.976379,279.202606 341.136444,278.248688 338.977692,275.312439 
	C344.381012,274.183807 351.088684,266.270813 350.942566,261.628540 
	C354.273041,261.439423 356.154083,259.028412 357.679169,256.638580 
	C360.460236,252.280716 362.937653,247.106689 366.390320,243.946701 
	C371.218536,239.527771 374.762207,234.248703 379.229797,229.699066 
	C380.451141,228.455261 377.230499,226.629440 379.989441,226.251083 
	C383.078156,225.827499 383.705933,224.053619 383.700287,221.254517 
	C383.698273,220.240601 385.034607,218.657806 386.082703,218.312073 
	C389.488831,217.188461 391.174500,214.187546 394.406647,211.906479 
	C387.409668,209.633240 381.120483,207.128693 374.605560,205.563690 
	C358.017609,201.578979 341.286285,198.190643 324.700623,194.196960 
	C317.778961,192.530273 309.884552,192.650391 305.103851,185.869904 
	C302.328979,181.934311 298.755798,178.191879 297.321014,173.783478 
	C295.839691,169.232025 290.920197,168.193726 289.657379,163.058640 
	C288.204376,157.150040 281.499695,153.431473 279.212341,147.200073 
	C276.683319,140.310272 270.407532,136.284332 265.831665,131.001328 
	C264.117920,129.022781 265.886383,126.300880 263.658112,125.391762 
	C260.902435,124.267464 259.674835,121.554993 259.679199,119.619667 
	C259.687408,115.964531 257.616882,114.537987 254.523926,111.986977 
	C252.885178,118.512871 248.806595,122.864799 245.283005,127.635529 
	C238.632278,136.640167 234.636322,147.244003 228.338684,156.517838 
	C222.479202,165.146423 217.049332,174.073120 211.619583,182.983887 
	C209.578186,186.334015 205.095459,187.164993 203.845551,191.136414 
	C198.943237,188.988403 129.196396,208.510513 120.051903,214.825653 
	C124.803955,217.454132 128.270782,221.117447 131.529434,225.066635 
	C134.537399,228.711990 138.715286,231.428574 139.235046,236.782852 
	C139.435638,238.849274 141.190720,240.254974 142.907654,241.310913 
	C146.952545,243.798630 150.968964,246.229294 151.928986,251.473770 
	C152.067276,252.229202 152.655502,253.375961 153.225220,253.505173 
	C158.685410,254.743515 159.484116,261.207306 164.293289,263.226288 
	C165.582199,263.767395 165.581070,265.760986 166.128342,267.113281 
	C166.674881,268.463715 166.891449,271.009064 168.760895,270.853577 
	C173.318146,270.474640 173.290176,274.032806 174.243973,276.645782 
	C176.438400,282.657562 175.930725,288.805450 175.516266,295.109222 
	C174.688019,307.706451 174.701752,320.358154 174.291611,332.984894 
	C174.238419,334.622314 173.734085,336.245117 173.378494,338.815033 
z"/>
</svg>